<svg width="1959" height="705" viewBox="59 0 1841 705" fill="none" xmlns="http://www.w3.org/2000/svg">
<path d="M10.7695 401.396L1431.88 618.916L1844.07 374.6L1920.77 35.0508V704.051H12.2696L10.7695 401.396Z" fill="white"/>
<path d="M10.5494 396.31L1433.13 609.993C1438.66 610.823 1444.21 611.146 1449.32 610.935C1454.49 610.722 1458.44 605.898 1462.77 605.051L1474.77 597.551L1460.37 606.257C1452.63 610.939 1444.19 614.471 1435.34 615.555L1427.04 616.322L1418.61 616.599L1414.98 616.665C1410.97 616.738 1406.8 616.601 1402.56 616.256C1399.39 615.998 1396.19 615.625 1393.01 615.141L11.1126 404.67L10.5494 396.31Z" fill="white"/>
<g filter="url(#filter0_d_46_138)">
<path d="M1475.02 595.962L1475.02 595.965L1474.99 595.979L1463.02 603.462L1462.94 603.516L1462.84 603.535C1462.65 603.572 1462.46 603.618 1462.27 603.671L1460.62 604.672C1452.83 609.381 1444.32 612.949 1435.37 614.045L1435.37 614.046L1435.36 614.046L1427.05 614.814L1427.04 614.816L1427.02 614.816L1418.59 615.092L1418.58 615.093L1414.95 615.159C1410.93 615.232 1406.74 615.094 1402.49 614.748C1399.3 614.489 1396.09 614.115 1392.9 613.629L11.0036 403.158L10.6319 403.102L10.0001 393.723L1433.24 607.505C1438.73 608.33 1444.25 608.651 1449.33 608.442C1451.76 608.341 1453.93 607.156 1456.11 605.817C1457.99 604.661 1459.91 603.36 1461.91 602.764L1474.52 595.135L1475.02 595.962ZM1462.09 603.217C1458.02 604.393 1454.22 608.733 1449.32 608.935C1444.21 609.146 1438.66 608.823 1433.13 607.993L10.5491 394.31L11.1123 402.67L1393.01 613.141C1396.19 613.625 1399.39 613.998 1402.56 614.256C1406.8 614.6 1410.97 614.738 1414.98 614.665L1418.61 614.599L1427.04 614.323L1435.34 613.555C1444.19 612.472 1452.63 608.94 1460.37 604.257L1462.09 603.217ZM1462.09 603.217C1462.32 603.152 1462.54 603.095 1462.77 603.051L1474.77 595.551L1462.09 603.217Z" fill="black"/>
</g>
<path d="M1921.46 28.3725L1920.47 76.1488L1856.52 361.603C1855.7 365.258 1854.14 368.773 1851.91 371.998C1850.67 373.78 1849.24 375.463 1847.63 377.026L1846.84 377.788C1843.38 381.139 1839.32 384.038 1834.81 386.386L1829.55 389.125L1824.23 391.141C1822.24 391.894 1820.16 392.475 1818.03 392.877L1815 393.505L1808.8 394.117L1804.54 394.329C1804.45 394.334 1804.36 394.276 1804.34 394.195C1804.33 394.157 1804.36 394.119 1804.4 394.105L1806.46 393.48L1808.81 392.861L1812.72 391.621C1815.97 390.396 1819.1 388.972 1822.09 387.36L1823.47 386.613L1826.49 384.726L1828.41 383.161C1831.74 380.445 1834.79 377.501 1837.52 374.359L1838.66 373.043C1840.63 370.778 1842.35 368.372 1843.81 365.856C1844.85 363.35 1845.66 360.786 1846.25 358.182L1921.46 28.3725Z" fill="white"/>
<g filter="url(#filter1_d_46_138)">
<path d="M1856.53 361.603L1856.36 362.287C1855.51 365.696 1854.01 368.974 1851.91 371.997L1851.44 372.661C1850.32 374.199 1849.04 375.659 1847.63 377.026L1846.84 377.787L1846.19 378.41C1842.87 381.499 1839.04 384.184 1834.82 386.386L1829.55 389.124L1824.23 391.141L1823.48 391.415C1821.72 392.036 1819.9 392.526 1818.04 392.877L1815 393.505L1808.81 394.117L1804.55 394.329L1804.48 394.321C1804.43 394.309 1804.39 394.285 1804.37 394.251L1804.35 394.195C1804.34 394.157 1804.36 394.119 1804.41 394.105L1806.47 393.479L1808.81 392.861L1812.72 391.621C1815.56 390.549 1818.32 389.324 1820.96 387.955L1822.09 387.36L1823.48 386.612L1826.49 384.726L1828.41 383.161C1831.74 380.445 1834.79 377.5 1837.52 374.358L1838.66 373.043C1840.63 370.777 1842.35 368.372 1843.81 365.856C1844.72 363.663 1845.46 361.426 1846.02 359.156L1846.25 358.182L1921.49 29L1920.47 76.149L1856.53 361.603ZM1920.7 35.2824L1847 358.297C1846.4 360.931 1845.58 363.525 1844.53 366.059L1844.52 366.094L1844.5 366.128C1843.02 368.677 1841.27 371.114 1839.28 373.409L1838.14 374.726C1835.38 377.896 1832.31 380.868 1828.95 383.609L1827.03 385.173L1826.99 385.202L1823.94 387.113L1823.91 387.127L1823.89 387.139L1822.5 387.886C1819.48 389.514 1816.32 390.954 1813.04 392.193L1813.02 392.2L1812.99 392.207L1809.08 393.447L1809.06 393.454L1809.04 393.459L1809.02 393.462L1814.86 392.885L1817.85 392.267L1818.65 392.109C1820.45 391.727 1822.22 391.213 1823.91 390.57L1829.19 388.573L1834.41 385.853C1838.86 383.539 1842.85 380.683 1846.27 377.38L1847.05 376.617C1848.64 375.085 1850.04 373.433 1851.25 371.685C1853.45 368.521 1854.98 365.074 1855.78 361.489L1919.56 76.7756L1920.7 35.2824Z" fill="black"/>
</g>
<path d="M1530 380.065C1536.95 374.474 1545.39 370.312 1554.64 367.913C1563.42 365.636 1572.7 365.006 1581.81 366.069L1607.18 369.028L1607.18 369.029L1750.71 387.874L1750.71 387.874L1771.91 389.837L1786.6 391.193C1790.83 391.583 1795.09 391.606 1799.32 391.26L1823.49 389.288L1823.51 389.286L1823.52 389.282C1824.95 388.792 1826.19 389.352 1826.76 390.215C1827.34 391.079 1827.25 392.248 1825.98 392.983L1462.95 604.089C1467.51 599.345 1470.4 593.459 1472.23 587.957C1473.76 583.357 1474.55 579.02 1474.96 575.833C1475.17 574.24 1475.28 572.934 1475.33 572.026C1475.36 571.572 1475.38 571.217 1475.39 570.976C1475.39 570.855 1475.4 570.763 1475.4 570.701C1475.4 570.67 1475.4 570.646 1475.4 570.631C1475.4 570.623 1475.4 570.617 1475.4 570.613L1482.25 530.173L1482.25 530.172L1493.07 462.992L1503.06 423.212L1507.68 409.7C1511.28 399.149 1518.19 389.569 1527.69 381.924L1530 380.065ZM1461.69 605.048C1458.88 607.709 1455.48 609.935 1451.37 611.42C1451.36 611.388 1451.34 611.359 1451.31 611.333C1451.25 611.275 1451.17 611.249 1451.09 611.241C1451.08 611.239 1451.06 611.241 1451.04 611.24L1461.69 605.048Z" fill="white" stroke="black" stroke-width="0.2"/>
<g filter="url(#filter2_d_46_138)">
<path d="M1448.77 612.051C1452.53 611.299 1455.85 609.627 1458.99 607.797L1836.75 387.085C1838.9 385.828 1840.91 384.422 1842.77 382.882C1845.45 380.664 1847.8 378.183 1849.75 375.493L1850.04 375.089C1850.92 373.873 1851.68 372.596 1852.29 371.272L1856.05 363.21L1850.98 371.203C1847.27 377.054 1841.57 381.881 1834.59 385.09L1825.3 389.357C1820.45 391.585 1815.11 392.977 1809.59 393.447L1794.8 394.708C1790.59 395.066 1786.35 395.06 1782.14 394.69L1768.17 393.46L1747.72 391.651L1609.26 374.062L1584.87 371.319C1576.01 370.322 1566.99 370.964 1558.46 373.199C1549.52 375.542 1541.37 379.571 1534.64 384.97L1532.38 386.779C1523.14 394.193 1516.4 403.48 1512.84 413.715L1508.33 426.662L1498.46 464.981L1487.64 529.676L1481.44 565.005C1481.01 567.413 1480.38 569.768 1479.4 572.033C1475.66 580.698 1464.61 603.481 1448.77 612.051Z" fill="url(#paint0_linear_46_138)"/>
</g>
<defs>
<filter id="filter0_d_46_138" x="0" y="391.723" width="1485.02" height="241.456" filterUnits="userSpaceOnUse" color-interpolation-filters="sRGB">
<feFlood flood-opacity="0" result="BackgroundImageFix"/>
<feColorMatrix in="SourceAlpha" type="matrix" values="0 0 0 0 0 0 0 0 0 0 0 0 0 0 0 0 0 0 127 0" result="hardAlpha"/>
<feOffset dy="8"/>
<feGaussianBlur stdDeviation="5"/>
<feComposite in2="hardAlpha" operator="out"/>
<feColorMatrix type="matrix" values="0 0 0 0 0 0 0 0 0 0 0 0 0 0 0 0 0 0 0.87 0"/>
<feBlend mode="normal" in2="BackgroundImageFix" result="effect1_dropShadow_46_138"/>
<feBlend mode="normal" in="SourceGraphic" in2="effect1_dropShadow_46_138" result="shape"/>
</filter>
<filter id="filter1_d_46_138" x="1783.35" y="0" width="175.145" height="423.33" filterUnits="userSpaceOnUse" color-interpolation-filters="sRGB">
<feFlood flood-opacity="0" result="BackgroundImageFix"/>
<feColorMatrix in="SourceAlpha" type="matrix" values="0 0 0 0 0 0 0 0 0 0 0 0 0 0 0 0 0 0 127 0" result="hardAlpha"/>
<feOffset dx="8"/>
<feGaussianBlur stdDeviation="14.5"/>
<feComposite in2="hardAlpha" operator="out"/>
<feColorMatrix type="matrix" values="0 0 0 0 0 0 0 0 0 0 0 0 0 0 0 0 0 0 0.25 0"/>
<feBlend mode="normal" in2="BackgroundImageFix" result="effect1_dropShadow_46_138"/>
<feBlend mode="normal" in="SourceGraphic" in2="effect1_dropShadow_46_138" result="shape"/>
</filter>
<filter id="filter2_d_46_138" x="1427.77" y="334.21" width="465.285" height="306.84" filterUnits="userSpaceOnUse" color-interpolation-filters="sRGB">
<feFlood flood-opacity="0" result="BackgroundImageFix"/>
<feColorMatrix in="SourceAlpha" type="matrix" values="0 0 0 0 0 0 0 0 0 0 0 0 0 0 0 0 0 0 127 0" result="hardAlpha"/>
<feOffset dx="8"/>
<feGaussianBlur stdDeviation="14.5"/>
<feComposite in2="hardAlpha" operator="out"/>
<feColorMatrix type="matrix" values="0 0 0 0 0 0 0 0 0 0 0 0 0 0 0 0 0 0 0.25 0"/>
<feBlend mode="normal" in2="BackgroundImageFix" result="effect1_dropShadow_46_138"/>
<feBlend mode="normal" in="SourceGraphic" in2="effect1_dropShadow_46_138" result="shape"/>
</filter>
<linearGradient id="paint0_linear_46_138" x1="1538.85" y1="380.333" x2="1620.34" y2="517.797" gradientUnits="userSpaceOnUse">
<stop stop-color="white"/>
<stop offset="0.682692" stop-color="#CED4DD"/>
<stop offset="0.966346" stop-color="#E6E9ED"/>
</linearGradient>
</defs>
</svg>
