<svg width="1890" height="1013" viewBox="0 0 1890 1013" fill="none" xmlns="http://www.w3.org/2000/svg">
<path d="M1.07821 773.247L1212.95 992.057C1217.66 992.908 1222.51 992.62 1227.09 991.218C1231.71 989.803 1236.1 987.723 1240.12 985.043L1243.74 982.632L1252.83 977.573L1225.98 996.706C1222.08 999.484 1217.97 1001.95 1213.69 1004.09L1206.16 1007.32L1198.63 1009.47L1195.4 1010.27C1191.83 1011.17 1188.17 1011.62 1184.49 1011.62C1181.74 1011.62 1178.99 1011.36 1176.28 1010.86L1.07821 792.605L1.07821 773.247Z" fill="white"/>
<path d="M1889.79 0L1888.38 81.7904L1797.83 570.472C1796.67 576.729 1794.46 582.745 1791.29 588.266C1789.54 591.318 1787.51 594.2 1785.23 596.874L1784.11 598.179C1779.21 603.916 1773.47 608.879 1767.08 612.898L1759.63 617.588L1752.09 621.039C1749.27 622.327 1746.34 623.323 1743.32 624.011L1739.02 625.086L1730.25 626.134L1724.21 626.497C1724.07 626.506 1723.95 626.406 1723.93 626.268C1723.92 626.201 1723.95 626.137 1724.02 626.114L1726.93 625.043L1730.25 623.984L1735.79 621.86C1740.39 619.763 1744.82 617.325 1749.06 614.566L1751.02 613.286L1755.29 610.057L1758.01 607.378C1762.73 602.729 1767.04 597.687 1770.91 592.309L1772.53 590.057C1775.32 586.178 1777.76 582.06 1779.82 577.752C1781.29 573.463 1782.44 569.072 1783.27 564.615L1889.79 0Z" fill="white"/>
<path d="M1253.45 978.448L1226.6 997.581C1222.66 1000.39 1218.5 1002.89 1214.17 1005.05L1214.14 1005.07L1214.11 1005.08L1206.58 1008.3L1206.52 1008.33L1206.46 1008.35L1198.93 1010.5L1198.91 1010.51L1198.89 1010.51L1195.66 1011.32C1192.01 1012.23 1188.26 1012.69 1184.49 1012.69C1181.67 1012.69 1178.86 1012.43 1176.08 1011.92L0.00183027 793.498L0.000648804 792.604L0 771.96L1213.14 990.998C1217.68 991.819 1222.36 991.542 1226.77 990.19C1231.29 988.806 1235.59 986.769 1239.52 984.147L1243.14 981.738L1243.18 981.713L1243.21 981.692L1252.3 976.633L1253.45 978.448ZM1243.74 982.633L1240.12 985.041C1236.1 987.721 1231.71 989.803 1227.09 991.217L1226.23 991.468C1221.9 992.651 1217.37 992.854 1212.95 992.056L1.0761 773.247L1.07673 792.603L1176.28 1010.86C1178.65 1011.3 1181.05 1011.55 1183.46 1011.61L1184.49 1011.62C1188.17 1011.62 1191.83 1011.17 1195.4 1010.27L1198.63 1009.47L1206.16 1007.32L1213.69 1004.09C1217.43 1002.22 1221.05 1000.09 1224.51 997.732L1225.98 996.707L1252.83 977.572L1243.74 982.633Z" fill="black"/>
<path d="M1797.83 570.472L1797.6 571.643C1796.39 577.479 1794.26 583.091 1791.3 588.267L1790.63 589.403C1789.04 592.035 1787.23 594.535 1785.23 596.875L1784.12 598.179L1783.19 599.246C1778.49 604.533 1773.07 609.13 1767.08 612.899L1759.63 617.588L1752.09 621.039L1751.03 621.51C1748.54 622.572 1745.96 623.41 1743.32 624.012L1739.02 625.087L1730.25 626.134L1724.22 626.498L1724.12 626.484C1724.05 626.463 1724 626.421 1723.96 626.364L1723.93 626.268C1723.92 626.203 1723.96 626.137 1724.02 626.114L1726.93 625.042L1730.25 623.985L1735.79 621.862C1739.82 620.026 1743.71 617.929 1747.46 615.585L1749.06 614.568L1751.03 613.286L1755.3 610.058L1758.01 607.379C1762.73 602.729 1767.05 597.687 1770.91 592.308L1772.53 590.057C1775.32 586.178 1777.76 582.061 1779.82 577.753C1781.11 573.999 1782.15 570.169 1782.95 566.284L1783.28 564.616L1889.83 1.0754L1888.39 81.7916L1797.83 570.472ZM1888.72 11.8304L1784.33 564.813C1783.49 569.321 1782.32 573.762 1780.84 578.101L1780.82 578.161L1780.79 578.218C1778.7 582.582 1776.23 586.754 1773.4 590.684L1771.79 592.938C1767.88 598.365 1763.53 603.452 1758.77 608.145L1756.05 610.823L1756 610.872L1751.67 614.144L1751.64 614.168L1751.61 614.188L1749.65 615.467C1745.37 618.255 1740.89 620.72 1736.24 622.84L1736.21 622.853L1736.18 622.865L1730.64 624.988L1730.61 625L1730.58 625.007L1730.55 625.013L1738.83 624.025L1743.06 622.968L1744.18 622.696C1746.74 622.043 1749.24 621.163 1751.64 620.063L1759.11 616.643L1766.51 611.987C1772.81 608.026 1778.47 603.136 1783.3 597.481L1784.41 596.175C1786.66 593.552 1788.65 590.725 1790.36 587.732C1793.47 582.316 1795.63 576.415 1796.77 570.277L1887.09 82.8645L1888.72 11.8304Z" fill="black"/>
<path d="M1215.9 997.348C1215.26 998.651 1218.12 1001.5 1219.31 1000.66L1754.67 624.321C1758.38 621.712 1755.21 615.966 1751.02 617.71L1716.79 621.086C1710.81 621.676 1704.78 621.638 1698.81 620.972L1647.99 615.29L1444.71 583.029L1408.79 577.961C1395.87 576.138 1382.7 577.218 1370.24 581.124C1357.12 585.238 1345.15 592.375 1335.29 601.961L1332.02 605.144C1318.54 618.248 1308.76 634.67 1303.65 652.758L1297.1 675.901L1282.95 744.002L1267.62 859.022L1257.92 928.262C1257.92 928.262 1249.25 982.979 1215.9 997.348Z" fill="white"/>
<path d="M1228.09 996.929L1769.82 614.094C1772.86 611.942 1775.72 609.535 1778.35 606.899C1782.15 603.102 1785.47 598.853 1788.23 594.249L1788.65 593.557C1789.9 591.475 1790.96 589.289 1791.84 587.023L1797.16 573.221L1789.98 586.905C1784.72 596.921 1776.65 605.184 1766.76 610.678L1753.61 617.983C1746.75 621.798 1739.18 624.18 1731.36 624.985L1710.42 627.143C1704.46 627.757 1698.45 627.747 1692.49 627.113L1643.74 621.91L1447.65 591.798L1413.11 587.103C1400.56 585.397 1387.79 586.496 1375.71 590.322C1363.06 594.332 1351.5 601.231 1341.97 610.473L1338.78 613.569C1325.69 626.262 1316.14 642.16 1311.1 659.683L1304.72 681.847L1290.74 747.447L1275.41 858.201L1265.73 924.876C1265.73 924.876 1249.6 980.798 1221.64 999.08C1224.86 999.08 1228.09 996.929 1228.09 996.929Z" fill="url(#paint0_linear_49_1159)"/>
<defs>
<linearGradient id="paint0_linear_49_1159" x1="1347.93" y1="602.538" x2="1498.51" y2="812.662" gradientUnits="userSpaceOnUse">
<stop stop-color="white"/>
<stop offset="0.682692" stop-color="#CED4DD"/>
<stop offset="0.966346" stop-color="#E6E9ED"/>
</linearGradient>
</defs>
</svg>
