<svg width="391" height="231" viewBox="12 0 367 231" fill="none" xmlns="http://www.w3.org/2000/svg">
<path d="M8.07031 155.376L249.323 199.901L360.786 119.81L382.311 5.2124V231H8.07031V155.376Z" fill="white"/>
<g filter="url(#filter0_d_46_110)">
<path d="M8.21499 154.964L248.383 198.304C249.317 198.473 250.278 198.416 251.185 198.138C252.101 197.858 252.971 197.446 253.767 196.915L254.484 196.437L256.286 195.435L250.965 199.225C250.192 199.775 249.378 200.264 248.529 200.688L247.037 201.327L245.545 201.753L244.905 201.913C244.198 202.089 243.472 202.179 242.743 202.179C242.197 202.179 241.652 202.129 241.115 202.029L8.21499 158.798L8.21499 154.964Z" fill="white"/>
<path d="M256.409 195.609L251.088 199.398C250.306 199.955 249.482 200.45 248.623 200.878L248.618 200.881L248.612 200.883L247.12 201.522L247.108 201.528L247.095 201.531L245.603 201.958L245.6 201.959L245.596 201.959L244.956 202.119C244.232 202.3 243.488 202.392 242.742 202.392C242.183 202.392 241.625 202.34 241.076 202.238L8.00134 158.975L8.00111 158.798L8.00098 154.709L248.42 198.095C249.321 198.257 250.247 198.202 251.122 197.935C252.018 197.66 252.869 197.257 253.648 196.737L254.365 196.26L254.372 196.255L254.379 196.251L256.182 195.249L256.409 195.609ZM254.483 196.438L253.767 196.915C252.97 197.445 252.1 197.858 251.184 198.138L251.013 198.188C250.157 198.422 249.258 198.462 248.382 198.304L8.21424 154.964L8.21437 158.798L241.115 202.029C241.584 202.116 242.06 202.165 242.538 202.176L242.742 202.179C243.471 202.179 244.197 202.089 244.904 201.913L245.545 201.753L247.036 201.327L248.528 200.688C249.271 200.317 249.987 199.896 250.672 199.428L250.964 199.225L256.285 195.435L254.483 196.438Z" fill="black"/>
<path d="M382.516 1.80461L382.238 18.0051L364.291 114.8C364.062 116.039 363.624 117.231 362.997 118.324C362.65 118.929 362.248 119.5 361.795 120.029L361.574 120.288C360.602 121.424 359.464 122.407 358.199 123.203L356.721 124.132L355.227 124.816C354.669 125.071 354.087 125.268 353.489 125.404L352.637 125.617L350.899 125.825L349.703 125.897C349.675 125.899 349.651 125.879 349.646 125.851C349.644 125.838 349.652 125.825 349.664 125.821L350.242 125.609L350.899 125.399L351.998 124.978C352.909 124.563 353.788 124.08 354.627 123.534L355.016 123.28L355.862 122.641L356.401 122.11C357.336 121.189 358.191 120.19 358.957 119.125L359.278 118.679C359.83 117.911 360.314 117.095 360.723 116.242C361.014 115.392 361.243 114.522 361.408 113.64L382.516 1.80461Z" fill="white"/>
<path d="M364.293 114.8L364.248 115.032C364.008 116.188 363.587 117.299 362.999 118.324L362.866 118.549C362.551 119.071 362.193 119.566 361.797 120.029L361.576 120.288L361.392 120.499C360.462 121.546 359.387 122.457 358.2 123.203L356.723 124.132L355.229 124.816L355.019 124.909C354.526 125.119 354.014 125.285 353.491 125.405L352.639 125.617L350.901 125.825L349.705 125.897L349.685 125.894C349.673 125.89 349.662 125.882 349.655 125.87L349.648 125.851C349.646 125.838 349.653 125.825 349.666 125.821L350.244 125.609L350.901 125.399L352 124.979C352.797 124.615 353.569 124.2 354.312 123.735L354.629 123.534L355.018 123.28L355.864 122.641L356.403 122.11C357.338 121.189 358.193 120.19 358.959 119.125L359.28 118.679C359.832 117.911 360.316 117.095 360.725 116.242C360.98 115.498 361.187 114.74 361.345 113.97L361.41 113.64L382.526 2.01744L382.24 18.0052L364.293 114.8ZM382.306 4.14772L361.619 113.679C361.453 114.572 361.221 115.451 360.927 116.311L360.923 116.323L360.917 116.334C360.503 117.198 360.013 118.025 359.453 118.803L359.132 119.249C358.359 120.325 357.496 121.332 356.553 122.262L356.014 122.792L356.004 122.802L355.147 123.45L355.141 123.455L355.134 123.459L354.745 123.712C353.897 124.264 353.009 124.753 352.088 125.172L352.082 125.175L352.076 125.177L350.978 125.598L350.972 125.6L350.966 125.602L350.961 125.603L352.6 125.407L353.44 125.198L353.662 125.144C354.169 125.014 354.664 124.84 355.14 124.622L356.621 123.945L358.087 123.023C359.335 122.238 360.456 121.269 361.414 120.149L361.635 119.891C362.079 119.371 362.474 118.811 362.814 118.218C363.429 117.146 363.858 115.977 364.084 114.761L381.984 18.2177L382.306 4.14772Z" fill="black"/>
<path d="M248.967 199.353C248.84 199.611 249.406 200.175 249.642 200.009L355.738 125.466C356.474 124.949 355.847 123.811 355.016 124.157L348.232 124.825C347.047 124.942 345.852 124.935 344.669 124.803L340.545 124.343L334.597 123.677L294.312 117.287L287.193 116.284C284.632 115.922 282.022 116.136 279.554 116.91C276.954 117.725 274.581 119.138 272.627 121.037L271.979 121.668C269.308 124.263 267.368 127.516 266.355 131.099L265.059 135.683L262.253 149.172L259.216 171.954L257.294 185.669C257.294 185.669 255.576 196.507 248.967 199.353Z" fill="white"/>
<path d="M251.38 199.269L358.74 123.44C359.343 123.014 359.909 122.537 360.431 122.015C361.184 121.263 361.841 120.421 362.389 119.509L362.471 119.372C362.719 118.96 362.93 118.527 363.103 118.078L364.159 115.344L362.735 118.054C361.693 120.038 360.094 121.675 358.134 122.763L355.528 124.21C354.168 124.966 352.667 125.438 351.119 125.597L346.968 126.024C345.786 126.146 344.596 126.144 343.415 126.018L339.494 125.601L333.754 124.988L294.892 119.024L288.048 118.094C285.561 117.756 283.029 117.973 280.636 118.731C278.128 119.525 275.839 120.892 273.949 122.723L273.316 123.336C270.722 125.85 268.831 128.999 267.831 132.47L266.566 136.86L263.795 149.853L260.758 171.791L258.84 184.997C258.84 184.997 255.643 196.074 250.102 199.695C250.741 199.695 251.38 199.269 251.38 199.269Z" fill="url(#paint0_linear_46_110)"/>
</g>
<defs>
<filter id="filter0_d_46_110" x="0" y="0.804688" width="390.527" height="216.587" filterUnits="userSpaceOnUse" color-interpolation-filters="sRGB">
<feFlood flood-opacity="0" result="BackgroundImageFix"/>
<feColorMatrix in="SourceAlpha" type="matrix" values="0 0 0 0 0 0 0 0 0 0 0 0 0 0 0 0 0 0 127 0" result="hardAlpha"/>
<feOffset dy="7"/>
<feGaussianBlur stdDeviation="4"/>
<feComposite in2="hardAlpha" operator="out"/>
<feColorMatrix type="matrix" values="0 0 0 0 0 0 0 0 0 0 0 0 0 0 0 0 0 0 0.25 0"/>
<feBlend mode="normal" in2="BackgroundImageFix" result="effect1_dropShadow_46_110"/>
<feBlend mode="normal" in="SourceGraphic" in2="effect1_dropShadow_46_110" result="shape"/>
</filter>
<linearGradient id="paint0_linear_46_110" x1="275.13" y1="121.151" x2="304.952" y2="162.786" gradientUnits="userSpaceOnUse">
<stop stop-color="white"/>
<stop offset="0.682692" stop-color="#CED4DD"/>
<stop offset="0.966346" stop-color="#E6E9ED"/>
</linearGradient>
</defs>
</svg>
