<?xml version="1.0" encoding="utf-8"?>
<!-- Generator: Adobe Illustrator 25.0.0, SVG Export Plug-In . SVG Version: 6.00 Build 0)  -->
<svg version="1.1" id="Layer_1" xmlns="http://www.w3.org/2000/svg" xmlns:xlink="http://www.w3.org/1999/xlink" x="0px" y="0px"
	 viewBox="0 0 800 700" style="enable-background:new 0 0 800 700;" xml:space="preserve">
<style type="text/css">
	.st0{fill:#4F39D7;}
	.st1{fill:#FEA501;}
	.st2{fill:#2B9FE0;}
	.st3{fill:url(#SVGID_1_);}
	.st4{fill:url(#SVGID_2_);}
	.st5{fill:url(#SVGID_3_);}
	.st6{fill:url(#SVGID_4_);}
	.st7{fill:url(#SVGID_5_);}
	.st8{fill:url(#SVGID_6_);}
	.st9{fill:url(#SVGID_7_);}
	.st10{fill:url(#SVGID_8_);}
	.st11{fill:url(#SVGID_9_);}
	.st12{fill:url(#SVGID_10_);}
	.st13{fill:url(#SVGID_11_);}
	.st14{fill:url(#SVGID_12_);}
	.st15{fill:url(#SVGID_13_);}
	.st16{fill:url(#SVGID_14_);}
	.st17{fill:url(#SVGID_15_);}
	.st18{fill:url(#SVGID_16_);}
	.st19{fill:url(#SVGID_17_);}
	.st20{fill:url(#SVGID_18_);}
	.st21{fill:url(#SVGID_19_);}
	.st22{fill:url(#SVGID_20_);}
	.st23{fill:url(#SVGID_21_);}
	.st24{fill:url(#SVGID_22_);}
	.st25{fill:url(#SVGID_23_);}
	.st26{fill:url(#SVGID_24_);}
	.st27{fill:url(#SVGID_25_);}
	.st28{fill:url(#SVGID_26_);}
	.st29{fill:url(#SVGID_27_);}
	.st30{fill:url(#SVGID_28_);}
	.st31{fill:url(#SVGID_29_);}
	.st32{fill:url(#SVGID_30_);}
	.st33{fill:url(#SVGID_31_);}
	.st34{fill:url(#SVGID_32_);}
	.st35{fill:url(#SVGID_33_);}
	.st36{fill:url(#SVGID_34_);}
	.st37{fill:url(#SVGID_35_);}
	.st38{fill:url(#SVGID_36_);}
	.st39{fill:url(#SVGID_37_);}
	.st40{fill:url(#SVGID_38_);}
	.st41{fill:url(#SVGID_39_);}
	.st42{fill:url(#SVGID_40_);}
	.st43{fill:url(#SVGID_41_);}
	.st44{fill:url(#SVGID_42_);}
	.st45{fill:url(#SVGID_43_);}
	.st46{fill:url(#SVGID_44_);}
	.st47{fill:url(#SVGID_45_);}
	.st48{fill:url(#SVGID_46_);}
	.st49{fill:url(#SVGID_47_);}
	.st50{fill:url(#SVGID_48_);}
	.st51{fill:url(#SVGID_49_);}
	.st52{fill:url(#SVGID_50_);}
	.st53{fill:url(#SVGID_51_);}
	.st54{fill:url(#SVGID_52_);}
	.st55{fill:url(#SVGID_53_);}
	.st56{fill:url(#SVGID_54_);}
	.st57{fill:url(#SVGID_55_);}
	.st58{fill:url(#SVGID_56_);}
	.st59{fill:url(#SVGID_57_);}
	.st60{fill:url(#SVGID_58_);}
	.st61{fill:url(#SVGID_59_);}
	.st62{fill:url(#SVGID_60_);}
	.st63{fill:url(#SVGID_61_);}
	.st64{fill:url(#SVGID_62_);}
	.st65{fill:url(#SVGID_63_);}
	.st66{fill:url(#SVGID_64_);}
	.st67{fill:url(#SVGID_65_);}
	.st68{fill:url(#SVGID_66_);}
	.st69{fill:url(#SVGID_67_);}
	.st70{fill:url(#SVGID_68_);}
	.st71{fill:url(#SVGID_69_);}
	.st72{fill:url(#SVGID_70_);}
	.st73{fill:url(#SVGID_71_);}
	.st74{fill:url(#SVGID_72_);}
	.st75{fill:url(#SVGID_73_);}
	.st76{fill:url(#SVGID_74_);}
	.st77{fill:url(#SVGID_75_);}
	.st78{fill:url(#SVGID_76_);}
	.st79{fill:url(#SVGID_77_);}
	.st80{fill:url(#SVGID_78_);}
	.st81{fill:url(#SVGID_79_);}
	.st82{fill:url(#SVGID_80_);}
	.st83{fill:url(#SVGID_81_);}
	.st84{fill:url(#SVGID_82_);}
	.st85{fill:url(#SVGID_83_);}
	.st86{fill:url(#SVGID_84_);}
	.st87{fill:url(#SVGID_85_);}
	.st88{fill:url(#SVGID_86_);}
	.st89{fill:url(#SVGID_87_);}
	.st90{fill:url(#SVGID_88_);}
	.st91{fill:url(#SVGID_89_);}
	.st92{fill:url(#SVGID_90_);}
	.st93{fill:#E6E7E8;}
	.st94{fill:#FFFFFF;}
	.st95{fill:url(#SVGID_91_);}
	.st96{fill:url(#SVGID_92_);}
	.st97{fill:url(#SVGID_93_);}
	.st98{fill:url(#SVGID_94_);}
	.st99{fill:url(#SVGID_95_);}
	.st100{fill:url(#SVGID_96_);}
	.st101{fill:url(#SVGID_97_);}
	.st102{fill:url(#SVGID_98_);}
	.st103{fill:url(#SVGID_99_);}
	.st104{fill:url(#SVGID_100_);}
	.st105{fill:url(#SVGID_101_);}
	.st106{fill:url(#SVGID_102_);}
</style>
<g>
	<path class="st1" d="M453.46,260.82c-6.82-4.19-14.12-7.56-21.67-10.03c-0.07-0.02-0.15-0.03-0.23-0.05
		c-0.27-0.08-0.54-0.15-0.82-0.18c-0.16-0.02-0.32-0.01-0.49-0.01c-0.19-0.01-0.38-0.03-0.58-0.01c-0.21,0.02-0.42,0.07-0.63,0.11
		c-0.22,0.04-0.43,0.09-0.65,0.16c-0.26,0.08-0.51,0.17-0.76,0.29c-0.01,0.01-0.03,0.01-0.04,0.02L305.9,312.68
		c-0.01,0.01-0.02,0.02-0.04,0.02c-0.26,0.13-0.5,0.3-0.74,0.47c-0.14,0.1-0.26,0.21-0.38,0.32c-0.19,0.17-0.37,0.33-0.54,0.52
		c-0.12,0.14-0.21,0.29-0.31,0.44c-0.1,0.14-0.21,0.28-0.3,0.43c-0.16,0.29-0.3,0.6-0.41,0.92c-0.01,0.02-0.02,0.04-0.03,0.06
		c0,0,0,0,0,0c0,0,0,0.01,0,0.01c-2.48,7.53-4.08,15.4-4.75,23.38c-4.7,55.87,36.93,105.15,92.8,109.85
		c2.86,0.24,5.72,0.36,8.58,0.36c16.03,0,31.83-3.78,46.13-11.08c16.92-8.48,31.11-21.52,41.05-37.72
		C516.29,352.86,501.25,290.13,453.46,260.82z"/>
	<path class="st0" d="M477.62,394.92c-8.87,14.46-21.54,26.1-36.63,33.66c-0.01,0.01-0.03,0.01-0.04,0.02
		c-15.03,7.68-31.91,10.98-48.82,9.57c-49.84-4.19-86.97-48.15-82.78-97.99c0.46-5.41,1.39-10.76,2.78-15.97
		c5.52,1.26,11.92,2.29,17.28,2.74c18.4,1.55,37.17-2.22,54.27-10.9l0.56-0.28c17.13-8.64,31.28-21.52,40.94-37.27
		c2.82-4.59,5.78-10.36,8.03-15.55c5.02,1.96,9.88,4.38,14.51,7.22C490.35,296.33,503.76,352.29,477.62,394.92z"/>
	<g>
		<path class="st93" d="M324.88,315.39c1.9,0.27,3.75,0.48,5.46,0.63c2.99,0.25,5.99,0.34,8.99,0.28L418.55,268L324.88,315.39z"/>
		<path class="st94" d="M339.32,316.29c13.44-0.28,26.9-3.69,39.4-10.03l0.57-0.29c15.31-7.72,27.94-19.2,36.53-33.2
			c0.9-1.46,1.82-3.08,2.73-4.77l0,0L339.32,316.29z"/>
	</g>
	<g>
		<path class="st2" d="M464.25,366.97c-1.8-1.76-3.79-3.25-6-4.47c-2.2-1.22-4.35-2.3-6.45-3.25c-1.76-0.75-3.59-1.32-5.49-1.73
			c-2.24-0.54-4.34-1.02-6.3-1.42l-1.83-0.25l-2.18-0.41l-1.83-0.71l-0.76-1.27c0.07-1.22,0.61-2.17,1.63-2.85
			c1.02-0.68,2.22-1.17,3.61-1.47c1.39-0.3,2.79-0.46,4.22-0.46c1.49,0,2.68,0.07,3.56,0.2c2.98,0.41,5.59,1,7.83,1.78
			c2.24,0.78,4.71,1.74,7.42,2.9l6-23.48c-3.66-1.49-7.59-2.56-11.79-3.2c-4.2-0.64-8.43-0.86-12.7-0.66
			c-4.61,0.2-8.94,1-13.01,2.39c-4.06,1.39-7.62,3.39-10.67,6c-3.05,2.61-5.45,5.76-7.22,9.45c-1.76,3.69-2.57,7.91-2.44,12.65
			c0.07,2.78,0.63,5.23,1.68,7.37c1.05,2.13,2.37,4.01,3.96,5.64c1.59,1.63,3.35,3.01,5.28,4.17c1.93,1.14,3.84,2.13,5.74,2.94
			s3.68,1.46,5.34,1.93c1.66,0.47,3,0.85,4.01,1.13c1.56,0.6,2.9,1.21,4.01,1.82c1.12,0.62,1.71,1.49,1.78,2.64
			c0.07,1.76-0.76,3.02-2.49,3.76c-1.73,0.74-3.84,1.19-6.35,1.32c-1.69,0.07-3.42-0.1-5.18-0.51c-1.76-0.41-3.46-0.88-5.08-1.42
			c-1.63-0.54-3.15-1.14-4.57-1.78c-1.42-0.64-2.64-1.17-3.66-1.57l-7.72,21.75c2.03,0.95,4.2,1.85,6.5,2.69
			c2.3,0.86,4.67,1.58,7.11,2.18c2.44,0.61,4.91,1.07,7.42,1.37c2.51,0.3,4.95,0.42,7.32,0.36c5.15-0.19,9.96-1,14.43-2.39
			c4.47-1.38,8.32-3.35,11.53-5.89c3.22-2.55,5.71-5.66,7.47-9.36c1.76-3.68,2.54-7.94,2.34-12.75c-0.14-3.39-0.8-6.32-1.98-8.79
			S466.05,368.73,464.25,366.97z"/>
		<polygon class="st1" points="406.35,381.08 377.28,383.82 377.48,378.23 394.46,376.91 396.59,359.13 378.09,360.45 
			378.19,355.57 403.7,354.45 406.85,328.74 350.75,332.91 351.46,412.07 405.83,409.13 		"/>
		<linearGradient id="SVGID_1_" gradientUnits="userSpaceOnUse" x1="388.3261" y1="333.6987" x2="388.3261" y2="413.4267">
			<stop  offset="0" style="stop-color:#FFFFFF;stop-opacity:0"/>
			<stop  offset="0.5084" style="stop-color:#FFFFFF"/>
			<stop  offset="1" style="stop-color:#FFFFFF;stop-opacity:0"/>
		</linearGradient>
		<path class="st3" d="M382.94,367.68c0.37,0.35,0.86,0.55,1.37,0.55c0.05,0,0.09,0,0.14,0l9.12-0.65l0.75-6.28l-11.92,0.85
			l-0.08,4.06C382.31,366.75,382.54,367.29,382.94,367.68z"/>
		<linearGradient id="SVGID_2_" gradientUnits="userSpaceOnUse" x1="392.9174" y1="333.6987" x2="392.9174" y2="413.4267">
			<stop  offset="0" style="stop-color:#FFFFFF;stop-opacity:0"/>
			<stop  offset="0.5084" style="stop-color:#FFFFFF"/>
			<stop  offset="1" style="stop-color:#FFFFFF;stop-opacity:0"/>
		</linearGradient>
		<path class="st4" d="M383.5,391.6c0.06,0,0.12,0,0.19-0.01l20.52-1.94l0.12-6.38l-22.66,2.14l-0.15,4.13
			c-0.02,0.57,0.21,1.12,0.62,1.52C382.5,391.41,382.99,391.6,383.5,391.6z"/>
		<linearGradient id="SVGID_3_" gradientUnits="userSpaceOnUse" x1="378.6707" y1="333.6987" x2="378.6707" y2="413.4267">
			<stop  offset="0" style="stop-color:#FFFFFF;stop-opacity:0"/>
			<stop  offset="0.5084" style="stop-color:#FFFFFF"/>
			<stop  offset="1" style="stop-color:#FFFFFF;stop-opacity:0"/>
		</linearGradient>
		<polygon class="st5" points="358.98,340.54 403.81,337.21 404.58,330.9 352.76,334.75 353.43,409.97 359.6,409.64 		"/>
		<linearGradient id="SVGID_4_" gradientUnits="userSpaceOnUse" x1="448.7206" y1="337.6727" x2="448.7206" y2="408.7378">
			<stop  offset="0" style="stop-color:#FFFFFF;stop-opacity:0"/>
			<stop  offset="0.5084" style="stop-color:#FFFFFF"/>
			<stop  offset="1" style="stop-color:#FFFFFF;stop-opacity:0"/>
		</linearGradient>
		<path class="st6" d="M445.02,361.58l1.85,0.26c1.93,0.4,4,0.87,6.17,1.4c1.82,0.39,3.54,0.93,5.18,1.63
			c0.15,0.07,0.3,0.14,0.45,0.21c-0.45-0.29-0.91-0.57-1.38-0.83c-2.14-1.19-4.26-2.26-6.26-3.16c-1.64-0.69-3.36-1.24-5.18-1.63
			c-2.17-0.53-4.24-1-6.17-1.4l-0.91-0.13c0.04,0.11,0.07,0.22,0.14,0.33l0.76,1.27c0.23,0.38,0.57,0.67,0.98,0.83l1.83,0.71
			c0.11,0.04,0.23,0.08,0.36,0.1L445.02,361.58z"/>
		<linearGradient id="SVGID_5_" gradientUnits="userSpaceOnUse" x1="429.9465" y1="337.6727" x2="429.9465" y2="408.7378">
			<stop  offset="0" style="stop-color:#FFFFFF;stop-opacity:0"/>
			<stop  offset="0.5084" style="stop-color:#FFFFFF"/>
			<stop  offset="1" style="stop-color:#FFFFFF;stop-opacity:0"/>
		</linearGradient>
		<path class="st7" d="M422.67,390.57c0.52,0.23,1.08,0.47,1.67,0.74c1.48,0.67,3.08,1.29,4.76,1.85c1.67,0.56,3.44,1.05,5.26,1.47
			c1.65,0.38,3.29,0.57,4.89,0.57c0.27,0,0.55,0,0.82-0.02c2.76-0.15,5.12-0.65,7.06-1.48c2.48-1.07,3.79-3.08,3.69-5.66
			c-0.08-1.32-0.62-3.1-2.8-4.3c-1.22-0.67-2.65-1.32-4.26-1.94c-0.06-0.02-0.12-0.04-0.19-0.06c-0.29-0.08-0.61-0.17-0.95-0.26
			c0.71,0.94,0.95,1.95,1,2.78c0.1,2.58-1.21,4.59-3.69,5.66c-1.94,0.83-4.3,1.33-7.06,1.48c-0.27,0.01-0.54,0.02-0.82,0.02
			c-1.6,0-3.25-0.19-4.89-0.57c-1.82-0.42-3.59-0.92-5.26-1.47c-1.68-0.56-3.28-1.18-4.76-1.85c-0.59-0.27-1.15-0.52-1.67-0.74
			l-6.41,18.05c1.54,0.67,3.11,1.3,4.71,1.89c0.91,0.34,1.85,0.66,2.82,0.96L422.67,390.57z"/>
		<linearGradient id="SVGID_6_" gradientUnits="userSpaceOnUse" x1="438.5493" y1="337.6727" x2="438.5493" y2="408.7378">
			<stop  offset="0" style="stop-color:#FFFFFF;stop-opacity:0"/>
			<stop  offset="0.5084" style="stop-color:#FFFFFF"/>
			<stop  offset="1" style="stop-color:#FFFFFF;stop-opacity:0"/>
		</linearGradient>
		<path class="st8" d="M413.29,363.2c0.95,1.93,2.16,3.66,3.6,5.13c1.46,1.49,3.11,2.79,4.88,3.86c1.86,1.1,3.72,2.05,5.51,2.82
			c0.19,0.08,0.38,0.15,0.56,0.23c-1.35-0.91-2.61-1.96-3.76-3.13c-1.44-1.47-2.65-3.19-3.6-5.13c-0.92-1.86-1.41-4.06-1.47-6.54
			c-0.13-4.41,0.63-8.36,2.25-11.75c1.63-3.42,3.89-6.38,6.71-8.8c2.84-2.43,6.21-4.32,10.02-5.62c3.87-1.32,8.06-2.09,12.45-2.28
			c1-0.05,2-0.07,2.98-0.07c3.12,0,6.26,0.24,9.33,0.71c0.71,0.11,1.4,0.24,2.1,0.37l0.43-1.69c-3.05-1.11-6.31-1.93-9.73-2.46
			c-3.08-0.47-6.22-0.71-9.33-0.71c-0.98,0-1.98,0.02-2.98,0.07c-4.4,0.19-8.59,0.96-12.45,2.28c-3.81,1.3-7.18,3.19-10.02,5.62
			c-2.82,2.41-5.08,5.37-6.71,8.8c-1.62,3.39-2.37,7.34-2.25,11.75C411.88,359.13,412.37,361.33,413.29,363.2z"/>
	</g>
</g>
</svg>
