<svg width="204" height="199" viewBox="0 0 204 199" fill="none" xmlns="http://www.w3.org/2000/svg">
<path d="M155.422 10.2886C148.602 6.09857 141.302 2.72856 133.752 0.258555C133.682 0.238555 133.602 0.228568 133.522 0.208568C133.252 0.128568 132.982 0.0585596 132.702 0.0285596C132.542 0.00855959 132.382 0.0185651 132.212 0.0185651C132.022 0.00856508 131.832 -0.0114447 131.632 0.00855532C131.422 0.0285553 131.212 0.0785559 131.002 0.118556C130.782 0.158556 130.572 0.20856 130.352 0.27856C130.092 0.35856 129.842 0.448568 129.592 0.568568C129.582 0.578568 129.562 0.578557 129.552 0.588557L7.8619 62.1486C7.8519 62.1586 7.84189 62.1686 7.82189 62.1686C7.56189 62.2986 7.3219 62.4686 7.0819 62.6386C6.9419 62.7386 6.8219 62.8486 6.7019 62.9586C6.5119 63.1286 6.33192 63.2886 6.16192 63.4786C6.04192 63.6186 5.95192 63.7686 5.85192 63.9186C5.75192 64.0586 5.6419 64.1986 5.5519 64.3486C5.3919 64.6386 5.2519 64.9485 5.1419 65.2685C5.1319 65.2885 5.1219 65.3085 5.1119 65.3285V65.3386C2.6319 72.8686 1.0319 80.7386 0.3619 88.7186C-4.3381 144.589 37.2919 193.869 93.1619 198.569C96.0219 198.809 98.8819 198.929 101.742 198.929C117.772 198.929 133.572 195.149 147.872 187.849C164.792 179.369 178.982 166.329 188.922 150.129C218.252 102.329 203.212 39.5986 155.422 10.2886Z" fill="#FEA501"/>
<path d="M179.582 144.389C170.712 158.849 158.042 170.489 142.952 178.049C142.942 178.059 142.922 178.059 142.912 178.069C127.882 185.749 111.002 189.049 94.0918 187.639C44.2518 183.449 7.12175 139.489 11.3117 89.6486C11.7717 84.2386 12.7017 78.8886 14.0917 73.6786C19.6117 74.9386 26.0117 75.9686 31.3717 76.4186C49.7717 77.9686 68.5417 74.1986 85.6417 65.5186L86.2017 65.2386C103.332 56.5986 117.482 43.7186 127.142 27.9686C129.962 23.3786 132.922 17.6086 135.172 12.4186C140.192 14.3786 145.052 16.7986 149.682 19.6386C192.312 45.7986 205.722 101.759 179.582 144.389Z" fill="#4F39D7"/>
<path d="M26.8418 64.8586C28.7418 65.1286 30.5918 65.3386 32.3018 65.4886C35.2918 65.7386 38.2918 65.8286 41.2918 65.7686L120.512 17.4686L26.8418 64.8586Z" fill="#E6E7E8"/>
<path d="M41.2817 65.7586C54.7217 65.4786 68.1817 62.0686 80.6817 55.7286L81.2517 55.4386C96.5617 47.7186 109.192 36.2386 117.782 22.2386C118.682 20.7786 119.602 19.1586 120.512 17.4686L41.2817 65.7586Z" fill="white"/>
<path d="M166.212 116.439C164.412 114.679 162.422 113.189 160.212 111.969C158.012 110.749 155.862 109.669 153.762 108.719C152.002 107.969 150.172 107.399 148.272 106.989C146.032 106.449 143.932 105.969 141.972 105.569L140.142 105.319L137.962 104.909L136.132 104.199L135.372 102.929C135.442 101.709 135.982 100.759 137.002 100.079C138.022 99.3985 139.222 98.9086 140.612 98.6086C142.002 98.3086 143.402 98.1485 144.832 98.1485C146.322 98.1485 147.512 98.2186 148.392 98.3486C151.372 98.7586 153.982 99.3486 156.222 100.129C158.462 100.909 160.932 101.869 163.642 103.029L169.642 79.5485C165.982 78.0585 162.052 76.9886 157.852 76.3486C153.652 75.7086 149.422 75.4886 145.152 75.6886C140.542 75.8886 136.212 76.6885 132.142 78.0785C128.082 79.4685 124.522 81.4685 121.472 84.0785C118.422 86.6885 116.022 89.8386 114.252 93.5286C112.492 97.2186 111.682 101.439 111.812 106.179C111.882 108.959 112.442 111.409 113.492 113.549C114.542 115.679 115.862 117.559 117.452 119.189C119.042 120.819 120.802 122.199 122.732 123.359C124.662 124.499 126.572 125.489 128.472 126.299C130.372 127.109 132.152 127.759 133.812 128.229C135.472 128.699 136.812 129.079 137.822 129.359C139.382 129.959 140.722 130.569 141.832 131.179C142.952 131.799 143.542 132.669 143.612 133.819C143.682 135.579 142.852 136.839 141.122 137.579C139.392 138.319 137.282 138.769 134.772 138.899C133.082 138.969 131.352 138.799 129.592 138.389C127.832 137.979 126.132 137.509 124.512 136.969C122.882 136.429 121.362 135.829 119.942 135.189C118.522 134.549 117.302 134.019 116.282 133.619L108.562 155.369C110.592 156.319 112.762 157.219 115.062 158.059C117.362 158.919 119.732 159.639 122.172 160.239C124.612 160.849 127.082 161.309 129.592 161.609C132.102 161.909 134.542 162.029 136.912 161.969C142.062 161.779 146.872 160.969 151.342 159.579C155.812 158.199 159.662 156.229 162.872 153.689C166.092 151.139 168.582 148.029 170.342 144.329C172.102 140.649 172.882 136.389 172.682 131.579C172.542 128.189 171.882 125.259 170.702 122.789C169.522 120.319 168.012 118.199 166.212 116.439Z" fill="#2B9FE0"/>
<path d="M108.312 130.549L79.2419 133.289L79.4419 127.699L96.4219 126.379L98.5519 108.599L80.0519 109.919L80.1519 105.039L105.662 103.919L108.812 78.2086L52.7119 82.3786L53.4219 161.539L107.792 158.599L108.312 130.549Z" fill="#FEA501"/>
<path d="M84.902 117.149C85.272 117.499 85.762 117.699 86.272 117.699C86.322 117.699 86.3621 117.699 86.4121 117.699L95.5321 117.049L96.2821 110.769L84.362 111.619L84.2821 115.679C84.2721 116.219 84.502 116.759 84.902 117.149Z" fill="url(#paint0_linear_39_1200)"/>
<path d="M85.4617 141.069C85.5217 141.069 85.5817 141.069 85.6517 141.059L106.172 139.119L106.292 132.739L83.6317 134.879L83.4817 139.009C83.4617 139.579 83.6917 140.129 84.1017 140.529C84.4617 140.879 84.9517 141.069 85.4617 141.069Z" fill="url(#paint1_linear_39_1200)"/>
<path d="M60.9417 90.0085L105.772 86.6785L106.542 80.3685L54.7217 84.2185L55.3917 159.439L61.5617 159.109L60.9417 90.0085Z" fill="url(#paint2_linear_39_1200)"/>
<path d="M146.982 111.049L148.832 111.309C150.762 111.709 152.832 112.179 155.002 112.709C156.822 113.099 158.542 113.639 160.182 114.339C160.332 114.409 160.482 114.479 160.632 114.549C160.182 114.259 159.722 113.979 159.252 113.719C157.112 112.529 154.992 111.459 152.992 110.559C151.352 109.869 149.632 109.319 147.812 108.929C145.642 108.399 143.572 107.929 141.642 107.529L140.732 107.399C140.772 107.509 140.802 107.619 140.872 107.729L141.632 108.999C141.862 109.379 142.202 109.669 142.612 109.829L144.442 110.539C144.552 110.579 144.672 110.619 144.802 110.639L146.982 111.049Z" fill="url(#paint3_linear_39_1200)"/>
<path d="M124.632 140.039C125.152 140.269 125.712 140.509 126.302 140.779C127.782 141.449 129.382 142.069 131.062 142.629C132.732 143.189 134.502 143.679 136.322 144.099C137.972 144.479 139.612 144.669 141.212 144.669C141.482 144.669 141.762 144.669 142.032 144.649C144.792 144.499 147.152 143.999 149.092 143.169C151.572 142.099 152.882 140.089 152.782 137.509C152.702 136.189 152.162 134.409 149.982 133.209C148.762 132.539 147.332 131.889 145.722 131.269C145.662 131.249 145.602 131.229 145.532 131.209C145.242 131.129 144.922 131.039 144.582 130.949C145.292 131.889 145.532 132.899 145.582 133.729C145.682 136.309 144.372 138.319 141.892 139.389C139.952 140.219 137.592 140.719 134.832 140.869C134.562 140.879 134.292 140.889 134.012 140.889C132.412 140.889 130.762 140.699 129.122 140.319C127.302 139.899 125.532 139.399 123.862 138.849C122.182 138.289 120.582 137.669 119.102 136.999C118.512 136.729 117.952 136.479 117.432 136.259L111.022 154.309C112.562 154.979 114.132 155.609 115.732 156.199C116.642 156.539 117.582 156.859 118.552 157.159L124.632 140.039Z" fill="url(#paint4_linear_39_1200)"/>
<path d="M115.252 112.669C116.202 114.599 117.412 116.329 118.852 117.799C120.312 119.289 121.962 120.589 123.732 121.659C125.592 122.759 127.452 123.709 129.242 124.479C129.432 124.559 129.622 124.629 129.802 124.709C128.452 123.799 127.192 122.749 126.042 121.579C124.602 120.109 123.392 118.389 122.442 116.449C121.522 114.589 121.032 112.389 120.972 109.909C120.842 105.499 121.602 101.549 123.222 98.1586C124.852 94.7386 127.112 91.7786 129.932 89.3586C132.772 86.9286 136.142 85.0386 139.952 83.7386C143.822 82.4186 148.012 81.6486 152.402 81.4586C153.402 81.4086 154.402 81.3886 155.382 81.3886C158.502 81.3886 161.642 81.6286 164.712 82.0986C165.422 82.2086 166.112 82.3386 166.812 82.4686L167.242 80.7786C164.192 79.6686 160.932 78.8486 157.512 78.3186C154.432 77.8486 151.292 77.6086 148.182 77.6086C147.202 77.6086 146.202 77.6286 145.202 77.6786C140.802 77.8686 136.612 78.6386 132.752 79.9586C128.942 81.2586 125.572 83.1486 122.732 85.5786C119.912 87.9886 117.652 90.9486 116.022 94.3786C114.402 97.7686 113.652 101.719 113.772 106.129C113.842 108.599 114.332 110.799 115.252 112.669Z" fill="url(#paint5_linear_39_1200)"/>
<defs>
<linearGradient id="paint0_linear_39_1200" x1="90.2882" y1="83.1672" x2="90.2882" y2="162.895" gradientUnits="userSpaceOnUse">
<stop stop-color="white" stop-opacity="0"/>
<stop offset="0.5084" stop-color="white"/>
<stop offset="1" stop-color="white" stop-opacity="0"/>
</linearGradient>
<linearGradient id="paint1_linear_39_1200" x1="94.8791" y1="83.1671" x2="94.8791" y2="162.895" gradientUnits="userSpaceOnUse">
<stop stop-color="white" stop-opacity="0"/>
<stop offset="0.5084" stop-color="white"/>
<stop offset="1" stop-color="white" stop-opacity="0"/>
</linearGradient>
<linearGradient id="paint2_linear_39_1200" x1="80.6324" y1="83.1672" x2="80.6324" y2="162.895" gradientUnits="userSpaceOnUse">
<stop stop-color="white" stop-opacity="0"/>
<stop offset="0.5084" stop-color="white"/>
<stop offset="1" stop-color="white" stop-opacity="0"/>
</linearGradient>
<linearGradient id="paint3_linear_39_1200" x1="150.683" y1="87.1413" x2="150.683" y2="158.206" gradientUnits="userSpaceOnUse">
<stop stop-color="white" stop-opacity="0"/>
<stop offset="0.5084" stop-color="white"/>
<stop offset="1" stop-color="white" stop-opacity="0"/>
</linearGradient>
<linearGradient id="paint4_linear_39_1200" x1="131.908" y1="87.1413" x2="131.908" y2="158.206" gradientUnits="userSpaceOnUse">
<stop stop-color="white" stop-opacity="0"/>
<stop offset="0.5084" stop-color="white"/>
<stop offset="1" stop-color="white" stop-opacity="0"/>
</linearGradient>
<linearGradient id="paint5_linear_39_1200" x1="140.511" y1="87.1413" x2="140.511" y2="158.206" gradientUnits="userSpaceOnUse">
<stop stop-color="white" stop-opacity="0"/>
<stop offset="0.5084" stop-color="white"/>
<stop offset="1" stop-color="white" stop-opacity="0"/>
</linearGradient>
</defs>
</svg>
