<svg width="263" height="241" viewBox="0 0 263 241" fill="none" xmlns="http://www.w3.org/2000/svg">
<g filter="url(#filter0_d_81_4543)">
<path d="M145.856 0C144.123 0 128.956 2.54158 128.956 2.54158C128.252 23.3187 112.49 41.7289 80.044 44.9246L73.1108 33.4051L59.515 34.6434L65.6358 64.6481L4 62.2014L10.6083 82.9235C77.0107 102.647 73.9774 159.071 59.515 209.503C84.9732 235.968 136.323 233.371 160.264 231.024C161.943 199.966 188.647 198.818 233.876 214.946C239.997 206.158 244.06 196.97 258.034 189.63L232.793 119.974L217.897 123.07C223.855 112.534 235.339 98.1531 245.197 91.4121L253.647 48.0205C205.656 44.8747 174.348 24.8716 145.856 0Z" fill="url(#paint0_linear_81_4543)"/>
<path d="M145.179 2.06055C173.238 26.4471 204.292 46.2235 251.251 49.8545L243.388 90.2373C233.355 97.3839 222.068 111.632 216.156 122.085L213.984 125.926L218.304 125.027L231.502 122.284L255.568 188.695C242.934 195.813 238.437 204.608 233.091 212.548C211.127 204.828 193.216 201.119 180.4 203.319C173.77 204.458 168.382 207.199 164.564 211.877C161.043 216.193 159.012 221.969 158.389 229.192C146.439 230.305 128.637 231.314 110.705 229.083C92.267 226.789 74.0154 221.108 61.7559 208.927C68.8207 183.952 73.1063 157.27 67.3262 134.211C61.4649 110.829 45.325 91.4471 12.1943 81.3145L6.77246 64.3125L65.5566 66.6465L68.1055 66.748L67.5957 64.248L61.9209 36.4316L72.043 35.5098L78.3301 45.9561L78.9824 47.0391L80.2402 46.915C96.8006 45.2839 109.3 39.748 117.773 31.7832C125.831 24.2094 130.136 14.5363 130.866 4.25195C131.114 4.21104 131.386 4.1662 131.678 4.11816C133.124 3.88027 135.07 3.56298 137.069 3.24609C139.07 2.92894 141.117 2.61309 142.768 2.37695C143.594 2.25876 144.311 2.16159 144.87 2.09473C144.981 2.0815 145.084 2.07108 145.179 2.06055Z" stroke="#DFE3E8" stroke-width="4"/>
</g>
<defs>
<filter id="filter0_d_81_4543" x="0" y="0" width="262.034" height="240.415" filterUnits="userSpaceOnUse" color-interpolation-filters="sRGB">
<feFlood flood-opacity="0" result="BackgroundImageFix"/>
<feColorMatrix in="SourceAlpha" type="matrix" values="0 0 0 0 0 0 0 0 0 0 0 0 0 0 0 0 0 0 127 0" result="hardAlpha"/>
<feOffset dy="4"/>
<feGaussianBlur stdDeviation="2"/>
<feComposite in2="hardAlpha" operator="out"/>
<feColorMatrix type="matrix" values="0 0 0 0 0 0 0 0 0 0 0 0 0 0 0 0 0 0 0.25 0"/>
<feBlend mode="normal" in2="BackgroundImageFix" result="effect1_dropShadow_81_4543"/>
<feBlend mode="normal" in="SourceGraphic" in2="effect1_dropShadow_81_4543" result="shape"/>
</filter>
<linearGradient id="paint0_linear_81_4543" x1="131.017" y1="0" x2="131.017" y2="232.414" gradientUnits="userSpaceOnUse">
<stop stop-color="#503DD8"/>
<stop offset="1" stop-color="#2EC4F1"/>
</linearGradient>
</defs>
</svg>
