<?xml version="1.0" encoding="utf-8"?>
<!-- Generator: Adobe Illustrator 25.0.0, SVG Export Plug-In . SVG Version: 6.00 Build 0)  -->
<svg version="1.1" id="Layer_1" xmlns="http://www.w3.org/2000/svg" xmlns:xlink="http://www.w3.org/1999/xlink" x="0px" y="0px"
	 viewBox="0 0 800 700" style="enable-background:new 0 0 800 700;" xml:space="preserve">
<style type="text/css">
	.st0{fill:#4F39D7;}
	.st1{fill:#FEA501;}
	.st2{fill:#2B9FE0;}
	.st3{fill:url(#SVGID_1_);}
	.st4{fill:url(#SVGID_2_);}
	.st5{fill:url(#SVGID_3_);}
	.st6{fill:url(#SVGID_4_);}
	.st7{fill:url(#SVGID_5_);}
	.st8{fill:url(#SVGID_6_);}
	.st9{fill:url(#SVGID_7_);}
	.st10{fill:url(#SVGID_8_);}
	.st11{fill:url(#SVGID_9_);}
	.st12{fill:url(#SVGID_10_);}
	.st13{fill:url(#SVGID_11_);}
	.st14{fill:url(#SVGID_12_);}
	.st15{fill:url(#SVGID_13_);}
	.st16{fill:url(#SVGID_14_);}
	.st17{fill:url(#SVGID_15_);}
	.st18{fill:url(#SVGID_16_);}
	.st19{fill:url(#SVGID_17_);}
	.st20{fill:url(#SVGID_18_);}
	.st21{fill:url(#SVGID_19_);}
	.st22{fill:url(#SVGID_20_);}
	.st23{fill:url(#SVGID_21_);}
	.st24{fill:url(#SVGID_22_);}
	.st25{fill:url(#SVGID_23_);}
	.st26{fill:url(#SVGID_24_);}
	.st27{fill:url(#SVGID_25_);}
	.st28{fill:url(#SVGID_26_);}
	.st29{fill:url(#SVGID_27_);}
	.st30{fill:url(#SVGID_28_);}
	.st31{fill:url(#SVGID_29_);}
	.st32{fill:url(#SVGID_30_);}
	.st33{fill:url(#SVGID_31_);}
	.st34{fill:url(#SVGID_32_);}
	.st35{fill:url(#SVGID_33_);}
	.st36{fill:url(#SVGID_34_);}
	.st37{fill:url(#SVGID_35_);}
	.st38{fill:url(#SVGID_36_);}
	.st39{fill:url(#SVGID_37_);}
	.st40{fill:url(#SVGID_38_);}
	.st41{fill:url(#SVGID_39_);}
	.st42{fill:url(#SVGID_40_);}
	.st43{fill:url(#SVGID_41_);}
	.st44{fill:url(#SVGID_42_);}
	.st45{fill:url(#SVGID_43_);}
	.st46{fill:url(#SVGID_44_);}
	.st47{fill:url(#SVGID_45_);}
	.st48{fill:url(#SVGID_46_);}
	.st49{fill:url(#SVGID_47_);}
	.st50{fill:url(#SVGID_48_);}
	.st51{fill:url(#SVGID_49_);}
	.st52{fill:url(#SVGID_50_);}
	.st53{fill:url(#SVGID_51_);}
	.st54{fill:url(#SVGID_52_);}
	.st55{fill:url(#SVGID_53_);}
	.st56{fill:url(#SVGID_54_);}
	.st57{fill:url(#SVGID_55_);}
	.st58{fill:url(#SVGID_56_);}
	.st59{fill:url(#SVGID_57_);}
	.st60{fill:url(#SVGID_58_);}
	.st61{fill:url(#SVGID_59_);}
	.st62{fill:url(#SVGID_60_);}
	.st63{fill:url(#SVGID_61_);}
	.st64{fill:url(#SVGID_62_);}
	.st65{fill:url(#SVGID_63_);}
	.st66{fill:url(#SVGID_64_);}
	.st67{fill:url(#SVGID_65_);}
	.st68{fill:url(#SVGID_66_);}
	.st69{fill:url(#SVGID_67_);}
	.st70{fill:url(#SVGID_68_);}
	.st71{fill:url(#SVGID_69_);}
	.st72{fill:url(#SVGID_70_);}
	.st73{fill:url(#SVGID_71_);}
	.st74{fill:url(#SVGID_72_);}
	.st75{fill:url(#SVGID_73_);}
	.st76{fill:url(#SVGID_74_);}
	.st77{fill:url(#SVGID_75_);}
	.st78{fill:url(#SVGID_76_);}
	.st79{fill:url(#SVGID_77_);}
	.st80{fill:url(#SVGID_78_);}
	.st81{fill:url(#SVGID_79_);}
	.st82{fill:url(#SVGID_80_);}
	.st83{fill:url(#SVGID_81_);}
	.st84{fill:url(#SVGID_82_);}
	.st85{fill:url(#SVGID_83_);}
	.st86{fill:url(#SVGID_84_);}
	.st87{fill:url(#SVGID_85_);}
	.st88{fill:url(#SVGID_86_);}
	.st89{fill:url(#SVGID_87_);}
	.st90{fill:url(#SVGID_88_);}
	.st91{fill:url(#SVGID_89_);}
	.st92{fill:url(#SVGID_90_);}
	.st93{fill:#E6E7E8;}
	.st94{fill:#FFFFFF;}
	.st95{fill:url(#SVGID_91_);}
	.st96{fill:url(#SVGID_92_);}
	.st97{fill:url(#SVGID_93_);}
	.st98{fill:url(#SVGID_94_);}
	.st99{fill:url(#SVGID_95_);}
	.st100{fill:url(#SVGID_96_);}
	.st101{fill:url(#SVGID_97_);}
	.st102{fill:url(#SVGID_98_);}
	.st103{fill:url(#SVGID_99_);}
	.st104{fill:url(#SVGID_100_);}
	.st105{fill:url(#SVGID_101_);}
	.st106{fill:url(#SVGID_102_);}
</style>
<g>
	<path class="st1" d="M258.62,438.76c-1.98,0-4.01-0.13-6.02-0.38c-2.29-0.27-4.71-0.71-7.15-1.31c-2.38-0.6-4.68-1.3-6.82-2.1
		c-1.96-0.72-3.97-1.55-5.96-2.47c-1.02-0.48-1.93-1.11-2.71-1.89l-14.66-14.66c-2.57-2.57-3.4-6.3-2.17-9.73l6.3-17.74
		c0.42-1.22,1.11-2.34,2-3.28c-1.53-1.76-2.82-3.72-3.87-5.86c-1.45-2.96-2.24-6.29-2.33-9.9c-0.06-2.06,0.06-4.07,0.34-6.01
		c-7.51,0.4-7.58,0.4-7.67,0.4c-2.4,0-4.68-0.91-6.41-2.55l-0.19-0.18l-14.69-14.69c-1.71-1.71-2.7-4.08-2.71-6.5l-0.58-64.59
		c-0.02-2.85,1.24-5.52,3.45-7.33c1.49-1.22,3.29-1.94,5.2-2.08c28.22-2.09,39.17-2.9,43.46-3.21c2.7-0.2,2.78-0.2,2.91-0.2
		c0.02,0,0.08,0,0.1,0c2.46,0,4.87,1,6.61,2.74l14.8,14.8c0.08,0.08,0.16,0.17,0.23,0.27l0.6,0.83c0.27,0.1,0.53,0.22,0.79,0.35
		c1.29-0.64,2.73-0.99,4.17-0.99c0.31,0,0.32,0,19.9,1.53l0.21,0.02c2.01,0.2,3.91,1.06,5.39,2.42l0.24,0.23l0.22,0.22
		c1.98-1.17,4.11-2.15,6.36-2.94c4.28-1.5,9.1-2.3,13.93-2.3c3.77,0,7.36,0.48,10.57,1.41l-0.06-7.51c-0.02-2.84,1.23-5.5,3.44-7.31
		c1.48-1.21,3.27-1.93,5.17-2.07c19.16-1.53,19.16-1.53,19.47-1.53c2.38,0,4.65,0.89,6.38,2.52l0.21,0.21l14.69,14.69
		c0.07,0.07,0.14,0.15,0.2,0.22l0.22,0.28c2.18-0.17,2.24-0.17,2.43-0.17c1.88,0,3.69,0.56,5.23,1.6l0.29-0.05
		c0.08-0.01,0.15-0.02,0.23-0.03l14.49-1.13c4.99-0.39,5.05-0.39,5.25-0.39c2.46,0,4.75,0.92,6.5,2.58l0.17,0.17l0.41,0.41
		c1.23-0.62,2.53-1.17,3.91-1.65c3.45-1.2,7.8-1.83,12.58-1.83c1.47,0,3.01,0.06,4.56,0.18c1.67,0.13,3.2,0.3,4.68,0.53
		c0.19,0.03,0.37,0.06,0.55,0.09l0.05-9.53c0.01-2.79,1.26-5.41,3.42-7.18c1.57-1.28,3.48-2.01,5.51-2.1c0,0,19.36-0.83,19.4-0.83
		c2.46,0,4.87,0.99,6.6,2.73l14.75,14.75c0.64,0.66,1.17,1.4,1.59,2.2c0.45,0.21,0.89,0.45,1.31,0.73c1.52-1.02,3.34-1.57,5.2-1.57
		c0.31,0,0.32,0,18.73,1.45l0.2,0.02c1.97,0.2,3.82,1.01,5.28,2.31c0.95-0.5,1.94-0.94,2.93-1.34c4.06-1.62,8.47-2.44,13.09-2.44
		c7.43,0,14.07,1.98,19.71,5.89c0.79,0.55,1.55,1.12,2.28,1.73c0.15-0.14,0.3-0.28,0.46-0.42l0.72-0.62
		c2.42-1.98,5.33-3.56,8.67-4.73c3.45-1.2,7.8-1.83,12.59-1.83c1.47,0,3.01,0.06,4.56,0.18c1.67,0.13,3.2,0.3,4.68,0.53
		c1.34,0.21,2.57,0.42,3.7,0.63c1.18,0.21,2.2,0.42,3.03,0.61c1.68,0.38,3.24,1.24,4.49,2.49l14.66,14.66
		c1.75,1.76,2.76,4.17,2.76,6.62v14.6c0,1.75-0.48,3.43-1.37,4.89c0.7,0.96,1.34,1.99,1.91,3.1c1.59,3.09,2.37,6.69,2.37,11.01
		c0,4.83-1.17,9.07-3.48,12.58c-2.1,3.24-4.93,5.86-8.38,7.8c-3.02,1.69-6.47,2.9-10.26,3.57c-3.3,0.59-6.76,0.9-10.28,0.9
		c-2.69,0-5.37-0.16-7.97-0.48c-2.63-0.31-5.34-0.85-8.06-1.59c-1.05-0.28-2.04-0.75-2.93-1.37c-1.23,0.53-2.42,0.97-3.59,1.33
		c-3.48,1.06-7.33,1.71-11.47,1.94l8.63,8.63c1.75,1.75,2.72,4.1,2.72,6.6v14.6c0,1.76-0.48,3.45-1.38,4.9
		c0.7,0.96,1.34,1.99,1.9,3.08c1.58,3.07,2.38,6.77,2.38,11.02c0,4.83-1.17,9.06-3.48,12.58c-2.11,3.25-4.94,5.88-8.41,7.81
		c-2.96,1.66-6.4,2.86-10.2,3.56c-3.27,0.6-6.73,0.9-10.3,0.9c-2.65,0-5.34-0.17-7.99-0.5c-2.73-0.34-5.43-0.87-8.04-1.57
		c-1.57-0.42-3.01-1.25-4.17-2.41l-1.38-1.37c-1.54,2.23-4.03,3.74-6.9,3.99l-10.71,0.91c-7.19,0.61-7.23,0.61-7.51,0.61
		c-2.33,0-4.57-0.86-6.29-2.44l-0.26-0.25l-0.41-0.41c-1.19,0.51-2.37,0.95-3.56,1.32c-4.39,1.34-9.42,2.02-14.93,2.02
		c-4.95,0-9.62-0.89-13.88-2.65c-3.49-1.46-6.61-3.35-9.31-5.64l-14.95,7.41c-1.32,0.64-2.71,0.97-4.14,0.97
		c-2.34,0-4.55-0.85-6.26-2.41c-1,0.48-2.09,0.77-3.23,0.87c-17.69,1.53-17.7,1.53-18.05,1.53c-2.34,0-4.58-0.87-6.31-2.45
		l-0.26-0.25c-0.57,0.2-1.14,0.38-1.7,0.55c-2.16,0.64-4.4,1.11-6.66,1.37c-2.09,0.23-4.07,0.35-6.05,0.35
		c-4.95,0-9.62-0.87-13.89-2.58c-2.72-1.08-5.25-2.46-7.56-4.11c-1.33,3.07-4.26,5.28-7.79,5.58c-9.13,0.78-13.62,1.16-15.85,1.35
		c-2.25,0.19-2.3,0.19-2.51,0.19c-1.28,0-2.55-0.26-3.72-0.77c-0.65,0.23-1.32,0.38-2,0.46c-1.21,0.13-2.25,0.21-3.21,0.25
		c-0.85,0.04-1.81,0.06-3.01,0.06c-7.49,0-13.64-1.92-18.29-5.72c-0.03-0.02-1.43-1.28-1.43-1.28c-0.03-0.03-0.06-0.06-0.09-0.09
		l-1.81-1.81c-0.31,0.28-0.63,0.54-0.95,0.81l-0.35,0.29c-3.56,2.8-7.75,4.96-12.47,6.42c-4.41,1.38-9.19,2.17-14.19,2.36
		C260.05,438.74,258.63,438.76,258.62,438.76z"/>
	<path class="st0" d="M551.45,431.17c3.12-1.73,5.67-4.1,7.56-7.01c2.04-3.12,3.08-6.9,3.08-11.25c0-3.86-0.71-7.19-2.11-9.9
		c-0.8-1.55-1.75-2.95-2.85-4.18c1.32-1.29,2.05-3.04,2.05-4.91v-14.6c0-1.89-0.75-3.62-2.01-4.88l-12.77-12.77
		c0.8,0.05,1.6,0.08,2.41,0.08c5.22,0,10-0.65,14.21-1.93c1.5-0.46,3.06-1.07,4.7-1.85l0.11,0.11c0.83,0.83,1.87,1.44,3.05,1.76
		c2.59,0.7,5.19,1.21,7.73,1.52c2.51,0.31,5.1,0.47,7.67,0.47c3.38,0,6.69-0.29,9.85-0.86c3.51-0.63,6.71-1.73,9.5-3.3
		c3.12-1.75,5.66-4.12,7.54-7.01c2.04-3.12,3.08-6.9,3.08-11.25c0-3.92-0.68-7.15-2.09-9.89c-0.82-1.57-1.77-2.98-2.85-4.2
		c1.31-1.3,2.04-3.04,2.04-4.91v-14.6c0-1.88-0.78-3.63-2.05-4.9l-14.66-14.66c-0.89-0.89-2.03-1.55-3.31-1.84
		c-0.8-0.18-1.77-0.38-2.94-0.59c-1.11-0.21-2.32-0.41-3.63-0.62c-1.42-0.22-2.9-0.39-4.49-0.51c-1.46-0.11-2.94-0.18-4.37-0.18
		c-4.52,0-8.59,0.59-11.78,1.69c-3.07,1.07-5.72,2.51-7.89,4.28l-0.68,0.59c-0.7,0.62-1.34,1.28-1.93,2
		c-1.19-1.14-2.46-2.18-3.81-3.12c-5.23-3.62-11.4-5.46-18.32-5.46c-4.31,0-8.42,0.77-12.2,2.27c-1.46,0.57-2.87,1.27-4.22,2.08
		l-0.92-0.92c-1.12-1.12-2.59-1.82-4.16-1.98l-0.18-0.02c-18.32-1.44-18.35-1.44-18.54-1.44c-1.65,0-3.17,0.57-4.36,1.55l-0.82,0.79
		l-0.3-0.3c-0.79-0.79-1.76-1.39-2.84-1.73c-0.33-0.89-0.85-1.7-1.52-2.39l-0.07-0.07l-14.59-14.59l-0.07-0.07
		c-1.28-1.28-3.06-2.02-4.88-2.02l-19.29,0.83c-1.55,0.07-2.96,0.64-4.08,1.56c-1.54,1.26-2.52,3.18-2.53,5.31l-0.06,12.4
		c-1.03-0.19-2.15-0.37-3.35-0.57c-1.42-0.22-2.9-0.39-4.49-0.51c-1.46-0.11-2.94-0.18-4.37-0.18c-4.52,0-8.59,0.59-11.78,1.69
		c-1.87,0.65-3.59,1.44-5.14,2.36l-1.67-1.67l-0.16-0.16c-1.29-1.23-2.98-1.91-4.77-1.91h-0.02c-0.12,0-0.47,0.02-5.1,0.38
		c-2.87,0.22-7.38,0.57-14.49,1.13l-1.35,0.24c-1.26-1.13-2.88-1.75-4.59-1.75c-0.11,0-0.17,0-3.54,0.27l-1.02-1.31l-14.66-14.66
		l-0.19-0.18c-1.28-1.2-2.96-1.86-4.72-1.86c-0.19,0-0.22,0-19.29,1.52c-1.44,0.11-2.76,0.67-3.81,1.53
		c-1.57,1.29-2.57,3.25-2.55,5.41l0.09,10.99c-3.68-1.59-8.18-2.43-13.03-2.43c-4.58,0-9.11,0.75-13.13,2.16
		c-2.71,0.95-5.23,2.2-7.51,3.73l-1.07-1.07l-0.49-0.49l-0.2-0.2c-1.09-1-2.47-1.64-3.95-1.79l-0.2-0.02
		c-19.48-1.52-19.52-1.52-19.71-1.52c-1.55,0-3,0.52-4.18,1.41c-0.68-0.52-1.46-0.91-2.3-1.15l-1.06-1.45l-0.12-0.12l-14.54-14.54
		l-0.12-0.12c-1.29-1.29-3.06-2.02-4.89-2.02l-0.03,0c-0.09,0-0.42,0.02-2.8,0.2c-4.29,0.31-15.24,1.12-43.46,3.21
		c-1.46,0.11-2.78,0.67-3.84,1.54c-1.58,1.29-2.57,3.25-2.56,5.43l0.58,64.59c0.01,1.8,0.74,3.54,2,4.8l0.17,0.17l14.49,14.49
		l0.17,0.17c1.28,1.21,2.96,1.88,4.74,1.88c0.09,0,4.61-0.24,10.66-0.57c-0.68,2.68-0.98,5.54-0.9,8.55
		c0.08,3.26,0.78,6.25,2.08,8.89c1.17,2.4,2.69,4.54,4.49,6.39l0.2,0.21l0.61,0.61l-1.19,0.78c-0.97,0.8-1.72,1.85-2.14,3.04
		l-6.3,17.74c-0.92,2.58-0.24,5.35,1.6,7.19l14.66,14.66c0.56,0.56,1.24,1.04,2.01,1.4c1.83,0.84,3.78,1.66,5.79,2.4
		c2.11,0.78,4.3,1.45,6.56,2.02c2.27,0.56,4.57,0.99,6.87,1.26c1.96,0.24,3.87,0.36,5.72,0.36l1.34-0.01
		c4.79-0.18,9.36-0.94,13.56-2.25c4.43-1.37,8.36-3.38,11.67-5.99l0.34-0.27c0.88-0.72,1.72-1.5,2.52-2.34l3.5,3.5l1.34,1.2
		c4.2,3.43,9.85,5.17,16.76,5.17c1.04,0,2-0.01,2.91-0.05c0.96-0.04,1.95-0.12,3.02-0.24c0.85-0.1,1.65-0.36,2.38-0.74
		c1.09,0.67,2.34,1.03,3.62,1.03c0.1,0,0.16,0,2.31-0.18c2.23-0.19,6.72-0.57,15.85-1.35c3.54-0.3,6.26-3.2,6.33-6.75l0.01-0.88
		c2.9,2.67,6.3,4.81,10.12,6.32c3.98,1.6,8.35,2.41,12.98,2.41c1.86,0,3.77-0.11,5.76-0.33c2.12-0.25,4.22-0.68,6.25-1.29
		c1.01-0.3,2.01-0.65,3.01-1.05l1.06,1.06l0.23,0.22c1.28,1.17,2.94,1.81,4.66,1.81c0.21,0,0.25,0,17.84-1.53
		c1.44-0.12,2.73-0.67,3.78-1.53l1.04,1.04c1.27,1.27,3.01,2.01,4.88,2.01c1.07,0,2.1-0.24,3.06-0.72l16.43-8.15
		c2.78,2.62,6.09,4.73,9.85,6.3c3.96,1.63,8.32,2.46,12.96,2.46c5.27,0,10.06-0.64,14.21-1.91c1.56-0.48,3.15-1.11,4.81-1.9
		l1.56,1.56l0.21,0.2c1.28,1.16,2.93,1.8,4.66,1.8c0.15,0,0.21,0,7.3-0.6c2.55-0.22,6.01-0.51,10.7-0.91
		c3.26-0.28,5.79-2.73,6.24-5.87l3.96,3.96c0.84,0.84,1.89,1.46,3.09,1.78c2.49,0.67,5.08,1.18,7.7,1.51
		c2.54,0.32,5.14,0.48,7.69,0.48c3.41,0,6.74-0.29,9.86-0.86C545.53,433.82,548.71,432.71,551.45,431.17z"/>
	<path class="st2" d="M268.97,377.59c-1.46-1.44-3.1-2.65-4.89-3.65c-1.8-1-3.55-1.88-5.27-2.65c-1.44-0.61-2.93-1.08-4.48-1.41
		c-1.82-0.44-3.54-0.83-5.14-1.16l-1.49-0.21l-1.78-0.33l-1.49-0.58l-0.62-1.04c0.06-1,0.5-1.77,1.33-2.32
		c0.83-0.55,1.81-0.95,2.94-1.2c1.13-0.25,2.28-0.37,3.44-0.37c1.22,0,2.18,0.06,2.9,0.17c2.43,0.33,4.56,0.82,6.39,1.45
		c1.82,0.64,3.84,1.42,6.05,2.36l4.89-19.16c-2.99-1.22-6.19-2.09-9.62-2.61c-3.43-0.53-6.88-0.7-10.37-0.54
		c-3.76,0.17-7.3,0.82-10.62,1.95c-3.32,1.13-6.22,2.76-8.71,4.89c-2.49,2.13-4.45,4.7-5.89,7.71c-1.44,3.01-2.1,6.45-1.99,10.32
		c0.06,2.27,0.51,4.27,1.37,6.01c0.86,1.74,1.93,3.28,3.23,4.6c1.3,1.33,2.74,2.46,4.31,3.41c1.58,0.93,3.14,1.73,4.69,2.4
		c1.55,0.66,3,1.19,4.35,1.58c1.35,0.39,2.45,0.69,3.28,0.92c1.27,0.49,2.36,0.99,3.28,1.49c0.91,0.5,1.4,1.22,1.45,2.16
		c0.06,1.44-0.62,2.46-2.03,3.07c-1.41,0.61-3.14,0.97-5.18,1.08c-1.38,0.06-2.79-0.08-4.23-0.41c-1.44-0.33-2.82-0.72-4.15-1.16
		c-1.33-0.44-2.57-0.93-3.73-1.45c-1.16-0.53-2.16-0.95-2.99-1.29l-6.3,17.75c1.66,0.77,3.43,1.51,5.31,2.2
		c1.88,0.7,3.81,1.29,5.81,1.78c1.99,0.5,4.01,0.87,6.05,1.12c2.05,0.25,4.04,0.35,5.97,0.29c4.2-0.16,8.13-0.82,11.78-1.95
		c3.65-1.13,6.79-2.74,9.41-4.8c2.63-2.08,4.66-4.62,6.1-7.64c1.44-3.01,2.07-6.48,1.91-10.41c-0.11-2.76-0.65-5.16-1.62-7.17
		S270.44,379.03,268.97,377.59z"/>
	<path class="st2" d="M300.03,397.42c-1.66,0-2.72-0.28-3.19-0.84c-0.47-0.55-0.7-1.66-0.7-3.32v-14.51h5.64l0.91-15.26l-6.72,1
		v-13.6l-18,8.13v5.47h-3.9l-0.5,14.35l4.56-0.08v19.65c0,5.42,1.48,9.34,4.44,11.73c2.96,2.4,7.09,3.61,12.4,3.61
		c0.94,0,1.81-0.01,2.61-0.05c0.8-0.03,1.65-0.1,2.53-0.2l2.9-16.42l-1.24,0.25C301.33,397.39,300.75,397.42,300.03,397.42z"/>
	<polygon class="st2" points="306.75,360.01 324.83,358.68 325.82,344.09 306.83,344.92 	"/>
	<polygon class="st2" points="306.91,413.75 324.49,412.25 325.41,364.4 306.91,365.9 	"/>
	<path class="st2" d="M358.33,394.26c-2.27,1.11-4.42,1.41-6.47,0.91c-2.05-0.5-3.62-1.85-4.73-4.06c-0.55-1.06-0.84-2.09-0.87-3.11
		c-0.03-1.02,0.17-1.98,0.58-2.86c0.41-0.88,1-1.71,1.74-2.45c0.75-0.75,1.64-1.4,2.69-1.95c0.61-0.33,1.4-0.53,2.36-0.58
		s1.98,0,3.03,0.17s2.09,0.44,3.11,0.82c1.02,0.39,1.92,0.89,2.7,1.5l10.95-14.35c-1.99-1.33-4.44-2.63-7.34-3.9
		c-2.9-1.28-6.32-1.91-10.24-1.91c-3.93,0-7.57,0.59-10.95,1.78c-3.37,1.2-6.29,2.9-8.75,5.15c-2.46,2.23-4.38,4.97-5.76,8.21
		c-1.38,3.23-2.07,6.87-2.07,10.91c0,3.48,0.66,6.73,1.99,9.74c1.33,3.01,3.17,5.64,5.51,7.88c2.35,2.24,5.11,3.99,8.29,5.27
		c3.18,1.27,6.65,1.91,10.41,1.91c1.6,0,3.26-0.1,4.98-0.29c1.71-0.19,3.4-0.54,5.06-1.04c1.66-0.5,3.28-1.15,4.85-1.95
		c1.58-0.8,3.05-1.81,4.44-3.03l-11.28-14.93L358.33,394.26z"/>
	<polygon class="st2" points="418.62,365.15 400.29,363.66 392.41,380.49 392.25,380.49 393.91,345.5 375.08,346.99 375.49,413.76 
		392.74,412.26 392.08,392.93 392.25,392.93 403.03,413.76 420.28,405.21 407.84,386.05 	"/>
	<path class="st2" d="M459.05,367.14c-4.06-2.82-8.86-4.23-14.39-4.23c-3.43,0-6.65,0.59-9.66,1.78c-3.01,1.2-5.65,2.92-7.92,5.18
		s-4.06,5.03-5.39,8.29c-1.33,3.27-1.99,6.97-1.99,11.12c0,3.31,0.64,6.45,1.91,9.41c1.27,2.96,3.04,5.55,5.31,7.75
		c2.27,2.21,4.96,3.97,8.09,5.27c3.12,1.29,6.57,1.94,10.32,1.94c4.59,0,8.65-0.54,12.19-1.61c3.54-1.08,6.99-2.83,10.37-5.27
		l-8.21-13.52c-1.44,1.28-3.03,2.37-4.77,3.28c-1.74,0.91-3.88,1.37-6.43,1.37c-0.83,0-1.74-0.06-2.74-0.17
		c-1-0.1-1.8-0.32-2.41-0.66l24.8-18.67C466.14,373.72,463.11,369.96,459.05,367.14z M437.77,388.96l-0.54-1.29
		c-0.14-0.41-0.21-1.12-0.21-2.11c0-1.06,0.18-2.07,0.54-3.08c0.36-0.99,0.87-1.89,1.53-2.7c0.66-0.79,1.45-1.44,2.36-1.91
		c0.91-0.46,1.92-0.7,3.03-0.7c1.16,0,2.2,0.17,3.11,0.5c0.91,0.33,1.76,0.97,2.53,1.91L437.77,388.96z"/>
	<path class="st2" d="M499.72,363.33c-6.86,0-11,3.07-12.44,9.21h-0.17v-9.21l-16.83,1.49l0.5,48.6l17.42-1.49v-21.31
		c0-3.26,0.84-5.65,2.53-7.17c1.69-1.52,3.69-2.28,6.01-2.28h1.66l1.24,0.08l4.31-17.66C502.62,363.41,501.21,363.33,499.72,363.33z
		"/>
	<path class="st2" d="M535.92,387.42c-1.3-1.02-2.72-1.8-4.27-2.36c-1.55-0.55-2.97-1.02-4.27-1.41c-1.3-0.38-2.39-0.8-3.28-1.24
		c-0.88-0.45-1.33-1.11-1.33-1.99l0.83-1.33c0.55-0.33,1.19-0.57,1.91-0.7c0.72-0.14,1.44-0.22,2.16-0.25
		c0.72-0.03,1.24-0.04,1.58-0.04c1.55,0,2.99,0.11,4.31,0.33c1.33,0.22,2.68,0.5,4.06,0.83v-14.6c-0.72-0.17-1.6-0.34-2.65-0.54
		c-1.05-0.19-2.2-0.38-3.44-0.58c-1.24-0.19-2.56-0.35-3.94-0.46c-1.38-0.11-2.76-0.17-4.15-0.17c-3.59,0-6.66,0.44-9.21,1.33
		c-2.54,0.88-4.62,2.05-6.22,3.48c-1.6,1.44-2.76,3.04-3.48,4.81c-0.72,1.77-1.08,3.57-1.08,5.39c0,2.77,0.43,5.01,1.29,6.72
		c0.86,1.71,1.91,3.08,3.15,4.11c1.24,1.02,2.61,1.79,4.11,2.32c1.49,0.53,2.86,0.97,4.11,1.37c1.24,0.39,2.29,0.78,3.15,1.2
		c0.86,0.41,1.29,1.03,1.29,1.86c0,0.67-0.23,1.16-0.7,1.49c-0.47,0.34-1.05,0.57-1.74,0.71c-0.69,0.13-1.46,0.22-2.32,0.25
		c-0.86,0.03-1.67,0.04-2.45,0.04c-1.77,0-3.41-0.14-4.93-0.42c-1.52-0.27-3.03-0.64-4.52-1.07v15.51c2.27,0.61,4.52,1.04,6.76,1.32
		c2.24,0.28,4.52,0.42,6.84,0.42c2.99,0,5.86-0.25,8.62-0.75c2.76-0.5,5.21-1.33,7.34-2.53c2.13-1.19,3.84-2.77,5.14-4.76
		c1.3-1.99,1.95-4.49,1.95-7.46c0-2.77-0.44-5.01-1.33-6.72C538.31,389.82,537.22,388.45,535.92,387.42z"/>
	<g>
		<polygon class="st1" points="238.02,314.54 214.29,316.78 214.46,312.22 228.31,311.14 230.05,296.63 214.96,297.71 
			215.04,293.72 235.85,292.81 238.43,271.83 192.65,275.23 193.23,339.83 237.6,337.43 		"/>
		<polygon class="st1" points="248.29,314.12 237.27,338.42 256.83,339.83 261.64,324.82 261.81,324.82 266.53,339.83 
			286.44,338.42 274.91,314.12 284.79,291.32 265.62,289.83 261.81,303.76 261.64,303.76 257.25,289.83 238.01,291.32 		"/>
		<path class="st1" d="M286.45,324.78c1.33,3.01,3.17,5.64,5.51,7.88c2.34,2.24,5.11,3.99,8.29,5.27c3.18,1.27,6.65,1.91,10.41,1.91
			c1.6,0,3.26-0.1,4.97-0.29c1.71-0.19,3.41-0.54,5.07-1.04s3.27-1.15,4.85-1.95c1.58-0.8,3.05-1.81,4.44-3.03l-11.28-14.93
			l-4.24,2.16c-2.27,1.11-4.42,1.41-6.46,0.91c-2.05-0.5-3.63-1.85-4.73-4.06c-0.55-1.05-0.84-2.09-0.87-3.11
			c-0.03-1.02,0.17-1.98,0.58-2.86c0.42-0.88,1-1.7,1.74-2.45c0.75-0.75,1.65-1.4,2.7-1.95c0.61-0.33,1.4-0.53,2.36-0.58
			c0.96-0.06,1.98,0,3.02,0.17c1.06,0.17,2.09,0.44,3.11,0.83c1.03,0.39,1.93,0.88,2.7,1.49l10.95-14.35
			c-1.99-1.33-4.44-2.63-7.34-3.9c-2.9-1.27-6.32-1.91-10.24-1.91c-3.93,0-7.58,0.59-10.95,1.78c-3.37,1.19-6.29,2.9-8.75,5.14
			c-2.46,2.24-4.38,4.98-5.76,8.21c-1.39,3.23-2.07,6.87-2.07,10.91C284.45,318.52,285.11,321.77,286.45,324.78z"/>
		<polygon class="st1" points="349.72,338.76 350.46,272 331.72,273.49 332.3,340.25 		"/>
		<path class="st1" d="M370.03,340.5c3.15,0,5.9-0.64,8.26-1.91c2.34-1.27,4.07-3.43,5.18-6.47h0.16v7.63l15.26-0.66l1.25-49.34
			l-19.08,1.49l0.5,29.27c0.06,1.33-0.26,2.27-0.95,2.82c-0.7,0.55-1.6,0.83-2.7,0.83c-1.33,0-2.31-0.29-2.94-0.87
			c-0.64-0.58-0.93-1.53-0.87-2.86l0.5-30.68l-18.49,1.49v34.83c0,4.7,1.28,8.28,3.85,10.74
			C362.53,339.27,365.89,340.5,370.03,340.5z"/>
		<path class="st1" d="M407.81,315.24c1.24,1.02,2.61,1.8,4.1,2.32c1.49,0.53,2.87,0.98,4.11,1.37c1.24,0.39,2.29,0.79,3.14,1.2
			c0.86,0.41,1.29,1.04,1.29,1.87c0,0.66-0.23,1.16-0.71,1.49c-0.46,0.33-1.04,0.57-1.74,0.71c-0.68,0.14-1.47,0.22-2.32,0.25
			c-0.86,0.03-1.67,0.04-2.44,0.04c-1.77,0-3.41-0.13-4.93-0.41c-1.53-0.28-3.03-0.64-4.52-1.08v15.51
			c2.27,0.61,4.52,1.05,6.76,1.33c2.23,0.28,4.52,0.41,6.83,0.41c2.99,0,5.86-0.25,8.63-0.75c2.76-0.5,5.2-1.33,7.34-2.53
			c2.13-1.19,3.84-2.78,5.14-4.77c1.3-1.99,1.94-4.48,1.94-7.46c0-2.76-0.44-5-1.32-6.72c-0.88-1.71-1.98-3.08-3.28-4.11
			c-1.29-1.02-2.72-1.81-4.26-2.36c-1.55-0.55-2.97-1.02-4.27-1.41c-1.3-0.39-2.4-0.8-3.28-1.24c-0.88-0.44-1.32-1.11-1.32-1.99
			l0.83-1.33c0.55-0.33,1.19-0.57,1.91-0.7c0.72-0.14,1.44-0.22,2.16-0.25c0.72-0.03,1.24-0.04,1.58-0.04
			c1.54,0,2.99,0.11,4.31,0.33c1.33,0.22,2.67,0.5,4.06,0.83v-14.6c-0.71-0.17-1.6-0.34-2.65-0.54c-1.06-0.19-2.2-0.38-3.44-0.58
			c-1.24-0.19-2.56-0.35-3.95-0.46c-1.38-0.11-2.76-0.17-4.14-0.17c-3.6,0-6.66,0.44-9.21,1.33c-2.54,0.88-4.62,2.05-6.23,3.48
			c-1.6,1.44-2.76,3.04-3.48,4.81c-0.71,1.77-1.07,3.57-1.07,5.39c0,2.76,0.43,5,1.29,6.72
			C405.52,312.85,406.57,314.22,407.81,315.24z"/>
		<polygon class="st1" points="442.93,340.25 460.51,338.75 461.42,290.9 442.93,292.4 		"/>
		<polygon class="st1" points="461.83,270.59 442.84,271.41 442.76,286.51 460.84,285.18 		"/>
		<polygon class="st1" points="497.82,338.67 509.28,290.82 491.28,289.41 485.81,322.17 485.64,322.17 480.91,289.41 
			463.08,290.82 473.94,340.08 		"/>
		<path class="st1" d="M545.88,293.64c-4.06-2.82-8.85-4.23-14.38-4.23c-3.43,0-6.66,0.59-9.66,1.78c-3.02,1.2-5.66,2.92-7.93,5.18
			c-2.27,2.27-4.06,5.03-5.38,8.29c-1.33,3.27-1.99,6.97-1.99,11.11c0,3.32,0.64,6.45,1.9,9.41c1.28,2.96,3.05,5.54,5.31,7.75
			c2.27,2.21,4.96,3.97,8.09,5.27c3.12,1.3,6.57,1.96,10.32,1.96c4.59,0,8.65-0.55,12.18-1.62c3.54-1.08,6.99-2.83,10.37-5.27
			l-8.2-13.52c-1.44,1.28-3.03,2.36-4.78,3.28c-1.74,0.91-3.88,1.37-6.42,1.37c-0.83,0-1.74-0.05-2.74-0.17
			c-0.99-0.11-1.79-0.33-2.4-0.66l24.8-18.66C552.98,300.22,549.95,296.46,545.88,293.64z M524.62,315.45l-0.54-1.29
			c-0.15-0.41-0.21-1.12-0.21-2.11c0-1.05,0.18-2.07,0.54-3.07c0.35-1,0.87-1.89,1.53-2.7c0.67-0.79,1.45-1.44,2.36-1.91
			c0.92-0.46,1.92-0.7,3.03-0.7c1.16,0,2.2,0.17,3.11,0.5c0.91,0.33,1.76,0.97,2.53,1.91L524.62,315.45z"/>
		<path class="st1" d="M591.37,318.02c-0.88-1.71-1.98-3.08-3.28-4.11c-1.29-1.02-2.72-1.81-4.26-2.36
			c-1.55-0.55-2.97-1.02-4.27-1.41c-1.3-0.39-2.4-0.8-3.28-1.24c-0.88-0.44-1.32-1.11-1.32-1.99l0.83-1.33
			c0.55-0.33,1.19-0.57,1.91-0.7c0.72-0.14,1.44-0.22,2.16-0.25c0.72-0.03,1.24-0.04,1.58-0.04c1.54,0,2.99,0.11,4.31,0.33
			c1.33,0.22,2.67,0.5,4.06,0.83v-14.6c-0.71-0.17-1.6-0.34-2.65-0.54c-1.06-0.19-2.2-0.38-3.44-0.58
			c-1.24-0.19-2.56-0.35-3.95-0.46c-1.38-0.11-2.76-0.17-4.14-0.17c-3.6,0-6.66,0.44-9.21,1.33c-2.54,0.88-4.62,2.05-6.23,3.48
			c-1.6,1.44-2.76,3.04-3.48,4.81c-0.71,1.77-1.07,3.57-1.07,5.39c0,2.76,0.43,5,1.29,6.72c0.86,1.71,1.91,3.08,3.15,4.11
			c1.24,1.02,2.61,1.8,4.1,2.32c1.49,0.53,2.87,0.98,4.11,1.37c1.24,0.39,2.29,0.79,3.14,1.2c0.86,0.41,1.29,1.04,1.29,1.87
			c0,0.66-0.23,1.16-0.71,1.49c-0.46,0.33-1.04,0.57-1.74,0.71c-0.68,0.14-1.47,0.22-2.32,0.25c-0.86,0.03-1.67,0.04-2.44,0.04
			c-1.77,0-3.41-0.13-4.93-0.41c-1.53-0.28-3.03-0.64-4.52-1.08v15.51c2.27,0.61,4.52,1.05,6.76,1.33c2.23,0.28,4.52,0.41,6.83,0.41
			c2.99,0,5.86-0.25,8.63-0.75c2.76-0.5,5.2-1.33,7.34-2.53c2.13-1.19,3.84-2.78,5.14-4.77c1.3-1.99,1.94-4.48,1.94-7.46
			C592.69,321.97,592.26,319.74,591.37,318.02z"/>
	</g>
	<g>
		<linearGradient id="SVGID_1_" gradientUnits="userSpaceOnUse" x1="388.299" y1="275.8753" x2="388.299" y2="340.9364">
			<stop  offset="0" style="stop-color:#FFFFFF;stop-opacity:0"/>
			<stop  offset="0.5084" style="stop-color:#FFFFFF"/>
			<stop  offset="1" style="stop-color:#FFFFFF;stop-opacity:0"/>
		</linearGradient>
		<path class="st3" d="M388.71,335.22h-0.16c-0.68,0-1.29,0.43-1.52,1.06c-0.23,0.62-0.48,1.2-0.76,1.73l4.07-0.18v-0.99
			C390.33,335.95,389.61,335.22,388.71,335.22z"/>
		<linearGradient id="SVGID_2_" gradientUnits="userSpaceOnUse" x1="314.5516" y1="275.8753" x2="314.5516" y2="340.9364">
			<stop  offset="0" style="stop-color:#FFFFFF;stop-opacity:0"/>
			<stop  offset="0.5084" style="stop-color:#FFFFFF"/>
			<stop  offset="1" style="stop-color:#FFFFFF;stop-opacity:0"/>
		</linearGradient>
		<path class="st4" d="M322.22,325.94l-3.99-5.28l-3.05,1.55c-1.78,0.87-3.54,1.31-5.24,1.31c-0.78,0-1.56-0.09-2.32-0.28
			c-0.25-0.06-0.5-0.14-0.74-0.22c0.01,0.02,0.02,0.04,0.03,0.06c1.31,2.62,3.26,4.27,5.79,4.88c0.76,0.18,1.54,0.28,2.32,0.28
			c1.7,0,3.46-0.44,5.24-1.31L322.22,325.94z"/>
		<linearGradient id="SVGID_3_" gradientUnits="userSpaceOnUse" x1="223.3081" y1="275.8753" x2="223.3081" y2="340.9364">
			<stop  offset="0" style="stop-color:#FFFFFF;stop-opacity:0"/>
			<stop  offset="0.5084" style="stop-color:#FFFFFF"/>
			<stop  offset="1" style="stop-color:#FFFFFF;stop-opacity:0"/>
		</linearGradient>
		<path class="st5" d="M218.91,303.6c0.3,0.29,0.7,0.45,1.12,0.45c0.04,0,0.08,0,0.12,0l7.45-0.53l0.61-5.13l-9.73,0.69l-0.07,3.31
			C218.4,302.85,218.58,303.29,218.91,303.6z"/>
		<linearGradient id="SVGID_4_" gradientUnits="userSpaceOnUse" x1="388.0136" y1="275.8753" x2="388.0136" y2="340.9364">
			<stop  offset="0" style="stop-color:#FFFFFF;stop-opacity:0"/>
			<stop  offset="0.5084" style="stop-color:#FFFFFF"/>
			<stop  offset="1" style="stop-color:#FFFFFF;stop-opacity:0"/>
		</linearGradient>
		<path class="st6" d="M377.55,325.76c0.05,1.48,0.52,2.65,1.4,3.45c0.94,0.86,2.3,1.29,4.04,1.29c1.47,0,2.72-0.4,3.71-1.18
			c1.12-0.9,1.64-2.3,1.56-4.16l-0.47-27.71l10.56-0.83l0.13-5.13l-15.77,1.23l0.47,27.71c0.08,1.86-0.44,3.26-1.56,4.16
			c-0.99,0.78-2.24,1.18-3.71,1.18C377.78,325.78,377.67,325.76,377.55,325.76z"/>
		<linearGradient id="SVGID_5_" gradientUnits="userSpaceOnUse" x1="249.0482" y1="275.8753" x2="249.0482" y2="340.9364">
			<stop  offset="0" style="stop-color:#FFFFFF;stop-opacity:0"/>
			<stop  offset="0.5084" style="stop-color:#FFFFFF"/>
			<stop  offset="1" style="stop-color:#FFFFFF;stop-opacity:0"/>
		</linearGradient>
		<path class="st7" d="M249.77,313.46c0.19,0.43,0.19,0.91,0,1.34l-8.56,18.87l-0.06,3.41l5.55,0.4l8.15-17.96
			c0.19-0.42,0.19-0.91,0-1.34l-9.33-20.7l12.15-0.94l-1.58-4.99l-15.65,1.21L249.77,313.46z"/>
		<linearGradient id="SVGID_6_" gradientUnits="userSpaceOnUse" x1="272.9508" y1="275.8753" x2="272.9508" y2="340.9364">
			<stop  offset="0" style="stop-color:#FFFFFF;stop-opacity:0"/>
			<stop  offset="0.5084" style="stop-color:#FFFFFF"/>
			<stop  offset="1" style="stop-color:#FFFFFF;stop-opacity:0"/>
		</linearGradient>
		<path class="st8" d="M265.17,308.97c0.21,0.68,0.84,1.13,1.55,1.13h0.17c0.73,0,1.37-0.49,1.56-1.19l3.46-12.64l8.67,0.68
			l1.81-4.19l-15.56-1.21l-3.33,12.15L265.17,308.97z"/>
		<linearGradient id="SVGID_7_" gradientUnits="userSpaceOnUse" x1="431.8046" y1="275.8753" x2="431.8046" y2="340.9364">
			<stop  offset="0" style="stop-color:#FFFFFF;stop-opacity:0"/>
			<stop  offset="0.5084" style="stop-color:#FFFFFF"/>
			<stop  offset="1" style="stop-color:#FFFFFF;stop-opacity:0"/>
		</linearGradient>
		<path class="st9" d="M428.36,315.07c0.96,0.48,2.15,0.93,3.55,1.35c1.27,0.38,2.68,0.84,4.19,1.38c0.47,0.17,0.91,0.37,1.36,0.58
			c-0.73-1.32-1.61-2.4-2.63-3.2c-1.14-0.91-2.42-1.61-3.8-2.11c-1.51-0.54-2.92-1.01-4.19-1.38c-0.23-0.07-0.45-0.14-0.66-0.21
			c0,0.05-0.02,0.1-0.02,0.14C426.15,313.13,426.94,314.35,428.36,315.07z"/>
		<linearGradient id="SVGID_8_" gradientUnits="userSpaceOnUse" x1="227.0547" y1="275.8753" x2="227.0547" y2="340.9364">
			<stop  offset="0" style="stop-color:#FFFFFF;stop-opacity:0"/>
			<stop  offset="0.5084" style="stop-color:#FFFFFF"/>
			<stop  offset="1" style="stop-color:#FFFFFF;stop-opacity:0"/>
		</linearGradient>
		<path class="st10" d="M219.37,323.12c0.05,0,0.1,0,0.15-0.01l16.75-1.58l0.1-5.21l-18.49,1.74l-0.12,3.37
			c-0.02,0.47,0.17,0.92,0.51,1.24C218.56,322.97,218.96,323.12,219.37,323.12z"/>
		<linearGradient id="SVGID_9_" gradientUnits="userSpaceOnUse" x1="584.0591" y1="275.8753" x2="584.0591" y2="340.9364">
			<stop  offset="0" style="stop-color:#FFFFFF;stop-opacity:0"/>
			<stop  offset="0.5084" style="stop-color:#FFFFFF"/>
			<stop  offset="1" style="stop-color:#FFFFFF;stop-opacity:0"/>
		</linearGradient>
		<path class="st11" d="M580.62,315.07c0.96,0.48,2.15,0.93,3.55,1.35c1.27,0.38,2.68,0.84,4.19,1.38c0.47,0.17,0.91,0.37,1.36,0.58
			c-0.73-1.32-1.61-2.4-2.63-3.2c-1.15-0.91-2.42-1.61-3.8-2.11c-1.51-0.54-2.92-1.01-4.19-1.38c-0.23-0.07-0.45-0.14-0.66-0.21
			c0,0.05-0.02,0.1-0.02,0.14C578.41,313.13,579.19,314.35,580.62,315.07z"/>
		<linearGradient id="SVGID_10_" gradientUnits="userSpaceOnUse" x1="572.7095" y1="275.8753" x2="572.7095" y2="340.9364">
			<stop  offset="0" style="stop-color:#FFFFFF;stop-opacity:0"/>
			<stop  offset="0.5084" style="stop-color:#FFFFFF"/>
			<stop  offset="1" style="stop-color:#FFFFFF;stop-opacity:0"/>
		</linearGradient>
		<path class="st12" d="M558.04,309.13l-0.15,0.11c0.14,0.42,0.29,0.82,0.48,1.18c0.75,1.5,1.67,2.71,2.73,3.58
			c0.8,0.66,1.68,1.21,2.62,1.64c-0.09-0.17-0.19-0.33-0.28-0.5c-0.74-1.48-1.11-3.49-1.11-5.99c0-1.6,0.32-3.21,0.95-4.79
			c0.62-1.52,1.66-2.94,3.06-4.21c1.44-1.28,3.35-2.35,5.67-3.16c2.36-0.82,5.28-1.24,8.67-1.24c1.34,0,2.69,0.05,4.01,0.16
			c1.21,0.1,2.37,0.23,3.47,0.39v-3.84c-0.42-0.08-0.86-0.17-1.32-0.26c-1.05-0.19-2.18-0.38-3.4-0.57
			c-1.2-0.19-2.48-0.33-3.83-0.44c-1.32-0.11-2.67-0.16-4.01-0.16c-3.4,0-6.31,0.42-8.67,1.24c-2.32,0.81-4.24,1.87-5.67,3.16
			c-1.41,1.27-2.44,2.69-3.06,4.21c-0.63,1.57-0.95,3.18-0.95,4.79c0,1.51,0.14,2.84,0.41,3.99
			C557.79,308.65,557.92,308.88,558.04,309.13z"/>
		<linearGradient id="SVGID_11_" gradientUnits="userSpaceOnUse" x1="541.6224" y1="275.8753" x2="541.6224" y2="340.9364">
			<stop  offset="0" style="stop-color:#FFFFFF;stop-opacity:0"/>
			<stop  offset="0.5084" style="stop-color:#FFFFFF"/>
			<stop  offset="1" style="stop-color:#FFFFFF;stop-opacity:0"/>
		</linearGradient>
		<path class="st13" d="M533.64,328.42c0.04,0.55,0.36,1.04,0.84,1.31c0.8,0.44,1.78,0.72,2.99,0.85c1,0.12,1.98,0.18,2.92,0.18
			c2.79,0,5.2-0.52,7.17-1.55c0.71-0.37,1.39-0.78,2.05-1.2l-3.52-5.8c-1.11,0.84-2.32,1.6-3.61,2.28c-1.91,1-4.23,1.51-6.91,1.55
			l-1.3,0.98C533.84,327.34,533.6,327.87,533.64,328.42z"/>
		<linearGradient id="SVGID_12_" gradientUnits="userSpaceOnUse" x1="535.5014" y1="275.8753" x2="535.5014" y2="340.9364">
			<stop  offset="0" style="stop-color:#FFFFFF;stop-opacity:0"/>
			<stop  offset="0.5084" style="stop-color:#FFFFFF"/>
			<stop  offset="1" style="stop-color:#FFFFFF;stop-opacity:0"/>
		</linearGradient>
		<path class="st14" d="M540.08,307.37c-0.54-0.2-1.11-0.34-1.72-0.44c-0.1,0.17-0.24,0.32-0.4,0.44l-10.52,7.98
			c-0.06,0.47-0.11,0.94-0.11,1.42c0,1.25,0.09,2.06,0.3,2.65c0.01,0.03,0.02,0.06,0.03,0.09l0.54,1.29
			c0.19,0.46,0.59,0.81,1.07,0.94c0.14,0.04,0.28,0.06,0.42,0.06c0.07,0,0.13-0.02,0.2-0.03l13.61-10.24
			c0.08-0.17,0.14-0.34,0.17-0.53c0.05-0.44-0.08-0.88-0.36-1.22C542.35,308.61,541.26,307.8,540.08,307.37z"/>
		<linearGradient id="SVGID_13_" gradientUnits="userSpaceOnUse" x1="497.6073" y1="275.8753" x2="497.6073" y2="340.9364">
			<stop  offset="0" style="stop-color:#FFFFFF;stop-opacity:0"/>
			<stop  offset="0.5084" style="stop-color:#FFFFFF"/>
			<stop  offset="1" style="stop-color:#FFFFFF;stop-opacity:0"/>
		</linearGradient>
		<path class="st15" d="M489.11,327.12c0.11,0.8,0.8,1.39,1.61,1.39h0.17c0.79,0,1.47-0.57,1.6-1.35l5.23-31.29l8.53,0.67l1.02-4.24
			l-14.62-1.15l-4.68,27.99L489.11,327.12z"/>
		<linearGradient id="SVGID_14_" gradientUnits="userSpaceOnUse" x1="416.2838" y1="275.8753" x2="416.2838" y2="340.9364">
			<stop  offset="0" style="stop-color:#FFFFFF;stop-opacity:0"/>
			<stop  offset="0.5084" style="stop-color:#FFFFFF"/>
			<stop  offset="1" style="stop-color:#FFFFFF;stop-opacity:0"/>
		</linearGradient>
		<path class="st16" d="M410.49,329.84c0.87,0.21,1.74,0.4,2.61,0.56c1.57,0.29,3.33,0.44,5.22,0.44c0.78,0,1.62-0.01,2.49-0.04
			c0.95-0.03,1.82-0.12,2.59-0.28c0.9-0.17,1.7-0.5,2.37-0.98c0.89-0.62,1.39-1.62,1.39-2.81c0-1.46-0.78-2.64-2.21-3.33
			c-0.79-0.38-1.75-0.75-2.88-1.13c-0.07,1.07-0.55,1.97-1.37,2.54c-0.67,0.48-1.47,0.81-2.37,0.98c-0.77,0.16-1.64,0.25-2.59,0.28
			c-0.88,0.03-1.71,0.04-2.49,0.04c-1.89,0-3.65-0.15-5.22-0.44c-0.87-0.16-1.74-0.34-2.61-0.56v12.13c1.7,0.41,3.4,0.72,5.08,0.94
			V329.84z"/>
		<linearGradient id="SVGID_15_" gradientUnits="userSpaceOnUse" x1="452.1603" y1="275.8753" x2="452.1603" y2="340.9364">
			<stop  offset="0" style="stop-color:#FFFFFF;stop-opacity:0"/>
			<stop  offset="0.5084" style="stop-color:#FFFFFF"/>
			<stop  offset="1" style="stop-color:#FFFFFF;stop-opacity:0"/>
		</linearGradient>
		<polygon class="st17" points="449.63,298.61 459.67,297.8 459.77,292.66 444.55,293.89 444.55,338.48 449.63,338.05 		"/>
		<linearGradient id="SVGID_16_" gradientUnits="userSpaceOnUse" x1="452.2429" y1="275.8753" x2="452.2429" y2="340.9364">
			<stop  offset="0" style="stop-color:#FFFFFF;stop-opacity:0"/>
			<stop  offset="0.5084" style="stop-color:#FFFFFF"/>
			<stop  offset="1" style="stop-color:#FFFFFF;stop-opacity:0"/>
		</linearGradient>
		<polygon class="st18" points="449.53,277.69 459.76,277.24 460.09,272.28 444.45,272.97 444.39,284.76 449.5,284.39 		"/>
		<linearGradient id="SVGID_17_" gradientUnits="userSpaceOnUse" x1="472.662" y1="275.8753" x2="472.662" y2="340.9364">
			<stop  offset="0" style="stop-color:#FFFFFF;stop-opacity:0"/>
			<stop  offset="0.5084" style="stop-color:#FFFFFF"/>
			<stop  offset="1" style="stop-color:#FFFFFF;stop-opacity:0"/>
		</linearGradient>
		<polygon class="st19" points="470.14,297.01 480.26,296.22 479.53,291.15 465.07,292.29 475.23,338.38 479.21,338.15 		"/>
		<linearGradient id="SVGID_18_" gradientUnits="userSpaceOnUse" x1="568.5385" y1="275.8753" x2="568.5385" y2="340.9364">
			<stop  offset="0" style="stop-color:#FFFFFF;stop-opacity:0"/>
			<stop  offset="0.5084" style="stop-color:#FFFFFF"/>
			<stop  offset="1" style="stop-color:#FFFFFF;stop-opacity:0"/>
		</linearGradient>
		<path class="st20" d="M562.74,329.84c0.87,0.21,1.74,0.4,2.61,0.56c1.57,0.29,3.33,0.44,5.22,0.44c0.78,0,1.62-0.01,2.49-0.04
			c0.95-0.03,1.82-0.12,2.59-0.28c0.9-0.17,1.7-0.5,2.37-0.98c0.89-0.62,1.39-1.62,1.39-2.81c0-1.46-0.78-2.64-2.21-3.33
			c-0.79-0.38-1.75-0.75-2.88-1.13c-0.07,1.07-0.55,1.97-1.37,2.54c-0.67,0.48-1.47,0.81-2.37,0.98c-0.77,0.16-1.64,0.25-2.59,0.28
			c-0.88,0.03-1.71,0.04-2.49,0.04c-1.89,0-3.65-0.15-5.22-0.44c-0.87-0.16-1.74-0.34-2.61-0.56v12.13c1.7,0.41,3.4,0.72,5.08,0.94
			V329.84z"/>
		<linearGradient id="SVGID_19_" gradientUnits="userSpaceOnUse" x1="215.4289" y1="275.8753" x2="215.4289" y2="340.9364">
			<stop  offset="0" style="stop-color:#FFFFFF;stop-opacity:0"/>
			<stop  offset="0.5084" style="stop-color:#FFFFFF"/>
			<stop  offset="1" style="stop-color:#FFFFFF;stop-opacity:0"/>
		</linearGradient>
		<polygon class="st21" points="199.36,281.46 235.94,278.74 236.58,273.59 194.28,276.74 194.83,338.12 199.87,337.84 		"/>
		<linearGradient id="SVGID_20_" gradientUnits="userSpaceOnUse" x1="529.0638" y1="275.8753" x2="529.0638" y2="340.9364">
			<stop  offset="0" style="stop-color:#FFFFFF;stop-opacity:0"/>
			<stop  offset="0.5084" style="stop-color:#FFFFFF"/>
			<stop  offset="1" style="stop-color:#FFFFFF;stop-opacity:0"/>
		</linearGradient>
		<path class="st22" d="M515.01,329.27c-1.17-2.74-1.77-5.69-1.77-8.77c0-3.93,0.63-7.46,1.87-10.5c1.23-3.04,2.92-5.65,5.03-7.76
			c2.09-2.09,4.57-3.71,7.38-4.82c2.8-1.11,5.85-1.67,9.06-1.67c5.13,0,9.63,1.31,13.39,3.89c-1.43-1.79-3.1-3.36-5.01-4.68
			c-3.77-2.61-8.29-3.94-13.46-3.94c-3.21,0-6.26,0.56-9.06,1.67c-2.81,1.11-5.29,2.73-7.38,4.82c-1.74,1.74-3.19,3.82-4.34,6.21
			l-2.53,10.58c-0.02,0.48-0.03,0.97-0.03,1.47c0,3.08,0.6,6.03,1.77,8.77c1.19,2.75,2.86,5.19,4.96,7.24
			c0.96,0.93,2.01,1.77,3.14,2.54C516.83,332.79,515.8,331.11,515.01,329.27z"/>
		<linearGradient id="SVGID_21_" gradientUnits="userSpaceOnUse" x1="268.1062" y1="275.8753" x2="268.1062" y2="340.9364">
			<stop  offset="0" style="stop-color:#FFFFFF;stop-opacity:0"/>
			<stop  offset="0.5084" style="stop-color:#FFFFFF"/>
			<stop  offset="1" style="stop-color:#FFFFFF;stop-opacity:0"/>
		</linearGradient>
		<path class="st23" d="M268.43,329.06c-0.21-0.68-0.84-1.13-1.55-1.13h-0.17c-0.71,0-1.33,0.46-1.54,1.13l-0.17,0.53l2.69,8.55
			l3.51-0.25L268.43,329.06z"/>
		<linearGradient id="SVGID_22_" gradientUnits="userSpaceOnUse" x1="306.6393" y1="275.8753" x2="306.6393" y2="340.9364">
			<stop  offset="0" style="stop-color:#FFFFFF;stop-opacity:0"/>
			<stop  offset="0.5084" style="stop-color:#FFFFFF"/>
			<stop  offset="1" style="stop-color:#FFFFFF;stop-opacity:0"/>
		</linearGradient>
		<path class="st24" d="M293.01,328.85c-1.23-2.78-1.85-5.84-1.85-9.09c0-3.81,0.65-7.27,1.94-10.27c1.29-3.01,3.09-5.58,5.37-7.65
			c2.29-2.08,5.05-3.7,8.2-4.81c3.18-1.12,6.68-1.69,10.41-1.69c3.38,0,6.37,0.51,8.91,1.5l1.23-1.61
			c-1.61-0.95-3.49-1.91-5.62-2.84c-2.68-1.18-5.91-1.77-9.59-1.77c-3.73,0-7.23,0.57-10.41,1.69c-3.15,1.11-5.91,2.73-8.2,4.81
			c-2.28,2.07-4.08,4.64-5.37,7.65c-1.29,3-1.94,6.45-1.94,10.27c0,3.25,0.62,6.31,1.85,9.09c1.23,2.8,2.97,5.28,5.15,7.36
			c0.88,0.84,1.86,1.6,2.88,2.3C294.78,332.29,293.79,330.64,293.01,328.85z"/>
		<linearGradient id="SVGID_23_" gradientUnits="userSpaceOnUse" x1="341.0897" y1="275.8753" x2="341.0897" y2="340.9364">
			<stop  offset="0" style="stop-color:#FFFFFF;stop-opacity:0"/>
			<stop  offset="0.5084" style="stop-color:#FFFFFF"/>
			<stop  offset="1" style="stop-color:#FFFFFF;stop-opacity:0"/>
		</linearGradient>
		<polygon class="st25" points="338.43,279.71 348.77,278.88 348.82,273.75 333.36,274.99 333.91,338.48 338.94,338.05 		"/>
		<linearGradient id="SVGID_24_" gradientUnits="userSpaceOnUse" x1="420.4549" y1="275.8753" x2="420.4549" y2="340.9364">
			<stop  offset="0" style="stop-color:#FFFFFF;stop-opacity:0"/>
			<stop  offset="0.5084" style="stop-color:#FFFFFF"/>
			<stop  offset="1" style="stop-color:#FFFFFF;stop-opacity:0"/>
		</linearGradient>
		<path class="st26" d="M408.84,313.99c0.8,0.66,1.68,1.21,2.62,1.64c-0.09-0.17-0.19-0.33-0.28-0.5c-0.74-1.48-1.11-3.49-1.11-5.99
			c0-1.6,0.32-3.21,0.95-4.79c0.62-1.52,1.66-2.94,3.06-4.21c1.44-1.28,3.35-2.35,5.67-3.16c2.36-0.82,5.28-1.24,8.67-1.24
			c1.34,0,2.69,0.05,4.01,0.16c1.21,0.1,2.37,0.23,3.47,0.39v-3.84c-0.42-0.08-0.87-0.17-1.32-0.26c-1.05-0.19-2.18-0.38-3.4-0.57
			c-1.2-0.19-2.48-0.33-3.83-0.44c-1.32-0.11-2.67-0.16-4.01-0.16c-3.4,0-6.31,0.42-8.67,1.24c-2.32,0.81-4.24,1.87-5.67,3.16
			c-1.41,1.27-2.44,2.69-3.06,4.21c-0.63,1.57-0.95,3.18-0.95,4.79c0,2.5,0.37,4.51,1.11,5.99
			C406.86,311.91,407.78,313.12,408.84,313.99z"/>
		<linearGradient id="SVGID_25_" gradientUnits="userSpaceOnUse" x1="365.3371" y1="275.8753" x2="365.3371" y2="340.9364">
			<stop  offset="0" style="stop-color:#FFFFFF;stop-opacity:0"/>
			<stop  offset="0.5084" style="stop-color:#FFFFFF"/>
			<stop  offset="1" style="stop-color:#FFFFFF;stop-opacity:0"/>
		</linearGradient>
		<path class="st27" d="M362.81,330.79v-33.33l10.05-0.81l0.08-5.14l-15.21,1.23v33.33c0,4.28,1.1,7.41,3.35,9.57
			c0.94,0.9,1.99,1.59,3.16,2.11C363.28,335.88,362.81,333.59,362.81,330.79z"/>
	</g>
	<g>
		<linearGradient id="SVGID_26_" gradientUnits="userSpaceOnUse" x1="406.2804" y1="353.6833" x2="406.2804" y2="411.6751">
			<stop  offset="0" style="stop-color:#FFFFFF;stop-opacity:0"/>
			<stop  offset="0.5084" style="stop-color:#FFFFFF"/>
			<stop  offset="1" style="stop-color:#FFFFFF;stop-opacity:0"/>
		</linearGradient>
		<path class="st28" d="M396.5,383.5c-0.02,0.44,0.14,0.88,0.45,1.2c0.31,0.32,0.73,0.5,1.17,0.5h0.17c0.63,0,1.2-0.36,1.47-0.93
			l7.4-15.81l7.61,0.62l1.29-2.5l-14.78-1.2l-4.36,9.32L396.5,383.5z"/>
		<linearGradient id="SVGID_27_" gradientUnits="userSpaceOnUse" x1="449.4546" y1="353.6833" x2="449.4546" y2="411.6751">
			<stop  offset="0" style="stop-color:#FFFFFF;stop-opacity:0"/>
			<stop  offset="0.5084" style="stop-color:#FFFFFF"/>
			<stop  offset="1" style="stop-color:#FFFFFF;stop-opacity:0"/>
		</linearGradient>
		<path class="st29" d="M454.03,379.23c-0.78-0.28-1.64-0.46-2.55-0.54c0.21,0.32,0.31,0.7,0.27,1.08c-0.05,0.44-0.28,0.84-0.63,1.1
			l-9.82,7.45c0,0.11-0.01,0.21-0.01,0.32c0,1.2,0.09,2.04,0.29,2.63c0.01,0.03,0.03,0.07,0.04,0.11l0.54,1.29
			c0.19,0.46,0.59,0.81,1.07,0.94c0.14,0.04,0.28,0.06,0.42,0.06c0.35,0,0.7-0.11,0.98-0.33l12.36-9.38
			c0.35-0.27,0.58-0.67,0.63-1.1c0.05-0.44-0.08-0.88-0.36-1.22C456.3,380.47,455.21,379.66,454.03,379.23z"/>
		<linearGradient id="SVGID_28_" gradientUnits="userSpaceOnUse" x1="359.1387" y1="353.6833" x2="359.1387" y2="411.6751">
			<stop  offset="0" style="stop-color:#FFFFFF;stop-opacity:0"/>
			<stop  offset="0.5084" style="stop-color:#FFFFFF"/>
			<stop  offset="1" style="stop-color:#FFFFFF;stop-opacity:0"/>
		</linearGradient>
		<path class="st30" d="M357.34,399.83c0.76,0.19,1.54,0.28,2.32,0.28c1.7,0,3.46-0.44,5.24-1.31l0.49-0.25l-3.32-4.39l-3.05,1.56
			c-1.78,0.87-3.54,1.31-5.24,1.31c-0.31,0-0.61-0.03-0.92-0.05C354.06,398.42,355.56,399.39,357.34,399.83z"/>
		<linearGradient id="SVGID_29_" gradientUnits="userSpaceOnUse" x1="300.8441" y1="353.6833" x2="300.8441" y2="411.6751">
			<stop  offset="0" style="stop-color:#FFFFFF;stop-opacity:0"/>
			<stop  offset="0.5084" style="stop-color:#FFFFFF"/>
			<stop  offset="1" style="stop-color:#FFFFFF;stop-opacity:0"/>
		</linearGradient>
		<path class="st31" d="M300.66,399.03c0.07,0.26,0.15,0.49,0.24,0.71l0.13-0.72C300.91,399.02,300.79,399.03,300.66,399.03z"/>
		<linearGradient id="SVGID_30_" gradientUnits="userSpaceOnUse" x1="300.5816" y1="353.6833" x2="300.5816" y2="411.6751">
			<stop  offset="0" style="stop-color:#FFFFFF;stop-opacity:0"/>
			<stop  offset="0.5084" style="stop-color:#FFFFFF"/>
			<stop  offset="1" style="stop-color:#FFFFFF;stop-opacity:0"/>
		</linearGradient>
		<path class="st32" d="M300.22,367.57c0,0.45,0.19,0.88,0.53,1.19l0.2-3.37l-0.73,0.11V367.57z"/>
		<linearGradient id="SVGID_31_" gradientUnits="userSpaceOnUse" x1="531.4641" y1="353.6833" x2="531.4641" y2="411.6751">
			<stop  offset="0" style="stop-color:#FFFFFF;stop-opacity:0"/>
			<stop  offset="0.5084" style="stop-color:#FFFFFF"/>
			<stop  offset="1" style="stop-color:#FFFFFF;stop-opacity:0"/>
		</linearGradient>
		<path class="st33" d="M529.24,386.94c1.03,0.51,2.22,0.96,3.56,1.35c0.81,0.24,1.68,0.52,2.59,0.83
			c-0.16-0.14-0.31-0.29-0.47-0.42c-1.16-0.91-2.45-1.62-3.82-2.11c-1.27-0.45-2.47-0.85-3.57-1.19
			C527.91,386.02,528.48,386.55,529.24,386.94z"/>
		<linearGradient id="SVGID_32_" gradientUnits="userSpaceOnUse" x1="256.2984" y1="353.6833" x2="256.2984" y2="411.6751">
			<stop  offset="0" style="stop-color:#FFFFFF;stop-opacity:0"/>
			<stop  offset="0.5084" style="stop-color:#FFFFFF"/>
			<stop  offset="1" style="stop-color:#FFFFFF;stop-opacity:0"/>
		</linearGradient>
		<path class="st34" d="M253.28,373.19l1.51,0.21c1.57,0.33,3.27,0.71,5.04,1.14c1.48,0.32,2.89,0.76,4.23,1.33
			c0.12,0.05,0.24,0.11,0.36,0.17c-0.37-0.24-0.74-0.46-1.13-0.67c-1.75-0.97-3.48-1.84-5.11-2.58c-1.34-0.57-2.75-1.01-4.23-1.33
			c-1.77-0.43-3.46-0.81-5.04-1.14l-0.74-0.1c0.03,0.09,0.06,0.18,0.11,0.27l0.62,1.04c0.18,0.31,0.47,0.55,0.8,0.68l1.49,0.58
			c0.09,0.04,0.19,0.06,0.29,0.08L253.28,373.19z"/>
		<linearGradient id="SVGID_33_" gradientUnits="userSpaceOnUse" x1="520.555" y1="353.6833" x2="520.555" y2="411.6751">
			<stop  offset="0" style="stop-color:#FFFFFF;stop-opacity:0"/>
			<stop  offset="0.5084" style="stop-color:#FFFFFF"/>
			<stop  offset="1" style="stop-color:#FFFFFF;stop-opacity:0"/>
		</linearGradient>
		<path class="st35" d="M505.11,379.13c0.1,1.95,0.46,3.56,1.08,4.79c0.75,1.49,1.66,2.7,2.73,3.57c1.09,0.89,2.31,1.58,3.62,2.05
			c0.59,0.21,1.2,0.42,1.81,0.62c-0.87-0.83-1.65-1.88-2.28-3.16c-0.74-1.48-1.11-3.5-1.11-6c0-1.61,0.32-3.21,0.96-4.78
			c0.62-1.53,1.65-2.95,3.06-4.21c1.43-1.29,3.34-2.35,5.67-3.16c2.36-0.82,5.28-1.24,8.67-1.24c1.34,0,2.69,0.05,4.02,0.16
			c0.92,0.07,1.81,0.17,2.67,0.29v-2.1c-0.41-0.08-0.85-0.17-1.32-0.26c-1.04-0.19-2.18-0.38-3.4-0.57
			c-1.19-0.19-2.48-0.33-3.82-0.44c-1.33-0.11-2.68-0.16-4.02-0.16c-3.4,0-6.31,0.42-8.67,1.24c-2.33,0.81-4.24,1.87-5.67,3.16
			c-0.83,0.75-1.52,1.56-2.08,2.4L505.11,379.13z"/>
		<linearGradient id="SVGID_34_" gradientUnits="userSpaceOnUse" x1="454.9196" y1="353.6833" x2="454.9196" y2="411.6751">
			<stop  offset="0" style="stop-color:#FFFFFF;stop-opacity:0"/>
			<stop  offset="0.5084" style="stop-color:#FFFFFF"/>
			<stop  offset="1" style="stop-color:#FFFFFF;stop-opacity:0"/>
		</linearGradient>
		<path class="st36" d="M448.43,401.59c0.8,0.44,1.81,0.72,3.01,0.85c1.02,0.12,2,0.18,2.9,0.18c2.78,0,5.19-0.52,7.17-1.55
			c0.25-0.13,0.49-0.28,0.73-0.42l-3-4.94c-1.12,0.85-2.33,1.62-3.6,2.28c-1.98,1.03-4.39,1.55-7.17,1.55
			c-0.24,0-0.5-0.02-0.75-0.02c-0.11,0.24-0.16,0.51-0.14,0.77C447.63,400.84,447.95,401.33,448.43,401.59z"/>
		<linearGradient id="SVGID_35_" gradientUnits="userSpaceOnUse" x1="496.4987" y1="353.6833" x2="496.4987" y2="411.6751">
			<stop  offset="0" style="stop-color:#FFFFFF;stop-opacity:0"/>
			<stop  offset="0.5084" style="stop-color:#FFFFFF"/>
			<stop  offset="1" style="stop-color:#FFFFFF;stop-opacity:0"/>
		</linearGradient>
		<path class="st37" d="M491.37,368.18v7.43c0,0.9,0.73,1.62,1.62,1.62h0.17c0.75,0,1.41-0.52,1.58-1.25
			c0.91-3.9,2.96-6.29,6.31-7.34l0.89-3.63c-0.72-0.05-1.45-0.07-2.21-0.07c-3.96,0-6.79,1.06-8.65,3.26L491.37,368.18z"/>
		<linearGradient id="SVGID_36_" gradientUnits="userSpaceOnUse" x1="478.7057" y1="353.6833" x2="478.7057" y2="411.6751">
			<stop  offset="0" style="stop-color:#FFFFFF;stop-opacity:0"/>
			<stop  offset="0.5084" style="stop-color:#FFFFFF"/>
			<stop  offset="1" style="stop-color:#FFFFFF;stop-opacity:0"/>
		</linearGradient>
		<polygon class="st38" points="477.79,369.39 485.49,368.7 485.49,365.1 471.92,366.3 472.38,411.65 478.22,411.15 		"/>
		<linearGradient id="SVGID_37_" gradientUnits="userSpaceOnUse" x1="401.7363" y1="353.6833" x2="401.7363" y2="411.6751">
			<stop  offset="0" style="stop-color:#FFFFFF;stop-opacity:0"/>
			<stop  offset="0.5084" style="stop-color:#FFFFFF"/>
			<stop  offset="1" style="stop-color:#FFFFFF;stop-opacity:0"/>
		</linearGradient>
		<path class="st39" d="M399.56,395.27c-0.28-0.54-0.83-0.88-1.44-0.88h-0.17c-0.44,0-0.86,0.18-1.17,0.49
			c-0.31,0.32-0.47,0.74-0.45,1.18l0.05,1.32l7.36,14.21l3.4-1.69L399.56,395.27z"/>
		<linearGradient id="SVGID_38_" gradientUnits="userSpaceOnUse" x1="440.0212" y1="353.6833" x2="440.0212" y2="411.6751">
			<stop  offset="0" style="stop-color:#FFFFFF;stop-opacity:0"/>
			<stop  offset="0.5084" style="stop-color:#FFFFFF"/>
			<stop  offset="1" style="stop-color:#FFFFFF;stop-opacity:0"/>
		</linearGradient>
		<path class="st40" d="M433.92,408.37c-2.1-2.05-3.77-4.48-4.95-7.23c-1.18-2.74-1.78-5.69-1.78-8.77c0-3.91,0.63-7.45,1.87-10.51
			c1.24-3.04,2.93-5.65,5.03-7.76c2.09-2.09,4.57-3.71,7.37-4.82c2.81-1.11,5.86-1.67,9.06-1.67c2.95,0,5.68,0.45,8.19,1.3
			c-0.2-0.15-0.4-0.3-0.6-0.45c-3.77-2.61-8.3-3.94-13.46-3.94c-3.21,0-6.26,0.56-9.06,1.67c-2.8,1.11-5.28,2.73-7.37,4.82
			c-2.1,2.1-3.8,4.71-5.03,7.76c-1.24,3.06-1.87,6.6-1.87,10.51c0,3.08,0.6,6.03,1.78,8.77c1.18,2.75,2.85,5.19,4.95,7.23
			c2.1,2.05,4.65,3.71,7.57,4.94c0.35,0.14,0.7,0.28,1.06,0.4C435.69,409.94,434.76,409.19,433.92,408.37z"/>
		<linearGradient id="SVGID_39_" gradientUnits="userSpaceOnUse" x1="516.7617" y1="353.6833" x2="516.7617" y2="411.6751">
			<stop  offset="0" style="stop-color:#FFFFFF;stop-opacity:0"/>
			<stop  offset="0.5084" style="stop-color:#FFFFFF"/>
			<stop  offset="1" style="stop-color:#FFFFFF;stop-opacity:0"/>
		</linearGradient>
		<path class="st41" d="M511.36,401.7c0.89,0.22,1.75,0.4,2.61,0.55c1.59,0.3,3.35,0.45,5.22,0.45c0.79,0,1.62-0.01,2.5-0.04
			c0.89-0.03,1.76-0.12,2.57-0.28c0.94-0.19,1.73-0.52,2.39-0.99c0.62-0.44,1.38-1.29,1.38-2.81c0-1.46-0.78-2.65-2.21-3.32
			c-0.88-0.43-1.99-0.86-3.37-1.29c-0.26-0.08-0.51-0.17-0.77-0.25c0.3,0.52,0.47,1.12,0.47,1.78c0,1.52-0.76,2.37-1.38,2.81
			c-0.65,0.47-1.45,0.8-2.39,0.99c-0.81,0.16-1.68,0.25-2.57,0.28c-0.87,0.03-1.71,0.04-2.5,0.04c-1.87,0-3.63-0.15-5.22-0.45
			c-0.86-0.15-1.73-0.34-2.61-0.55v12.13c1.76,0.42,3.55,0.75,5.34,0.97c0.18,0.02,0.36,0.04,0.54,0.06V401.7z"/>
		<linearGradient id="SVGID_40_" gradientUnits="userSpaceOnUse" x1="384.4544" y1="353.6833" x2="384.4544" y2="411.6751">
			<stop  offset="0" style="stop-color:#FFFFFF;stop-opacity:0"/>
			<stop  offset="0.5084" style="stop-color:#FFFFFF"/>
			<stop  offset="1" style="stop-color:#FFFFFF;stop-opacity:0"/>
		</linearGradient>
		<path class="st42" d="M382.59,351.57l9.44-0.75l0.17-3.56l-15.49,1.23l0.14,23.29c0.02,0.01,0.05,0.03,0.07,0.04l-0.07,0.09
			l0.23,37.43l0.39,0.51c-0.12,0.09-0.26,0.17-0.38,0.26l0.01,1.87l5.85-0.51L382.59,351.57z"/>
		<linearGradient id="SVGID_41_" gradientUnits="userSpaceOnUse" x1="240.978" y1="353.6833" x2="240.978" y2="411.6751">
			<stop  offset="0" style="stop-color:#FFFFFF;stop-opacity:0"/>
			<stop  offset="0.5084" style="stop-color:#FFFFFF"/>
			<stop  offset="1" style="stop-color:#FFFFFF;stop-opacity:0"/>
		</linearGradient>
		<path class="st43" d="M235.04,396.85c0.42,0.18,0.88,0.39,1.36,0.6c1.21,0.55,2.52,1.05,3.89,1.51c1.36,0.45,2.81,0.86,4.29,1.2
			c1.34,0.31,2.69,0.47,3.99,0.47c0.22,0,0.45,0,0.67-0.01c2.25-0.12,4.18-0.53,5.76-1.21c2.02-0.87,3.09-2.51,3.01-4.62
			c-0.06-1.08-0.51-2.53-2.29-3.51c-1-0.54-2.16-1.07-3.48-1.58c-0.05-0.02-0.1-0.04-0.15-0.05c-0.23-0.06-0.5-0.14-0.77-0.21
			c0.58,0.77,0.78,1.59,0.81,2.27c0.08,2.11-0.99,3.75-3.01,4.62c-1.58,0.68-3.51,1.09-5.76,1.21c-0.22,0.01-0.44,0.01-0.67,0.01
			c-1.3,0-2.65-0.16-3.99-0.47c-1.49-0.34-2.93-0.75-4.29-1.2c-1.37-0.46-2.68-0.97-3.89-1.51c-0.48-0.22-0.94-0.42-1.36-0.6
			l-5.23,14.73c1.25,0.55,2.54,1.06,3.85,1.54c0.74,0.28,1.51,0.54,2.3,0.78L235.04,396.85z"/>
		<linearGradient id="SVGID_42_" gradientUnits="userSpaceOnUse" x1="350.4904" y1="353.6833" x2="350.4904" y2="411.6751">
			<stop  offset="0" style="stop-color:#FFFFFF;stop-opacity:0"/>
			<stop  offset="0.5084" style="stop-color:#FFFFFF"/>
			<stop  offset="1" style="stop-color:#FFFFFF;stop-opacity:0"/>
		</linearGradient>
		<path class="st44" d="M342.8,408.07c-2.18-2.08-3.92-4.56-5.15-7.36c-1.23-2.79-1.85-5.85-1.85-9.09c0-3.8,0.65-7.26,1.94-10.27
			c1.28-3.01,3.09-5.58,5.36-7.65c2.27-2.08,5.03-3.7,8.2-4.82c3.18-1.12,6.69-1.68,10.4-1.68c3.55,0,6.66,0.55,9.26,1.64l0.08-0.11
			c-1.61-0.96-3.5-1.91-5.63-2.84c-2.67-1.17-5.89-1.77-9.59-1.77c-3.72,0-7.22,0.57-10.4,1.68c-3.17,1.12-5.93,2.74-8.2,4.82
			c-2.27,2.06-4.08,4.64-5.36,7.65c-1.29,3.01-1.94,6.46-1.94,10.27c0,3.24,0.62,6.3,1.85,9.09c1.23,2.8,2.97,5.28,5.15,7.36
			c2.19,2.09,4.8,3.75,7.78,4.93c0.24,0.09,0.48,0.18,0.72,0.27C344.5,409.54,343.61,408.84,342.8,408.07z"/>
		<linearGradient id="SVGID_43_" gradientUnits="userSpaceOnUse" x1="247.9982" y1="353.6833" x2="247.9982" y2="411.6751">
			<stop  offset="0" style="stop-color:#FFFFFF;stop-opacity:0"/>
			<stop  offset="0.5084" style="stop-color:#FFFFFF"/>
			<stop  offset="1" style="stop-color:#FFFFFF;stop-opacity:0"/>
		</linearGradient>
		<path class="st45" d="M227.39,374.51c0.78,1.58,1.77,2.99,2.94,4.18c1.19,1.22,2.53,2.28,3.98,3.15c1.52,0.9,3.04,1.68,4.5,2.3
			c0.16,0.07,0.31,0.13,0.46,0.19c-1.1-0.75-2.13-1.6-3.06-2.56c-1.17-1.2-2.16-2.6-2.94-4.18c-0.75-1.52-1.15-3.32-1.2-5.34
			c-0.1-3.6,0.51-6.82,1.83-9.59c1.33-2.79,3.18-5.21,5.48-7.18c2.32-1.98,5.07-3.53,8.18-4.59c3.15-1.08,6.57-1.7,10.16-1.86
			c0.81-0.04,1.63-0.06,2.43-0.06c2.54,0,5.11,0.2,7.62,0.58c0.58,0.09,1.14,0.19,1.71,0.3l0.35-1.38c-2.49-0.9-5.15-1.58-7.94-2
			c-2.51-0.38-5.07-0.58-7.62-0.58c-0.8,0-1.62,0.02-2.43,0.06c-3.59,0.16-7.01,0.79-10.16,1.86c-3.11,1.06-5.86,2.61-8.18,4.59
			c-2.3,1.97-4.15,4.39-5.48,7.18c-1.32,2.76-1.94,5.99-1.83,9.59C226.23,371.2,226.64,372.99,227.39,374.51z"/>
		<linearGradient id="SVGID_44_" gradientUnits="userSpaceOnUse" x1="284.799" y1="353.6833" x2="284.799" y2="411.7108">
			<stop  offset="0" style="stop-color:#FFFFFF;stop-opacity:0"/>
			<stop  offset="0.5084" style="stop-color:#FFFFFF"/>
			<stop  offset="1" style="stop-color:#FFFFFF;stop-opacity:0"/>
		</linearGradient>
		<path class="st46" d="M285.63,401.49v-19.65c0-0.44-0.18-0.85-0.49-1.16c-0.3-0.3-0.71-0.46-1.14-0.46
			c-0.01,0-2.88,0.05-2.88,0.05l0.38-11.07h2.33c0.9,0,1.62-0.73,1.62-1.62v-4.43l8.88-4.01v-5.74l-14.75,6.66v4.43
			c0,0.9-0.73,1.62-1.62,1.62h-2.33l-0.38,11.07c0,0,2.87-0.05,2.88-0.05c0.42,0,0.83,0.17,1.14,0.46c0.31,0.3,0.49,0.72,0.49,1.16
			v19.65c0,4.89,1.29,8.41,3.84,10.48c1.43,1.16,3.21,2,5.3,2.54C286.74,409.31,285.63,405.98,285.63,401.49z"/>
		<linearGradient id="SVGID_45_" gradientUnits="userSpaceOnUse" x1="316.1428" y1="353.6833" x2="316.1428" y2="411.6751">
			<stop  offset="0" style="stop-color:#FFFFFF;stop-opacity:0"/>
			<stop  offset="0.5084" style="stop-color:#FFFFFF"/>
			<stop  offset="1" style="stop-color:#FFFFFF;stop-opacity:0"/>
		</linearGradient>
		<polygon class="st47" points="314.41,370.48 323.68,369.73 323.75,366.16 308.53,367.39 308.53,411.99 314.41,411.49 		"/>
	</g>
</g>
</svg>
