<svg width="434" height="178" viewBox="0 0 434 178" fill="none" xmlns="http://www.w3.org/2000/svg">
<path d="M75.3002 177.5C73.3202 177.5 71.2902 177.37 69.2802 177.12C66.9902 176.85 64.5702 176.41 62.1302 175.81C59.7502 175.21 57.4502 174.51 55.3102 173.71C53.3502 172.99 51.3402 172.16 49.3502 171.24C48.3302 170.76 47.4202 170.13 46.6402 169.35L31.9802 154.69C29.4102 152.12 28.5802 148.39 29.8102 144.96L36.1102 127.22C36.5302 126 37.2202 124.88 38.1102 123.94C36.5802 122.18 35.2902 120.22 34.2402 118.08C32.7902 115.12 32.0002 111.79 31.9102 108.18C31.8502 106.12 31.9702 104.11 32.2502 102.17C24.7402 102.57 24.6702 102.57 24.5802 102.57C22.1802 102.57 19.9002 101.66 18.1702 100.02L17.9802 99.84L3.29023 85.15C1.58023 83.44 0.590221 81.07 0.580221 78.65L0.000234533 14.06C-0.0197655 11.21 1.24023 8.53998 3.45023 6.72998C4.94023 5.50998 6.74023 4.78999 8.65023 4.64999C36.8702 2.55999 47.8202 1.75 52.1102 1.44C54.8102 1.24 54.8902 1.23999 55.0202 1.23999C55.0402 1.23999 55.1002 1.23999 55.1202 1.23999C57.5802 1.23999 59.9902 2.23998 61.7302 3.97998L76.5302 18.78C76.6102 18.86 76.6902 18.95 76.7602 19.05L77.3602 19.88C77.6302 19.98 77.8902 20.1 78.1502 20.23C79.4402 19.59 80.8802 19.24 82.3202 19.24C82.6302 19.24 82.6402 19.24 102.22 20.77L102.43 20.79C104.44 20.99 106.34 21.85 107.82 23.21L108.06 23.44L108.28 23.66C110.26 22.49 112.39 21.51 114.64 20.72C118.92 19.22 123.74 18.42 128.57 18.42C132.34 18.42 135.93 18.9 139.14 19.83L139.08 12.32C139.06 9.47998 140.31 6.81998 142.52 5.00998C144 3.79998 145.79 3.08 147.69 2.94C166.85 1.41 166.85 1.41 167.16 1.41C169.54 1.41 171.81 2.29999 173.54 3.92999L173.75 4.13998L188.44 18.83C188.51 18.9 188.58 18.98 188.64 19.05L188.86 19.33C191.04 19.16 191.1 19.16 191.29 19.16C193.17 19.16 194.98 19.72 196.52 20.76L196.81 20.71C196.89 20.7 196.96 20.69 197.04 20.68L211.53 19.55C216.52 19.16 216.58 19.16 216.78 19.16C219.24 19.16 221.53 20.08 223.28 21.74L223.45 21.91L223.86 22.32C225.09 21.7 226.39 21.15 227.77 20.67C231.22 19.47 235.57 18.84 240.35 18.84C241.82 18.84 243.36 18.9 244.91 19.02C246.58 19.15 248.11 19.32 249.59 19.55C249.78 19.58 249.96 19.61 250.14 19.64L250.19 10.11C250.2 7.31999 251.45 4.69999 253.61 2.92999C255.18 1.64999 257.09 0.919987 259.12 0.829987C259.12 0.829987 278.48 0 278.52 0C280.98 0 283.39 0.98998 285.12 2.72998L299.87 17.48C300.51 18.14 301.04 18.88 301.46 19.68C301.91 19.89 302.35 20.13 302.77 20.41C304.29 19.39 306.11 18.84 307.97 18.84C308.28 18.84 308.29 18.84 326.7 20.29L326.9 20.31C328.87 20.51 330.72 21.32 332.18 22.62C333.13 22.12 334.12 21.68 335.11 21.28C339.17 19.66 343.58 18.84 348.2 18.84C355.63 18.84 362.27 20.82 367.91 24.73C368.7 25.28 369.46 25.85 370.19 26.46C370.34 26.32 370.49 26.18 370.65 26.04L371.37 25.42C373.79 23.44 376.7 21.86 380.04 20.69C383.49 19.49 387.84 18.86 392.63 18.86C394.1 18.86 395.64 18.92 397.19 19.04C398.86 19.17 400.39 19.34 401.87 19.57C403.21 19.78 404.44 19.99 405.57 20.2C406.75 20.41 407.77 20.62 408.6 20.81C410.28 21.19 411.84 22.05 413.09 23.3L427.75 37.96C429.5 39.72 430.51 42.13 430.51 44.58V59.18C430.51 60.93 430.03 62.61 429.14 64.07C429.84 65.03 430.48 66.06 431.05 67.17C432.64 70.26 433.42 73.86 433.42 78.18C433.42 83.01 432.25 87.25 429.94 90.76C427.84 94 425.01 96.62 421.56 98.56C418.54 100.25 415.09 101.46 411.3 102.13C408 102.72 404.54 103.03 401.02 103.03C398.33 103.03 395.65 102.87 393.05 102.55C390.42 102.24 387.71 101.7 384.99 100.96C383.94 100.68 382.95 100.21 382.06 99.59C380.83 100.12 379.64 100.56 378.47 100.92C374.99 101.98 371.14 102.63 367 102.86L375.63 111.49C377.38 113.24 378.35 115.59 378.35 118.09V132.69C378.35 134.45 377.87 136.14 376.97 137.59C377.67 138.55 378.31 139.58 378.87 140.67C380.45 143.74 381.25 147.44 381.25 151.69C381.25 156.52 380.08 160.75 377.77 164.27C375.66 167.52 372.83 170.15 369.36 172.08C366.4 173.74 362.96 174.94 359.16 175.64C355.89 176.24 352.43 176.54 348.86 176.54C346.21 176.54 343.52 176.37 340.87 176.04C338.14 175.7 335.44 175.17 332.83 174.47C331.26 174.05 329.82 173.22 328.66 172.06L327.28 170.69C325.74 172.92 323.25 174.43 320.38 174.68L309.67 175.59C302.48 176.2 302.44 176.2 302.16 176.2C299.83 176.2 297.59 175.34 295.87 173.76L295.61 173.51L295.2 173.1C294.01 173.61 292.83 174.05 291.64 174.42C287.25 175.76 282.22 176.44 276.71 176.44C271.76 176.44 267.09 175.55 262.83 173.79C259.34 172.33 256.22 170.44 253.52 168.15L238.57 175.56C237.25 176.2 235.86 176.53 234.43 176.53C232.09 176.53 229.88 175.68 228.17 174.12C227.17 174.6 226.08 174.89 224.94 174.99C207.25 176.52 207.24 176.52 206.89 176.52C204.55 176.52 202.31 175.65 200.58 174.07L200.32 173.82C199.75 174.02 199.18 174.2 198.62 174.37C196.46 175.01 194.22 175.48 191.96 175.74C189.87 175.97 187.89 176.09 185.91 176.09C180.96 176.09 176.29 175.22 172.02 173.51C169.3 172.43 166.77 171.05 164.46 169.4C163.13 172.47 160.2 174.68 156.67 174.98C147.54 175.76 143.05 176.14 140.82 176.33C138.57 176.52 138.52 176.52 138.31 176.52C137.03 176.52 135.76 176.26 134.59 175.75C133.94 175.98 133.27 176.13 132.59 176.21C131.38 176.34 130.34 176.42 129.38 176.46C128.53 176.5 127.57 176.52 126.37 176.52C118.88 176.52 112.73 174.6 108.08 170.8C108.05 170.78 106.65 169.52 106.65 169.52C106.62 169.49 106.59 169.46 106.56 169.43L104.75 167.62C104.44 167.9 104.12 168.16 103.8 168.43L103.45 168.72C99.8902 171.52 95.7002 173.68 90.9802 175.14C86.5702 176.52 81.7902 177.31 76.7902 177.5C76.7302 177.48 75.3102 177.5 75.3002 177.5Z" fill="#FEA501"/>
<path d="M368.13 169.91C371.25 168.18 373.8 165.81 375.69 162.9C377.73 159.78 378.77 156 378.77 151.65C378.77 147.79 378.06 144.46 376.66 141.75C375.86 140.2 374.91 138.8 373.81 137.57C375.13 136.28 375.86 134.53 375.86 132.66V118.06C375.86 116.17 375.11 114.44 373.85 113.18L361.08 100.41C361.88 100.46 362.68 100.49 363.49 100.49C368.71 100.49 373.49 99.84 377.7 98.56C379.2 98.1 380.76 97.49 382.4 96.71L382.51 96.82C383.34 97.65 384.38 98.26 385.56 98.58C388.15 99.28 390.75 99.79 393.29 100.1C395.8 100.41 398.39 100.57 400.96 100.57C404.34 100.57 407.65 100.28 410.81 99.71C414.32 99.08 417.52 97.98 420.31 96.41C423.43 94.66 425.97 92.29 427.85 89.4C429.89 86.28 430.93 82.5 430.93 78.15C430.93 74.23 430.25 71 428.84 68.26C428.02 66.69 427.07 65.28 425.99 64.06C427.3 62.76 428.03 61.02 428.03 59.15V44.55C428.03 42.67 427.25 40.92 425.98 39.65L411.32 24.99C410.43 24.1 409.29 23.44 408.01 23.15C407.21 22.97 406.24 22.77 405.07 22.56C403.96 22.35 402.75 22.15 401.44 21.94C400.02 21.72 398.54 21.55 396.95 21.43C395.49 21.32 394.01 21.25 392.58 21.25C388.06 21.25 383.99 21.84 380.8 22.94C377.73 24.01 375.08 25.45 372.91 27.22L372.23 27.81C371.53 28.43 370.89 29.09 370.3 29.81C369.11 28.67 367.84 27.63 366.49 26.69C361.26 23.07 355.09 21.23 348.17 21.23C343.86 21.23 339.75 22 335.97 23.5C334.51 24.07 333.1 24.77 331.75 25.58L330.83 24.66C329.71 23.54 328.24 22.84 326.67 22.68L326.49 22.66C308.17 21.22 308.14 21.22 307.95 21.22C306.3 21.22 304.78 21.79 303.59 22.77L302.77 23.56L302.47 23.26C301.68 22.47 300.71 21.87 299.63 21.53C299.3 20.64 298.78 19.83 298.11 19.14L298.04 19.07L283.45 4.47998L283.38 4.41C282.1 3.13 280.32 2.38998 278.5 2.38998L259.21 3.22C257.66 3.29 256.25 3.86 255.13 4.78C253.59 6.04 252.61 7.96 252.6 10.09L252.54 22.49C251.51 22.3 250.39 22.12 249.19 21.92C247.77 21.7 246.29 21.53 244.7 21.41C243.24 21.3 241.76 21.23 240.33 21.23C235.81 21.23 231.74 21.82 228.55 22.92C226.68 23.57 224.96 24.36 223.41 25.28L221.74 23.61L221.58 23.45C220.29 22.22 218.6 21.54 216.81 21.54H216.79C216.67 21.54 216.32 21.56 211.69 21.92C208.82 22.14 204.31 22.49 197.2 23.05L195.85 23.29C194.59 22.16 192.97 21.54 191.26 21.54C191.15 21.54 191.09 21.54 187.72 21.81L186.7 20.5L172.04 5.84L171.85 5.66C170.57 4.46 168.89 3.79999 167.13 3.79999C166.94 3.79999 166.91 3.79998 147.84 5.31998C146.4 5.42998 145.08 5.98998 144.03 6.84998C142.46 8.13998 141.46 10.1 141.48 12.26L141.57 23.25C137.89 21.66 133.39 20.82 128.54 20.82C123.96 20.82 119.43 21.57 115.41 22.98C112.7 23.93 110.18 25.18 107.9 26.71L106.83 25.64L106.34 25.15L106.14 24.95C105.05 23.95 103.67 23.31 102.19 23.16L101.99 23.14C82.5104 21.62 82.4705 21.62 82.2805 21.62C80.7305 21.62 79.2805 22.14 78.1005 23.03C77.4205 22.51 76.6404 22.12 75.8004 21.88L74.7404 20.43L74.6205 20.31L60.0804 5.76999L59.9604 5.64999C58.6704 4.35999 56.9004 3.63 55.0704 3.63H55.0405C54.9505 3.63 54.6204 3.64999 52.2404 3.82999C47.9504 4.13999 37.0005 4.94998 8.78046 7.03998C7.32046 7.14998 6.00044 7.70999 4.94044 8.57999C3.36044 9.86999 2.37045 11.83 2.38045 14.01L2.96045 78.6C2.97045 80.4 3.70045 82.14 4.96045 83.4L5.13045 83.57L19.6205 98.06L19.7904 98.23C21.0704 99.44 22.7505 100.11 24.5305 100.11C24.6205 100.11 29.1404 99.87 35.1904 99.54C34.5104 102.22 34.2104 105.08 34.2904 108.09C34.3704 111.35 35.0705 114.34 36.3705 116.98C37.5405 119.38 39.0604 121.52 40.8604 123.37L41.0605 123.58L41.6705 124.19L40.4805 124.97C39.5105 125.77 38.7605 126.82 38.3405 128.01L32.0404 145.75C31.1204 148.33 31.8005 151.1 33.6405 152.94L48.3004 167.6C48.8604 168.16 49.5405 168.64 50.3105 169C52.1405 169.84 54.0904 170.66 56.1004 171.4C58.2104 172.18 60.4004 172.85 62.6604 173.42C64.9304 173.98 67.2305 174.41 69.5305 174.68C71.4905 174.92 73.4005 175.04 75.2505 175.04L76.5905 175.03C81.3805 174.85 85.9505 174.09 90.1505 172.78C94.5805 171.41 98.5105 169.4 101.82 166.79L102.16 166.52C103.04 165.8 103.88 165.02 104.68 164.18L108.18 167.68L109.52 168.88C113.72 172.31 119.37 174.05 126.28 174.05C127.32 174.05 128.28 174.04 129.19 174C130.15 173.96 131.14 173.88 132.21 173.76C133.06 173.66 133.86 173.4 134.59 173.02C135.68 173.69 136.93 174.05 138.21 174.05C138.31 174.05 138.37 174.05 140.52 173.87C142.75 173.68 147.24 173.3 156.37 172.52C159.91 172.22 162.63 169.32 162.7 165.77L162.71 164.89C165.61 167.56 169.01 169.7 172.83 171.21C176.81 172.81 181.18 173.62 185.81 173.62C187.67 173.62 189.58 173.51 191.57 173.29C193.69 173.04 195.79 172.61 197.82 172C198.83 171.7 199.83 171.35 200.83 170.95L201.89 172.01L202.12 172.23C203.4 173.4 205.06 174.04 206.78 174.04C206.99 174.04 207.03 174.04 224.62 172.51C226.06 172.39 227.35 171.84 228.4 170.98L229.44 172.02C230.71 173.29 232.45 174.03 234.32 174.03C235.39 174.03 236.42 173.79 237.38 173.31L253.81 165.16C256.59 167.78 259.9 169.89 263.66 171.46C267.62 173.09 271.98 173.92 276.62 173.92C281.89 173.92 286.68 173.28 290.83 172.01C292.39 171.53 293.98 170.9 295.64 170.11L297.2 171.67L297.41 171.87C298.69 173.03 300.34 173.67 302.07 173.67C302.22 173.67 302.28 173.67 309.37 173.07C311.92 172.85 315.38 172.56 320.07 172.16C323.33 171.88 325.86 169.43 326.31 166.29L330.27 170.25C331.11 171.09 332.16 171.71 333.36 172.03C335.85 172.7 338.44 173.21 341.06 173.54C343.6 173.86 346.2 174.02 348.75 174.02C352.16 174.02 355.49 173.73 358.61 173.16C362.21 172.56 365.39 171.45 368.13 169.91Z" fill="#4F39D7"/>
<path d="M85.6501 116.33C84.1901 114.89 82.5501 113.68 80.7601 112.68C78.9601 111.68 77.2101 110.8 75.4901 110.03C74.0501 109.42 72.5601 108.95 71.0101 108.62C69.1901 108.18 67.4701 107.79 65.8701 107.46L64.3801 107.25L62.6001 106.92L61.1101 106.34L60.4901 105.3C60.5501 104.3 60.9901 103.53 61.8201 102.98C62.6501 102.43 63.6301 102.03 64.7601 101.78C65.8901 101.53 67.0401 101.41 68.2001 101.41C69.4201 101.41 70.3801 101.47 71.1001 101.58C73.5301 101.91 75.6601 102.4 77.4901 103.03C79.3101 103.67 81.3301 104.45 83.5401 105.39L88.4301 86.23C85.4401 85.01 82.2401 84.14 78.8101 83.62C75.3801 83.09 71.9301 82.92 68.4401 83.08C64.6801 83.25 61.1401 83.9 57.8201 85.03C54.5001 86.16 51.6001 87.79 49.1101 89.92C46.6201 92.05 44.6601 94.62 43.2201 97.63C41.7801 100.64 41.1201 104.08 41.2301 107.95C41.2901 110.22 41.7401 112.22 42.6001 113.96C43.4601 115.7 44.5301 117.24 45.8301 118.56C47.1301 119.89 48.5701 121.02 50.1401 121.97C51.7201 122.9 53.2801 123.7 54.8301 124.37C56.3801 125.03 57.8301 125.56 59.1801 125.95C60.5301 126.34 61.6301 126.64 62.4601 126.87C63.7301 127.36 64.8201 127.86 65.7401 128.36C66.6501 128.86 67.1401 129.58 67.1901 130.52C67.2501 131.96 66.5701 132.98 65.1601 133.59C63.7501 134.2 62.0201 134.56 59.9801 134.67C58.6001 134.73 57.1901 134.59 55.7501 134.26C54.3101 133.93 52.9301 133.54 51.6001 133.1C50.2701 132.66 49.0301 132.17 47.8701 131.65C46.7101 131.12 45.7101 130.7 44.8801 130.36L38.5801 148.11C40.2401 148.88 42.0101 149.62 43.8901 150.31C45.7701 151.01 47.7001 151.6 49.7001 152.09C51.6901 152.59 53.7101 152.96 55.7501 153.21C57.8001 153.46 59.7901 153.56 61.7201 153.5C65.9201 153.34 69.8501 152.68 73.5001 151.55C77.1501 150.42 80.2901 148.81 82.9101 146.75C85.5401 144.67 87.5701 142.13 89.0101 139.11C90.4501 136.1 91.0801 132.63 90.9201 128.7C90.8101 125.94 90.2701 123.54 89.3001 121.53C88.3301 119.52 87.1201 117.77 85.6501 116.33Z" fill="#2B9FE0"/>
<path d="M116.71 136.16C115.05 136.16 113.99 135.88 113.52 135.32C113.05 134.77 112.82 133.66 112.82 132V117.49H118.46L119.37 102.23L112.65 103.23V89.63L94.65 97.76V103.23H90.75L90.25 117.58L94.81 117.5V137.15C94.81 142.57 96.29 146.49 99.25 148.88C102.21 151.28 106.34 152.49 111.65 152.49C112.59 152.49 113.46 152.48 114.26 152.44C115.06 152.41 115.91 152.34 116.79 152.24L119.69 135.82L118.45 136.07C118.01 136.13 117.43 136.16 116.71 136.16Z" fill="#2B9FE0"/>
<path d="M123.43 98.75L141.51 97.42L142.5 82.83L123.51 83.66L123.43 98.75Z" fill="#2B9FE0"/>
<path d="M123.59 152.49L141.17 150.99L142.09 103.14L123.59 104.64V152.49Z" fill="#2B9FE0"/>
<path d="M175.01 133C172.74 134.11 170.59 134.41 168.54 133.91C166.49 133.41 164.92 132.06 163.81 129.85C163.26 128.79 162.97 127.76 162.94 126.74C162.91 125.72 163.11 124.76 163.52 123.88C163.93 123 164.52 122.17 165.26 121.43C166.01 120.68 166.9 120.03 167.95 119.48C168.56 119.15 169.35 118.95 170.31 118.9C171.27 118.85 172.29 118.9 173.34 119.07C174.39 119.24 175.43 119.51 176.45 119.89C177.47 120.28 178.37 120.78 179.15 121.39L190.1 107.04C188.11 105.71 185.66 104.41 182.76 103.14C179.86 101.86 176.44 101.23 172.52 101.23C168.59 101.23 164.95 101.82 161.57 103.01C158.2 104.21 155.28 105.91 152.82 108.16C150.36 110.39 148.44 113.13 147.06 116.37C145.68 119.6 144.99 123.24 144.99 127.28C144.99 130.76 145.65 134.01 146.98 137.02C148.31 140.03 150.15 142.66 152.49 144.9C154.84 147.14 157.6 148.89 160.78 150.17C163.96 151.44 167.43 152.08 171.19 152.08C172.79 152.08 174.45 151.98 176.17 151.79C177.88 151.6 179.57 151.25 181.23 150.75C182.89 150.25 184.51 149.6 186.08 148.8C187.66 148 189.13 146.99 190.52 145.77L179.24 130.84L175.01 133Z" fill="#2B9FE0"/>
<path d="M235.3 103.89L216.97 102.4L209.09 119.23H208.93L210.59 84.24L191.76 85.73L192.17 152.5L209.42 151L208.76 131.67H208.93L219.71 152.5L236.96 143.95L224.52 124.79L235.3 103.89Z" fill="#2B9FE0"/>
<path d="M275.73 105.88C271.67 103.06 266.87 101.65 261.34 101.65C257.91 101.65 254.69 102.24 251.68 103.43C248.67 104.63 246.03 106.35 243.76 108.61C241.49 110.87 239.7 113.64 238.37 116.9C237.04 120.17 236.38 123.87 236.38 128.02C236.38 131.33 237.02 134.47 238.29 137.43C239.56 140.39 241.33 142.98 243.6 145.18C245.87 147.39 248.56 149.15 251.69 150.45C254.81 151.74 258.26 152.39 262.01 152.39C266.6 152.39 270.66 151.85 274.2 150.78C277.74 149.7 281.19 147.95 284.57 145.51L276.36 131.99C274.92 133.27 273.33 134.36 271.59 135.27C269.85 136.18 267.71 136.64 265.16 136.64C264.33 136.64 263.42 136.58 262.42 136.47C261.42 136.37 260.62 136.15 260.01 135.81L284.81 117.14C282.82 112.46 279.79 108.7 275.73 105.88ZM254.45 127.7L253.91 126.41C253.77 126 253.7 125.29 253.7 124.3C253.7 123.24 253.88 122.23 254.24 121.22C254.6 120.23 255.11 119.33 255.77 118.52C256.43 117.73 257.22 117.08 258.13 116.61C259.04 116.15 260.05 115.91 261.16 115.91C262.32 115.91 263.36 116.08 264.27 116.41C265.18 116.74 266.03 117.38 266.8 118.32L254.45 127.7Z" fill="#2B9FE0"/>
<path d="M316.4 102.07C309.54 102.07 305.4 105.14 303.96 111.28H303.79V102.07L286.96 103.56L287.46 152.16L304.88 150.67V129.36C304.88 126.1 305.72 123.71 307.41 122.19C309.1 120.67 311.1 119.91 313.42 119.91H315.08L316.32 119.99L320.63 102.33C319.3 102.15 317.89 102.07 316.4 102.07Z" fill="#2B9FE0"/>
<path d="M352.6 126.16C351.3 125.14 349.88 124.36 348.33 123.8C346.78 123.25 345.36 122.78 344.06 122.39C342.76 122.01 341.67 121.59 340.78 121.15C339.9 120.7 339.45 120.04 339.45 119.16L340.28 117.83C340.83 117.5 341.47 117.26 342.19 117.13C342.91 116.99 343.63 116.91 344.35 116.88C345.07 116.85 345.59 116.84 345.93 116.84C347.48 116.84 348.92 116.95 350.24 117.17C351.57 117.39 352.92 117.67 354.3 118V103.4C353.58 103.23 352.7 103.06 351.65 102.86C350.6 102.67 349.45 102.48 348.21 102.28C346.97 102.09 345.65 101.93 344.27 101.82C342.89 101.71 341.51 101.65 340.12 101.65C336.53 101.65 333.46 102.09 330.91 102.98C328.37 103.86 326.29 105.03 324.69 106.46C323.09 107.9 321.93 109.5 321.21 111.27C320.49 113.04 320.13 114.84 320.13 116.66C320.13 119.43 320.56 121.67 321.42 123.38C322.28 125.09 323.33 126.46 324.57 127.49C325.81 128.51 327.18 129.28 328.68 129.81C330.17 130.34 331.54 130.78 332.79 131.18C334.03 131.57 335.08 131.96 335.94 132.38C336.8 132.79 337.23 133.41 337.23 134.24C337.23 134.91 337 135.4 336.53 135.73C336.06 136.07 335.48 136.3 334.79 136.44C334.1 136.57 333.33 136.66 332.47 136.69C331.61 136.72 330.8 136.73 330.02 136.73C328.25 136.73 326.61 136.59 325.09 136.31C323.57 136.04 322.06 135.67 320.57 135.24V150.75C322.84 151.36 325.09 151.79 327.33 152.07C329.57 152.35 331.85 152.49 334.17 152.49C337.16 152.49 340.03 152.24 342.79 151.74C345.55 151.24 348 150.41 350.13 149.21C352.26 148.02 353.97 146.44 355.27 144.45C356.57 142.46 357.22 139.96 357.22 136.99C357.22 134.22 356.78 131.98 355.89 130.27C354.99 128.56 353.9 127.19 352.6 126.16Z" fill="#2B9FE0"/>
<path d="M54.7001 53.28L30.9701 55.52L31.1401 50.96L44.9901 49.88L46.7301 35.37L31.6401 36.45L31.7201 32.46L52.5301 31.55L55.1101 10.57L9.33008 13.97L9.91008 78.57L54.2801 76.17L54.7001 53.28Z" fill="#FEA501"/>
<path d="M64.9702 52.86L53.9502 77.16L73.5102 78.57L78.3202 63.56H78.4902L83.2102 78.57L103.12 77.16L91.5902 52.86L101.47 30.06L82.3002 28.57L78.4902 42.5H78.3202L73.9302 28.57L54.6902 30.06L64.9702 52.86Z" fill="#FEA501"/>
<path d="M103.13 63.52C104.46 66.53 106.3 69.16 108.64 71.4C110.98 73.64 113.75 75.39 116.93 76.67C120.11 77.94 123.58 78.58 127.34 78.58C128.94 78.58 130.6 78.48 132.31 78.29C134.02 78.1 135.72 77.75 137.38 77.25C139.04 76.75 140.65 76.1 142.23 75.3C143.81 74.5 145.28 73.49 146.67 72.27L135.39 57.34L131.15 59.5C128.88 60.61 126.73 60.91 124.69 60.41C122.64 59.91 121.06 58.56 119.96 56.35C119.41 55.3 119.12 54.26 119.09 53.24C119.06 52.22 119.26 51.26 119.67 50.38C120.09 49.5 120.67 48.68 121.41 47.93C122.16 47.18 123.06 46.53 124.11 45.98C124.72 45.65 125.51 45.45 126.47 45.4C127.43 45.34 128.45 45.4 129.49 45.57C130.55 45.74 131.58 46.01 132.6 46.4C133.63 46.79 134.53 47.28 135.3 47.89L146.25 33.54C144.26 32.21 141.81 30.91 138.91 29.64C136.01 28.37 132.59 27.73 128.67 27.73C124.74 27.73 121.09 28.32 117.72 29.51C114.35 30.7 111.43 32.41 108.97 34.65C106.51 36.89 104.59 39.63 103.21 42.86C101.82 46.09 101.14 49.73 101.14 53.77C101.13 57.26 101.79 60.51 103.13 63.52Z" fill="#FEA501"/>
<path d="M166.4 77.5L167.14 10.74L148.4 12.23L148.98 78.99L166.4 77.5Z" fill="#FEA501"/>
<path d="M186.71 79.24C189.86 79.24 192.61 78.6 194.97 77.33C197.31 76.06 199.04 73.9 200.15 70.86H200.31V78.49L215.57 77.83L216.82 28.49L197.74 29.98L198.24 59.25C198.3 60.58 197.98 61.52 197.29 62.07C196.59 62.62 195.69 62.9 194.59 62.9C193.26 62.9 192.28 62.61 191.65 62.03C191.01 61.45 190.72 60.5 190.78 59.17L191.28 28.49L172.79 29.98V64.81C172.79 69.51 174.07 73.09 176.64 75.55C179.21 78.01 182.57 79.24 186.71 79.24Z" fill="#FEA501"/>
<path d="M224.49 53.98C225.73 55 227.1 55.78 228.59 56.3C230.08 56.83 231.46 57.28 232.7 57.67C233.94 58.06 234.99 58.46 235.84 58.87C236.7 59.28 237.13 59.91 237.13 60.74C237.13 61.4 236.9 61.9 236.42 62.23C235.96 62.56 235.38 62.8 234.68 62.94C234 63.08 233.21 63.16 232.36 63.19C231.5 63.22 230.69 63.23 229.92 63.23C228.15 63.23 226.51 63.1 224.99 62.82C223.46 62.54 221.96 62.18 220.47 61.74V77.25C222.74 77.86 224.99 78.3 227.23 78.58C229.46 78.86 231.75 78.99 234.06 78.99C237.05 78.99 239.92 78.74 242.69 78.24C245.45 77.74 247.89 76.91 250.03 75.71C252.16 74.52 253.87 72.93 255.17 70.94C256.47 68.95 257.11 66.46 257.11 63.48C257.11 60.72 256.67 58.48 255.79 56.76C254.91 55.05 253.81 53.68 252.51 52.65C251.22 51.63 249.79 50.84 248.25 50.29C246.7 49.74 245.28 49.27 243.98 48.88C242.68 48.49 241.58 48.08 240.7 47.64C239.82 47.2 239.38 46.53 239.38 45.65L240.21 44.32C240.76 43.99 241.4 43.75 242.12 43.62C242.84 43.48 243.56 43.4 244.28 43.37C245 43.34 245.52 43.33 245.86 43.33C247.4 43.33 248.85 43.44 250.17 43.66C251.5 43.88 252.84 44.16 254.23 44.49V29.89C253.52 29.72 252.63 29.55 251.58 29.35C250.52 29.16 249.38 28.97 248.14 28.77C246.9 28.58 245.58 28.42 244.19 28.31C242.81 28.2 241.43 28.14 240.05 28.14C236.45 28.14 233.39 28.58 230.84 29.47C228.3 30.35 226.22 31.52 224.61 32.95C223.01 34.39 221.85 35.99 221.13 37.76C220.42 39.53 220.06 41.33 220.06 43.15C220.06 45.91 220.49 48.15 221.35 49.87C222.2 51.59 223.25 52.96 224.49 53.98Z" fill="#FEA501"/>
<path d="M259.61 78.99L277.19 77.49L278.1 29.64L259.61 31.14V78.99Z" fill="#FEA501"/>
<path d="M278.51 9.32999L259.52 10.15L259.44 25.25L277.52 23.92L278.51 9.32999Z" fill="#FEA501"/>
<path d="M314.5 77.41L325.96 29.56L307.96 28.15L302.49 60.91H302.32L297.59 28.15L279.76 29.56L290.62 78.82L314.5 77.41Z" fill="#FEA501"/>
<path d="M362.56 32.38C358.5 29.56 353.71 28.15 348.18 28.15C344.75 28.15 341.52 28.74 338.52 29.93C335.5 31.13 332.86 32.85 330.59 35.11C328.32 37.38 326.53 40.14 325.21 43.4C323.88 46.67 323.22 50.37 323.22 54.51C323.22 57.83 323.86 60.96 325.12 63.92C326.4 66.88 328.17 69.46 330.43 71.67C332.7 73.88 335.39 75.64 338.52 76.94C341.64 78.24 345.09 78.9 348.84 78.9C353.43 78.9 357.49 78.35 361.02 77.28C364.56 76.2 368.01 74.45 371.39 72.01L363.19 58.49C361.75 59.77 360.16 60.85 358.41 61.77C356.67 62.68 354.53 63.14 351.99 63.14C351.16 63.14 350.25 63.09 349.25 62.97C348.26 62.86 347.46 62.64 346.85 62.31L371.65 43.65C369.66 38.96 366.63 35.2 362.56 32.38ZM341.3 54.19L340.76 52.9C340.61 52.49 340.55 51.78 340.55 50.79C340.55 49.74 340.73 48.72 341.09 47.72C341.44 46.72 341.96 45.83 342.62 45.02C343.29 44.23 344.07 43.58 344.98 43.11C345.9 42.65 346.9 42.41 348.01 42.41C349.17 42.41 350.21 42.58 351.12 42.91C352.03 43.24 352.88 43.88 353.65 44.82L341.3 54.19Z" fill="#FEA501"/>
<path d="M408.05 56.76C407.17 55.05 406.07 53.68 404.77 52.65C403.48 51.63 402.05 50.84 400.51 50.29C398.96 49.74 397.54 49.27 396.24 48.88C394.94 48.49 393.84 48.08 392.96 47.64C392.08 47.2 391.64 46.53 391.64 45.65L392.47 44.32C393.02 43.99 393.66 43.75 394.38 43.62C395.1 43.48 395.82 43.4 396.54 43.37C397.26 43.34 397.78 43.33 398.12 43.33C399.66 43.33 401.11 43.44 402.43 43.66C403.76 43.88 405.1 44.16 406.49 44.49V29.89C405.78 29.72 404.89 29.55 403.84 29.35C402.78 29.16 401.64 28.97 400.4 28.77C399.16 28.58 397.84 28.42 396.45 28.31C395.07 28.2 393.69 28.14 392.31 28.14C388.71 28.14 385.65 28.58 383.1 29.47C380.56 30.35 378.48 31.52 376.87 32.95C375.27 34.39 374.11 35.99 373.39 37.76C372.68 39.53 372.32 41.33 372.32 43.15C372.32 45.91 372.75 48.15 373.61 49.87C374.47 51.58 375.52 52.95 376.76 53.98C378 55 379.37 55.78 380.86 56.3C382.35 56.83 383.73 57.28 384.97 57.67C386.21 58.06 387.26 58.46 388.11 58.87C388.97 59.28 389.4 59.91 389.4 60.74C389.4 61.4 389.17 61.9 388.69 62.23C388.23 62.56 387.65 62.8 386.95 62.94C386.27 63.08 385.48 63.16 384.63 63.19C383.77 63.22 382.96 63.23 382.19 63.23C380.42 63.23 378.78 63.1 377.26 62.82C375.73 62.54 374.23 62.18 372.74 61.74V77.25C375.01 77.86 377.26 78.3 379.5 78.58C381.73 78.86 384.02 78.99 386.33 78.99C389.32 78.99 392.19 78.74 394.96 78.24C397.72 77.74 400.16 76.91 402.3 75.71C404.43 74.52 406.14 72.93 407.44 70.94C408.74 68.95 409.38 66.46 409.38 63.48C409.37 60.71 408.94 58.48 408.05 56.76Z" fill="#FEA501"/>
<path d="M205.39 73.96H205.23C204.55 73.96 203.94 74.39 203.71 75.02C203.48 75.64 203.23 76.22 202.95 76.75L207.02 76.57V75.58C207.01 74.69 206.29 73.96 205.39 73.96Z" fill="url(#paint0_linear_39_1216)"/>
<path d="M138.901 64.68L134.911 59.4L131.861 60.95C130.081 61.82 128.321 62.26 126.621 62.26C125.841 62.26 125.061 62.17 124.301 61.98C124.051 61.92 123.801 61.84 123.561 61.76C123.571 61.78 123.581 61.8 123.591 61.82C124.901 64.44 126.851 66.09 129.381 66.7C130.141 66.88 130.921 66.98 131.701 66.98C133.401 66.98 135.161 66.54 136.941 65.67L138.901 64.68Z" fill="url(#paint1_linear_39_1216)"/>
<path d="M35.5902 42.34C35.8902 42.63 36.2902 42.79 36.7102 42.79C36.7502 42.79 36.7902 42.79 36.8302 42.79L44.2802 42.26L44.8902 37.13L35.1602 37.82L35.0902 41.13C35.0802 41.59 35.2602 42.03 35.5902 42.34Z" fill="url(#paint2_linear_39_1216)"/>
<path d="M194.23 64.5C194.28 65.98 194.75 67.15 195.63 67.95C196.57 68.81 197.93 69.24 199.67 69.24C201.14 69.24 202.39 68.84 203.38 68.06C204.5 67.16 205.02 65.76 204.94 63.9L204.47 36.19L215.03 35.36L215.16 30.23L199.39 31.46L199.86 59.17C199.94 61.03 199.42 62.43 198.3 63.33C197.31 64.11 196.06 64.51 194.59 64.51C194.46 64.52 194.35 64.5 194.23 64.5Z" fill="url(#paint3_linear_39_1216)"/>
<path d="M66.4506 52.2C66.6406 52.63 66.6406 53.11 66.4506 53.54L57.8906 72.41L57.8306 75.82L63.3806 76.22L71.5306 58.26C71.7206 57.84 71.7206 57.35 71.5306 56.92L62.2006 36.22L74.3506 35.28L72.7706 30.29L57.1206 31.5L66.4506 52.2Z" fill="url(#paint4_linear_39_1216)"/>
<path d="M81.8507 47.71C82.0607 48.39 82.6907 48.84 83.4007 48.84H83.5707C84.3007 48.84 84.9407 48.35 85.1307 47.65L88.5907 35.01L97.2607 35.69L99.0707 31.5L83.5107 30.29L80.1807 42.44L81.8507 47.71Z" fill="url(#paint5_linear_39_1216)"/>
<path d="M245.04 53.81C246 54.29 247.19 54.74 248.59 55.16C249.86 55.54 251.27 56 252.78 56.54C253.25 56.71 253.69 56.91 254.14 57.12C253.41 55.8 252.53 54.72 251.51 53.92C250.37 53.01 249.09 52.31 247.71 51.81C246.2 51.27 244.79 50.8 243.52 50.43C243.29 50.36 243.07 50.29 242.86 50.22C242.86 50.27 242.84 50.32 242.84 50.36C242.83 51.87 243.62 53.09 245.04 53.81Z" fill="url(#paint6_linear_39_1216)"/>
<path d="M36.0504 61.86C36.1004 61.86 36.1504 61.86 36.2004 61.85L52.9504 60.27L53.0504 55.06L34.5604 56.8L34.4404 60.17C34.4204 60.64 34.6104 61.09 34.9504 61.41C35.2404 61.71 35.6404 61.86 36.0504 61.86Z" fill="url(#paint7_linear_39_1216)"/>
<path d="M397.3 53.81C398.26 54.29 399.45 54.74 400.85 55.16C402.12 55.54 403.53 56 405.04 56.54C405.51 56.71 405.95 56.91 406.4 57.12C405.67 55.8 404.79 54.72 403.77 53.92C402.62 53.01 401.35 52.31 399.97 51.81C398.46 51.27 397.05 50.8 395.78 50.43C395.55 50.36 395.33 50.29 395.12 50.22C395.12 50.27 395.1 50.32 395.1 50.36C395.09 51.87 395.87 53.09 397.3 53.81Z" fill="url(#paint8_linear_39_1216)"/>
<path d="M374.721 47.87L374.571 47.98C374.711 48.4 374.861 48.8 375.051 49.16C375.801 50.66 376.721 51.87 377.781 52.74C378.581 53.4 379.461 53.95 380.401 54.38C380.311 54.21 380.211 54.05 380.121 53.88C379.381 52.4 379.011 50.39 379.011 47.89C379.011 46.29 379.331 44.68 379.961 43.1C380.581 41.58 381.621 40.16 383.021 38.89C384.461 37.61 386.371 36.54 388.691 35.73C391.051 34.91 393.971 34.49 397.361 34.49C398.701 34.49 400.051 34.54 401.371 34.65C402.581 34.75 403.741 34.88 404.841 35.04V31.2C404.421 31.12 403.981 31.03 403.521 30.94C402.471 30.75 401.341 30.56 400.121 30.37C398.921 30.18 397.641 30.04 396.291 29.93C394.971 29.82 393.621 29.77 392.281 29.77C388.881 29.77 385.971 30.19 383.611 31.01C381.291 31.82 379.371 32.88 377.941 34.17C376.531 35.44 375.501 36.86 374.881 38.38C374.251 39.95 373.931 41.56 373.931 43.17C373.931 44.68 374.071 46.01 374.341 47.16C374.471 47.39 374.601 47.62 374.721 47.87Z" fill="url(#paint9_linear_39_1216)"/>
<path d="M350.32 67.16C350.36 67.71 350.68 68.2 351.16 68.47C351.96 68.91 352.94 69.19 354.15 69.32C355.15 69.44 356.13 69.5 357.07 69.5C359.86 69.5 362.27 68.98 364.24 67.95C364.95 67.58 365.63 67.17 366.29 66.75L362.77 60.95C361.66 61.79 360.45 62.55 359.16 63.23C357.25 64.23 354.93 64.74 352.25 64.78L350.95 65.76C350.52 66.08 350.28 66.61 350.32 67.16Z" fill="url(#paint10_linear_39_1216)"/>
<path d="M356.76 46.11C356.22 45.91 355.65 45.77 355.04 45.67C354.94 45.84 354.8 45.99 354.64 46.11L344.12 54.09C344.06 54.56 344.01 55.03 344.01 55.51C344.01 56.76 344.1 57.57 344.31 58.16C344.32 58.19 344.33 58.22 344.34 58.25L344.88 59.54C345.07 60 345.47 60.35 345.95 60.48C346.09 60.52 346.23 60.54 346.37 60.54C346.44 60.54 346.5 60.52 346.57 60.51L360.18 50.27C360.26 50.1 360.32 49.93 360.35 49.74C360.4 49.3 360.27 48.86 359.99 48.52C359.03 47.35 357.94 46.54 356.76 46.11Z" fill="url(#paint11_linear_39_1216)"/>
<path d="M305.79 65.86C305.9 66.66 306.59 67.25 307.4 67.25H307.57C308.36 67.25 309.04 66.68 309.17 65.9L314.4 34.61L322.93 35.28L323.95 31.04L309.33 29.89L304.65 57.88L305.79 65.86Z" fill="url(#paint12_linear_39_1216)"/>
<path d="M227.171 68.58C228.041 68.79 228.911 68.98 229.781 69.14C231.351 69.43 233.111 69.58 235.001 69.58C235.781 69.58 236.621 69.57 237.491 69.54C238.441 69.51 239.311 69.42 240.081 69.26C240.981 69.09 241.781 68.76 242.451 68.28C243.341 67.66 243.841 66.66 243.841 65.47C243.841 64.01 243.061 62.83 241.631 62.14C240.841 61.76 239.881 61.39 238.751 61.01C238.681 62.08 238.201 62.98 237.381 63.55C236.711 64.03 235.911 64.36 235.011 64.53C234.241 64.69 233.371 64.78 232.421 64.81C231.541 64.84 230.711 64.85 229.931 64.85C228.041 64.85 226.281 64.7 224.711 64.41C223.841 64.25 222.971 64.07 222.101 63.85V75.98C223.801 76.39 225.501 76.7 227.181 76.92V68.58H227.171Z" fill="url(#paint13_linear_39_1216)"/>
<path d="M266.31 37.35L276.35 36.54L276.45 31.4L261.23 32.63V77.22L266.31 76.79V37.35Z" fill="url(#paint14_linear_39_1216)"/>
<path d="M266.21 16.43L276.44 15.98L276.77 11.02L261.13 11.71L261.07 23.5L266.18 23.13L266.21 16.43Z" fill="url(#paint15_linear_39_1216)"/>
<path d="M286.82 35.75L296.94 34.96L296.21 29.89L281.75 31.03L291.91 77.12L295.89 76.89L286.82 35.75Z" fill="url(#paint16_linear_39_1216)"/>
<path d="M379.421 68.58C380.291 68.79 381.161 68.98 382.031 69.14C383.601 69.43 385.361 69.58 387.251 69.58C388.031 69.58 388.871 69.57 389.741 69.54C390.691 69.51 391.561 69.42 392.331 69.26C393.231 69.09 394.031 68.76 394.701 68.28C395.591 67.66 396.091 66.66 396.091 65.47C396.091 64.01 395.311 62.83 393.881 62.14C393.091 61.76 392.131 61.39 391.001 61.01C390.931 62.08 390.451 62.98 389.631 63.55C388.961 64.03 388.161 64.36 387.261 64.53C386.491 64.69 385.621 64.78 384.671 64.81C383.791 64.84 382.961 64.85 382.181 64.85C380.291 64.85 378.531 64.7 376.961 64.41C376.091 64.25 375.221 64.07 374.351 63.85V75.98C376.051 76.39 377.751 76.7 379.431 76.92V68.58H379.421Z" fill="url(#paint17_linear_39_1216)"/>
<path d="M16.0405 20.2L52.6205 17.48L53.2605 12.33L10.9604 15.48L11.5105 76.86L16.5504 76.58L16.0405 20.2Z" fill="url(#paint18_linear_39_1216)"/>
<path d="M331.69 68.01C330.52 65.27 329.92 62.32 329.92 59.24C329.92 55.31 330.55 51.78 331.79 48.74C333.02 45.7 334.71 43.09 336.82 40.98C338.91 38.89 341.39 37.27 344.2 36.16C347 35.05 350.05 34.49 353.26 34.49C358.39 34.49 362.89 35.8 366.65 38.38C365.22 36.59 363.55 35.02 361.64 33.7C357.87 31.09 353.35 29.76 348.18 29.76C344.97 29.76 341.92 30.32 339.12 31.43C336.31 32.54 333.83 34.16 331.74 36.25C330 37.99 328.55 40.07 327.4 42.46L324.87 53.04C324.85 53.52 324.84 54.01 324.84 54.51C324.84 57.59 325.44 60.54 326.61 63.28C327.8 66.03 329.47 68.47 331.57 70.52C332.53 71.45 333.58 72.29 334.71 73.06C333.51 71.53 332.48 69.85 331.69 68.01Z" fill="url(#paint19_linear_39_1216)"/>
<path d="M85.1107 67.8C84.9007 67.12 84.2707 66.67 83.5607 66.67H83.3907C82.6807 66.67 82.0607 67.13 81.8507 67.8L81.6807 68.33L84.3707 76.88L87.8807 76.63L85.1107 67.8Z" fill="url(#paint20_linear_39_1216)"/>
<path d="M109.691 67.59C108.461 64.81 107.841 61.75 107.841 58.5C107.841 54.69 108.491 51.23 109.781 48.23C111.071 45.22 112.871 42.65 115.151 40.58C117.441 38.5 120.201 36.88 123.351 35.77C126.531 34.65 130.03 34.08 133.76 34.08C137.14 34.08 140.131 34.59 142.671 35.58L143.901 33.97C142.291 33.02 140.411 32.06 138.281 31.13C135.601 29.95 132.371 29.36 128.691 29.36C124.961 29.36 121.461 29.93 118.281 31.05C115.131 32.16 112.371 33.78 110.081 35.86C107.801 37.93 106.001 40.5 104.711 43.51C103.421 46.51 102.771 49.96 102.771 53.78C102.771 57.03 103.391 60.09 104.621 62.87C105.851 65.67 107.591 68.15 109.771 70.23C110.651 71.07 111.631 71.83 112.651 72.53C111.461 71.03 110.471 69.38 109.691 67.59Z" fill="url(#paint21_linear_39_1216)"/>
<path d="M155.111 18.45L165.451 17.62L165.501 12.49L150.041 13.73L150.591 77.22L155.621 76.79L155.111 18.45Z" fill="url(#paint22_linear_39_1216)"/>
<path d="M225.52 52.73C226.32 53.39 227.2 53.94 228.14 54.37C228.05 54.2 227.95 54.04 227.86 53.87C227.12 52.39 226.75 50.38 226.75 47.88C226.75 46.28 227.07 44.67 227.7 43.09C228.32 41.57 229.36 40.15 230.76 38.88C232.2 37.6 234.11 36.53 236.43 35.72C238.79 34.9 241.71 34.48 245.1 34.48C246.44 34.48 247.79 34.53 249.11 34.64C250.32 34.74 251.48 34.87 252.58 35.03V31.19C252.16 31.11 251.71 31.02 251.26 30.93C250.21 30.74 249.08 30.55 247.86 30.36C246.66 30.17 245.38 30.03 244.03 29.92C242.71 29.81 241.36 29.76 240.02 29.76C236.62 29.76 233.71 30.18 231.35 31C229.03 31.81 227.11 32.87 225.68 34.16C224.27 35.43 223.24 36.85 222.62 38.37C221.99 39.94 221.67 41.55 221.67 43.16C221.67 45.66 222.04 47.67 222.78 49.15C223.54 50.65 224.46 51.86 225.52 52.73Z" fill="url(#paint23_linear_39_1216)"/>
<path d="M179.491 69.53V36.2L189.541 35.39L189.621 30.25L174.411 31.48V64.81C174.411 69.09 175.511 72.22 177.761 74.38C178.701 75.28 179.751 75.97 180.921 76.49C179.961 74.62 179.491 72.33 179.491 69.53Z" fill="url(#paint24_linear_39_1216)"/>
<path d="M213.18 122.24C213.16 122.68 213.32 123.12 213.63 123.44C213.94 123.76 214.36 123.94 214.8 123.94H214.97C215.6 123.94 216.17 123.58 216.44 123.01L223.84 107.2L231.45 107.82L232.74 105.32L217.96 104.12L213.6 113.44L213.18 122.24Z" fill="url(#paint25_linear_39_1216)"/>
<path d="M270.71 117.97C269.93 117.69 269.07 117.51 268.16 117.43C268.37 117.75 268.47 118.13 268.43 118.51C268.38 118.95 268.15 119.35 267.8 119.61L257.98 127.06C257.98 127.17 257.97 127.27 257.97 127.38C257.97 128.58 258.06 129.42 258.26 130.01C258.27 130.04 258.29 130.08 258.3 130.12L258.84 131.41C259.03 131.87 259.43 132.22 259.91 132.35C260.05 132.39 260.19 132.41 260.33 132.41C260.68 132.41 261.03 132.3 261.31 132.08L273.67 122.7C274.02 122.43 274.25 122.03 274.3 121.6C274.35 121.16 274.22 120.72 273.94 120.38C272.98 119.21 271.89 118.4 270.71 117.97Z" fill="url(#paint26_linear_39_1216)"/>
<path d="M174.021 138.57C174.781 138.76 175.561 138.85 176.341 138.85C178.041 138.85 179.801 138.41 181.581 137.54L182.071 137.29L178.751 132.9L175.701 134.46C173.921 135.33 172.161 135.77 170.461 135.77C170.151 135.77 169.851 135.74 169.541 135.72C170.741 137.16 172.241 138.13 174.021 138.57Z" fill="url(#paint27_linear_39_1216)"/>
<path d="M117.34 137.77C117.41 138.03 117.49 138.26 117.58 138.48L117.71 137.76C117.59 137.76 117.47 137.77 117.34 137.77Z" fill="url(#paint28_linear_39_1216)"/>
<path d="M116.9 106.31C116.9 106.76 117.09 107.19 117.43 107.5L117.63 104.13L116.9 104.24V106.31Z" fill="url(#paint29_linear_39_1216)"/>
<path d="M345.92 125.68C346.95 126.19 348.14 126.64 349.48 127.03C350.29 127.27 351.16 127.55 352.07 127.86C351.91 127.72 351.76 127.57 351.6 127.44C350.44 126.53 349.15 125.82 347.78 125.33C346.51 124.88 345.31 124.48 344.21 124.14C344.59 124.76 345.16 125.29 345.92 125.68Z" fill="url(#paint30_linear_39_1216)"/>
<path d="M69.9606 111.93L71.4706 112.14C73.0406 112.47 74.7406 112.85 76.5106 113.28C77.9906 113.6 79.4006 114.04 80.7406 114.61C80.8606 114.66 80.9806 114.72 81.1006 114.78C80.7306 114.54 80.3606 114.32 79.9706 114.11C78.2206 113.14 76.4906 112.27 74.8606 111.53C73.5206 110.96 72.1106 110.52 70.6306 110.2C68.8606 109.77 67.1706 109.39 65.5906 109.06L64.8506 108.96C64.8806 109.05 64.9106 109.14 64.9606 109.23L65.5806 110.27C65.7606 110.58 66.0506 110.82 66.3806 110.95L67.8706 111.53C67.9606 111.57 68.0606 111.59 68.1606 111.61L69.9606 111.93Z" fill="url(#paint31_linear_39_1216)"/>
<path d="M321.791 117.87C321.891 119.82 322.251 121.43 322.871 122.66C323.621 124.15 324.531 125.36 325.601 126.23C326.691 127.12 327.911 127.81 329.221 128.28C329.811 128.49 330.421 128.7 331.031 128.9C330.161 128.07 329.381 127.02 328.751 125.74C328.011 124.26 327.641 122.24 327.641 119.74C327.641 118.13 327.961 116.53 328.601 114.96C329.221 113.43 330.251 112.01 331.661 110.75C333.091 109.46 335.001 108.4 337.331 107.59C339.691 106.77 342.611 106.35 346.001 106.35C347.341 106.35 348.691 106.4 350.021 106.51C350.941 106.58 351.831 106.68 352.691 106.8V104.7C352.281 104.62 351.841 104.53 351.371 104.44C350.331 104.25 349.191 104.06 347.971 103.87C346.781 103.68 345.491 103.54 344.151 103.43C342.821 103.32 341.471 103.27 340.131 103.27C336.731 103.27 333.821 103.69 331.461 104.51C329.131 105.32 327.221 106.38 325.791 107.67C324.961 108.42 324.271 109.23 323.711 110.07L321.791 117.87Z" fill="url(#paint32_linear_39_1216)"/>
<path d="M265.11 140.33C265.91 140.77 266.92 141.05 268.12 141.18C269.14 141.3 270.12 141.36 271.02 141.36C273.8 141.36 276.21 140.84 278.19 139.81C278.44 139.68 278.68 139.53 278.92 139.39L275.92 134.45C274.8 135.3 273.59 136.07 272.32 136.73C270.34 137.76 267.93 138.28 265.15 138.28C264.91 138.28 264.65 138.26 264.4 138.26C264.29 138.5 264.24 138.77 264.26 139.03C264.31 139.58 264.63 140.07 265.11 140.33Z" fill="url(#paint33_linear_39_1216)"/>
<path d="M308.05 106.92V114.35C308.05 115.25 308.78 115.97 309.67 115.97H309.84C310.59 115.97 311.25 115.45 311.42 114.72C312.33 110.82 314.38 108.43 317.73 107.38L318.62 103.75C317.9 103.7 317.17 103.68 316.41 103.68C312.45 103.68 309.62 104.74 307.76 106.94L308.05 106.92Z" fill="url(#paint34_linear_39_1216)"/>
<path d="M294.471 108.13L302.171 107.44V103.84L288.601 105.04L289.061 150.39L294.901 149.89L294.471 108.13Z" fill="url(#paint35_linear_39_1216)"/>
<path d="M216.24 134.01C215.96 133.47 215.41 133.13 214.8 133.13H214.63C214.19 133.13 213.77 133.31 213.46 133.62C213.15 133.94 212.99 134.36 213.01 134.8L213.06 136.12L220.42 150.33L223.82 148.64L216.24 134.01Z" fill="url(#paint36_linear_39_1216)"/>
<path d="M250.6 147.11C248.5 145.06 246.83 142.63 245.65 139.88C244.47 137.14 243.87 134.19 243.87 131.11C243.87 127.2 244.5 123.66 245.74 120.6C246.98 117.56 248.67 114.95 250.77 112.84C252.86 110.75 255.34 109.13 258.14 108.02C260.95 106.91 264 106.35 267.2 106.35C270.15 106.35 272.88 106.8 275.39 107.65C275.19 107.5 274.99 107.35 274.79 107.2C271.02 104.59 266.49 103.26 261.33 103.26C258.12 103.26 255.07 103.82 252.27 104.93C249.47 106.04 246.99 107.66 244.9 109.75C242.8 111.85 241.1 114.46 239.87 117.51C238.63 120.57 238 124.11 238 128.02C238 131.1 238.6 134.05 239.78 136.79C240.96 139.54 242.63 141.98 244.73 144.02C246.83 146.07 249.38 147.73 252.3 148.96C252.65 149.1 253 149.24 253.36 149.36C252.37 148.68 251.44 147.93 250.6 147.11Z" fill="url(#paint37_linear_39_1216)"/>
<path d="M328.04 140.44C328.93 140.66 329.79 140.84 330.65 140.99C332.24 141.29 334 141.44 335.87 141.44C336.66 141.44 337.49 141.43 338.37 141.4C339.26 141.37 340.13 141.28 340.94 141.12C341.88 140.93 342.67 140.6 343.33 140.13C343.95 139.69 344.71 138.84 344.71 137.32C344.71 135.86 343.93 134.67 342.5 134C341.62 133.57 340.51 133.14 339.13 132.71C338.87 132.63 338.62 132.54 338.36 132.46C338.66 132.98 338.83 133.58 338.83 134.24C338.83 135.76 338.07 136.61 337.45 137.05C336.8 137.52 336 137.85 335.06 138.04C334.25 138.2 333.38 138.29 332.49 138.32C331.62 138.35 330.78 138.36 329.99 138.36C328.12 138.36 326.36 138.21 324.77 137.91C323.91 137.76 323.04 137.57 322.16 137.36V149.49C323.92 149.91 325.71 150.24 327.5 150.46C327.68 150.48 327.86 150.5 328.04 150.52V140.44Z" fill="url(#paint38_linear_39_1216)"/>
<path d="M199.27 90.31L208.71 89.56L208.88 86L193.39 87.23L193.53 110.52C193.55 110.53 193.58 110.55 193.6 110.56L193.53 110.65L193.76 148.08L194.15 148.59C194.03 148.68 193.89 148.76 193.77 148.85L193.78 150.72L199.63 150.21L199.27 90.31Z" fill="url(#paint39_linear_39_1216)"/>
<path d="M51.7204 135.59C52.1404 135.77 52.6004 135.98 53.0804 136.19C54.2904 136.74 55.6004 137.24 56.9704 137.7C58.3304 138.15 59.7804 138.56 61.2604 138.9C62.6004 139.21 63.9504 139.37 65.2504 139.37C65.4704 139.37 65.7004 139.37 65.9204 139.36C68.1704 139.24 70.1004 138.83 71.6804 138.15C73.7004 137.28 74.7704 135.64 74.6904 133.53C74.6304 132.45 74.1804 131 72.4004 130.02C71.4004 129.48 70.2404 128.95 68.9204 128.44C68.8704 128.42 68.8204 128.4 68.7704 128.39C68.5404 128.33 68.2704 128.25 68.0004 128.18C68.5804 128.95 68.7804 129.77 68.8104 130.45C68.8904 132.56 67.8204 134.2 65.8004 135.07C64.2204 135.75 62.2904 136.16 60.0404 136.28C59.8204 136.29 59.6004 136.29 59.3704 136.29C58.0704 136.29 56.7204 136.13 55.3804 135.82C53.8904 135.48 52.4504 135.07 51.0904 134.62C49.7204 134.16 48.4104 133.65 47.2004 133.11C46.7204 132.89 46.2604 132.69 45.8404 132.51L40.6104 147.24C41.8604 147.79 43.1504 148.3 44.4604 148.78C45.2004 149.06 45.9704 149.32 46.7604 149.56L51.7204 135.59Z" fill="url(#paint40_linear_39_1216)"/>
<path d="M159.481 146.81C157.301 144.73 155.561 142.25 154.331 139.45C153.101 136.66 152.481 133.6 152.481 130.36C152.481 126.56 153.131 123.1 154.421 120.09C155.701 117.08 157.511 114.51 159.781 112.44C162.051 110.36 164.811 108.74 167.981 107.62C171.161 106.5 174.671 105.94 178.381 105.94C181.931 105.94 185.041 106.49 187.641 107.58L187.721 107.47C186.111 106.51 184.221 105.56 182.091 104.63C179.421 103.46 176.201 102.86 172.501 102.86C168.781 102.86 165.281 103.43 162.101 104.54C158.931 105.66 156.171 107.28 153.901 109.36C151.631 111.42 149.821 114 148.541 117.01C147.251 120.02 146.601 123.47 146.601 127.28C146.601 130.52 147.221 133.58 148.451 136.37C149.681 139.17 151.421 141.65 153.601 143.73C155.791 145.82 158.401 147.48 161.381 148.66C161.621 148.75 161.861 148.84 162.101 148.93C161.181 148.28 160.291 147.58 159.481 146.81Z" fill="url(#paint41_linear_39_1216)"/>
<path d="M44.0704 113.25C44.8504 114.83 45.8404 116.24 47.0104 117.43C48.2004 118.65 49.5403 119.71 50.9903 120.58C52.5103 121.48 54.0303 122.26 55.4903 122.88C55.6503 122.95 55.8004 123.01 55.9504 123.07C54.8504 122.32 53.8204 121.47 52.8904 120.51C51.7204 119.31 50.7304 117.91 49.9504 116.33C49.2004 114.81 48.8004 113.01 48.7504 110.99C48.6504 107.39 49.2603 104.17 50.5803 101.4C51.9103 98.61 53.7604 96.19 56.0604 94.22C58.3804 92.24 61.1303 90.69 64.2403 89.63C67.3903 88.55 70.8104 87.93 74.4004 87.77C75.2104 87.73 76.0303 87.71 76.8303 87.71C79.3703 87.71 81.9403 87.91 84.4503 88.29C85.0303 88.38 85.5904 88.48 86.1604 88.59L86.5103 87.21C84.0203 86.31 81.3604 85.63 78.5704 85.21C76.0604 84.83 73.5004 84.63 70.9504 84.63C70.1504 84.63 69.3303 84.65 68.5203 84.69C64.9303 84.85 61.5103 85.48 58.3603 86.55C55.2503 87.61 52.5004 89.16 50.1804 91.14C47.8804 93.11 46.0304 95.53 44.7004 98.32C43.3804 101.08 42.7604 104.31 42.8704 107.91C42.9104 109.94 43.3204 111.73 44.0704 113.25Z" fill="url(#paint42_linear_39_1216)"/>
<path d="M102.31 140.23V120.58C102.31 120.14 102.13 119.73 101.82 119.42C101.52 119.12 101.11 118.96 100.68 118.96C100.67 118.96 97.8002 119.01 97.8002 119.01L98.1802 107.94H100.51C101.41 107.94 102.13 107.21 102.13 106.32V101.89L111.01 97.88V92.14L96.2602 98.8V103.23C96.2602 104.13 95.5302 104.85 94.6402 104.85H92.3102L91.9302 115.92C91.9302 115.92 94.8002 115.87 94.8102 115.87C95.2302 115.87 95.6402 116.04 95.9502 116.33C96.2602 116.63 96.4402 117.05 96.4402 117.49V137.14C96.4402 142.03 97.7302 145.55 100.28 147.62C101.71 148.78 103.49 149.62 105.58 150.16C103.42 148.05 102.31 144.72 102.31 140.23Z" fill="url(#paint43_linear_39_1216)"/>
<path d="M131.09 109.22L140.36 108.47L140.43 104.9L125.21 106.13V150.73L131.09 150.23V109.22Z" fill="url(#paint44_linear_39_1216)"/>
<defs>
<linearGradient id="paint0_linear_39_1216" x1="204.979" y1="14.6151" x2="204.979" y2="79.6764" gradientUnits="userSpaceOnUse">
<stop stop-color="white" stop-opacity="0"/>
<stop offset="0.5084" stop-color="white"/>
<stop offset="1" stop-color="white" stop-opacity="0"/>
</linearGradient>
<linearGradient id="paint1_linear_39_1216" x1="131.232" y1="14.6154" x2="131.232" y2="79.6764" gradientUnits="userSpaceOnUse">
<stop stop-color="white" stop-opacity="0"/>
<stop offset="0.5084" stop-color="white"/>
<stop offset="1" stop-color="white" stop-opacity="0"/>
</linearGradient>
<linearGradient id="paint2_linear_39_1216" x1="39.9883" y1="14.6154" x2="39.9883" y2="79.6762" gradientUnits="userSpaceOnUse">
<stop stop-color="white" stop-opacity="0"/>
<stop offset="0.5084" stop-color="white"/>
<stop offset="1" stop-color="white" stop-opacity="0"/>
</linearGradient>
<linearGradient id="paint3_linear_39_1216" x1="204.694" y1="14.6153" x2="204.694" y2="79.6764" gradientUnits="userSpaceOnUse">
<stop stop-color="white" stop-opacity="0"/>
<stop offset="0.5084" stop-color="white"/>
<stop offset="1" stop-color="white" stop-opacity="0"/>
</linearGradient>
<linearGradient id="paint4_linear_39_1216" x1="65.7288" y1="14.6153" x2="65.7288" y2="79.6764" gradientUnits="userSpaceOnUse">
<stop stop-color="white" stop-opacity="0"/>
<stop offset="0.5084" stop-color="white"/>
<stop offset="1" stop-color="white" stop-opacity="0"/>
</linearGradient>
<linearGradient id="paint5_linear_39_1216" x1="89.6315" y1="14.6153" x2="89.6315" y2="79.6764" gradientUnits="userSpaceOnUse">
<stop stop-color="white" stop-opacity="0"/>
<stop offset="0.5084" stop-color="white"/>
<stop offset="1" stop-color="white" stop-opacity="0"/>
</linearGradient>
<linearGradient id="paint6_linear_39_1216" x1="248.485" y1="14.6153" x2="248.485" y2="79.6764" gradientUnits="userSpaceOnUse">
<stop stop-color="white" stop-opacity="0"/>
<stop offset="0.5084" stop-color="white"/>
<stop offset="1" stop-color="white" stop-opacity="0"/>
</linearGradient>
<linearGradient id="paint7_linear_39_1216" x1="43.7351" y1="14.6154" x2="43.7351" y2="79.6764" gradientUnits="userSpaceOnUse">
<stop stop-color="white" stop-opacity="0"/>
<stop offset="0.5084" stop-color="white"/>
<stop offset="1" stop-color="white" stop-opacity="0"/>
</linearGradient>
<linearGradient id="paint8_linear_39_1216" x1="400.739" y1="14.6153" x2="400.739" y2="79.6764" gradientUnits="userSpaceOnUse">
<stop stop-color="white" stop-opacity="0"/>
<stop offset="0.5084" stop-color="white"/>
<stop offset="1" stop-color="white" stop-opacity="0"/>
</linearGradient>
<linearGradient id="paint9_linear_39_1216" x1="389.39" y1="14.6153" x2="389.39" y2="79.6764" gradientUnits="userSpaceOnUse">
<stop stop-color="white" stop-opacity="0"/>
<stop offset="0.5084" stop-color="white"/>
<stop offset="1" stop-color="white" stop-opacity="0"/>
</linearGradient>
<linearGradient id="paint10_linear_39_1216" x1="358.303" y1="14.6152" x2="358.303" y2="79.6764" gradientUnits="userSpaceOnUse">
<stop stop-color="white" stop-opacity="0"/>
<stop offset="0.5084" stop-color="white"/>
<stop offset="1" stop-color="white" stop-opacity="0"/>
</linearGradient>
<linearGradient id="paint11_linear_39_1216" x1="352.182" y1="14.6153" x2="352.182" y2="79.6764" gradientUnits="userSpaceOnUse">
<stop stop-color="white" stop-opacity="0"/>
<stop offset="0.5084" stop-color="white"/>
<stop offset="1" stop-color="white" stop-opacity="0"/>
</linearGradient>
<linearGradient id="paint12_linear_39_1216" x1="314.288" y1="14.6153" x2="314.288" y2="79.6764" gradientUnits="userSpaceOnUse">
<stop stop-color="white" stop-opacity="0"/>
<stop offset="0.5084" stop-color="white"/>
<stop offset="1" stop-color="white" stop-opacity="0"/>
</linearGradient>
<linearGradient id="paint13_linear_39_1216" x1="232.964" y1="14.6153" x2="232.964" y2="79.6764" gradientUnits="userSpaceOnUse">
<stop stop-color="white" stop-opacity="0"/>
<stop offset="0.5084" stop-color="white"/>
<stop offset="1" stop-color="white" stop-opacity="0"/>
</linearGradient>
<linearGradient id="paint14_linear_39_1216" x1="268.841" y1="14.6153" x2="268.841" y2="79.6764" gradientUnits="userSpaceOnUse">
<stop stop-color="white" stop-opacity="0"/>
<stop offset="0.5084" stop-color="white"/>
<stop offset="1" stop-color="white" stop-opacity="0"/>
</linearGradient>
<linearGradient id="paint15_linear_39_1216" x1="268.923" y1="14.6153" x2="268.923" y2="79.6765" gradientUnits="userSpaceOnUse">
<stop stop-color="white" stop-opacity="0"/>
<stop offset="0.5084" stop-color="white"/>
<stop offset="1" stop-color="white" stop-opacity="0"/>
</linearGradient>
<linearGradient id="paint16_linear_39_1216" x1="289.342" y1="14.6153" x2="289.342" y2="79.6764" gradientUnits="userSpaceOnUse">
<stop stop-color="white" stop-opacity="0"/>
<stop offset="0.5084" stop-color="white"/>
<stop offset="1" stop-color="white" stop-opacity="0"/>
</linearGradient>
<linearGradient id="paint17_linear_39_1216" x1="385.219" y1="14.6153" x2="385.219" y2="79.6764" gradientUnits="userSpaceOnUse">
<stop stop-color="white" stop-opacity="0"/>
<stop offset="0.5084" stop-color="white"/>
<stop offset="1" stop-color="white" stop-opacity="0"/>
</linearGradient>
<linearGradient id="paint18_linear_39_1216" x1="32.1094" y1="14.6153" x2="32.1094" y2="79.6764" gradientUnits="userSpaceOnUse">
<stop stop-color="white" stop-opacity="0"/>
<stop offset="0.5084" stop-color="white"/>
<stop offset="1" stop-color="white" stop-opacity="0"/>
</linearGradient>
<linearGradient id="paint19_linear_39_1216" x1="345.744" y1="14.6153" x2="345.744" y2="79.6764" gradientUnits="userSpaceOnUse">
<stop stop-color="white" stop-opacity="0"/>
<stop offset="0.5084" stop-color="white"/>
<stop offset="1" stop-color="white" stop-opacity="0"/>
</linearGradient>
<linearGradient id="paint20_linear_39_1216" x1="84.7869" y1="14.6152" x2="84.7869" y2="79.6764" gradientUnits="userSpaceOnUse">
<stop stop-color="white" stop-opacity="0"/>
<stop offset="0.5084" stop-color="white"/>
<stop offset="1" stop-color="white" stop-opacity="0"/>
</linearGradient>
<linearGradient id="paint21_linear_39_1216" x1="123.32" y1="14.6153" x2="123.32" y2="79.6764" gradientUnits="userSpaceOnUse">
<stop stop-color="white" stop-opacity="0"/>
<stop offset="0.5084" stop-color="white"/>
<stop offset="1" stop-color="white" stop-opacity="0"/>
</linearGradient>
<linearGradient id="paint22_linear_39_1216" x1="157.77" y1="14.6153" x2="157.77" y2="79.6764" gradientUnits="userSpaceOnUse">
<stop stop-color="white" stop-opacity="0"/>
<stop offset="0.5084" stop-color="white"/>
<stop offset="1" stop-color="white" stop-opacity="0"/>
</linearGradient>
<linearGradient id="paint23_linear_39_1216" x1="237.135" y1="14.6153" x2="237.135" y2="79.6764" gradientUnits="userSpaceOnUse">
<stop stop-color="white" stop-opacity="0"/>
<stop offset="0.5084" stop-color="white"/>
<stop offset="1" stop-color="white" stop-opacity="0"/>
</linearGradient>
<linearGradient id="paint24_linear_39_1216" x1="182.018" y1="14.6153" x2="182.018" y2="79.6764" gradientUnits="userSpaceOnUse">
<stop stop-color="white" stop-opacity="0"/>
<stop offset="0.5084" stop-color="white"/>
<stop offset="1" stop-color="white" stop-opacity="0"/>
</linearGradient>
<linearGradient id="paint25_linear_39_1216" x1="222.961" y1="92.4233" x2="222.961" y2="150.415" gradientUnits="userSpaceOnUse">
<stop stop-color="white" stop-opacity="0"/>
<stop offset="0.5084" stop-color="white"/>
<stop offset="1" stop-color="white" stop-opacity="0"/>
</linearGradient>
<linearGradient id="paint26_linear_39_1216" x1="266.135" y1="92.4233" x2="266.135" y2="150.415" gradientUnits="userSpaceOnUse">
<stop stop-color="white" stop-opacity="0"/>
<stop offset="0.5084" stop-color="white"/>
<stop offset="1" stop-color="white" stop-opacity="0"/>
</linearGradient>
<linearGradient id="paint27_linear_39_1216" x1="175.819" y1="92.4234" x2="175.819" y2="150.415" gradientUnits="userSpaceOnUse">
<stop stop-color="white" stop-opacity="0"/>
<stop offset="0.5084" stop-color="white"/>
<stop offset="1" stop-color="white" stop-opacity="0"/>
</linearGradient>
<linearGradient id="paint28_linear_39_1216" x1="117.524" y1="92.4232" x2="117.524" y2="150.415" gradientUnits="userSpaceOnUse">
<stop stop-color="white" stop-opacity="0"/>
<stop offset="0.5084" stop-color="white"/>
<stop offset="1" stop-color="white" stop-opacity="0"/>
</linearGradient>
<linearGradient id="paint29_linear_39_1216" x1="117.262" y1="92.4233" x2="117.262" y2="150.415" gradientUnits="userSpaceOnUse">
<stop stop-color="white" stop-opacity="0"/>
<stop offset="0.5084" stop-color="white"/>
<stop offset="1" stop-color="white" stop-opacity="0"/>
</linearGradient>
<linearGradient id="paint30_linear_39_1216" x1="348.145" y1="92.4233" x2="348.145" y2="150.415" gradientUnits="userSpaceOnUse">
<stop stop-color="white" stop-opacity="0"/>
<stop offset="0.5084" stop-color="white"/>
<stop offset="1" stop-color="white" stop-opacity="0"/>
</linearGradient>
<linearGradient id="paint31_linear_39_1216" x1="72.979" y1="92.4233" x2="72.979" y2="150.415" gradientUnits="userSpaceOnUse">
<stop stop-color="white" stop-opacity="0"/>
<stop offset="0.5084" stop-color="white"/>
<stop offset="1" stop-color="white" stop-opacity="0"/>
</linearGradient>
<linearGradient id="paint32_linear_39_1216" x1="337.236" y1="92.4233" x2="337.236" y2="150.415" gradientUnits="userSpaceOnUse">
<stop stop-color="white" stop-opacity="0"/>
<stop offset="0.5084" stop-color="white"/>
<stop offset="1" stop-color="white" stop-opacity="0"/>
</linearGradient>
<linearGradient id="paint33_linear_39_1216" x1="271.6" y1="92.4233" x2="271.6" y2="150.415" gradientUnits="userSpaceOnUse">
<stop stop-color="white" stop-opacity="0"/>
<stop offset="0.5084" stop-color="white"/>
<stop offset="1" stop-color="white" stop-opacity="0"/>
</linearGradient>
<linearGradient id="paint34_linear_39_1216" x1="313.179" y1="92.4233" x2="313.179" y2="150.415" gradientUnits="userSpaceOnUse">
<stop stop-color="white" stop-opacity="0"/>
<stop offset="0.5084" stop-color="white"/>
<stop offset="1" stop-color="white" stop-opacity="0"/>
</linearGradient>
<linearGradient id="paint35_linear_39_1216" x1="295.386" y1="92.4233" x2="295.386" y2="150.415" gradientUnits="userSpaceOnUse">
<stop stop-color="white" stop-opacity="0"/>
<stop offset="0.5084" stop-color="white"/>
<stop offset="1" stop-color="white" stop-opacity="0"/>
</linearGradient>
<linearGradient id="paint36_linear_39_1216" x1="218.417" y1="92.4234" x2="218.417" y2="150.415" gradientUnits="userSpaceOnUse">
<stop stop-color="white" stop-opacity="0"/>
<stop offset="0.5084" stop-color="white"/>
<stop offset="1" stop-color="white" stop-opacity="0"/>
</linearGradient>
<linearGradient id="paint37_linear_39_1216" x1="256.702" y1="92.4233" x2="256.702" y2="150.415" gradientUnits="userSpaceOnUse">
<stop stop-color="white" stop-opacity="0"/>
<stop offset="0.5084" stop-color="white"/>
<stop offset="1" stop-color="white" stop-opacity="0"/>
</linearGradient>
<linearGradient id="paint38_linear_39_1216" x1="333.442" y1="92.4233" x2="333.442" y2="150.415" gradientUnits="userSpaceOnUse">
<stop stop-color="white" stop-opacity="0"/>
<stop offset="0.5084" stop-color="white"/>
<stop offset="1" stop-color="white" stop-opacity="0"/>
</linearGradient>
<linearGradient id="paint39_linear_39_1216" x1="201.135" y1="92.4233" x2="201.135" y2="150.415" gradientUnits="userSpaceOnUse">
<stop stop-color="white" stop-opacity="0"/>
<stop offset="0.5084" stop-color="white"/>
<stop offset="1" stop-color="white" stop-opacity="0"/>
</linearGradient>
<linearGradient id="paint40_linear_39_1216" x1="57.6584" y1="92.4233" x2="57.6584" y2="150.415" gradientUnits="userSpaceOnUse">
<stop stop-color="white" stop-opacity="0"/>
<stop offset="0.5084" stop-color="white"/>
<stop offset="1" stop-color="white" stop-opacity="0"/>
</linearGradient>
<linearGradient id="paint41_linear_39_1216" x1="167.171" y1="92.4233" x2="167.171" y2="150.415" gradientUnits="userSpaceOnUse">
<stop stop-color="white" stop-opacity="0"/>
<stop offset="0.5084" stop-color="white"/>
<stop offset="1" stop-color="white" stop-opacity="0"/>
</linearGradient>
<linearGradient id="paint42_linear_39_1216" x1="64.6785" y1="92.4233" x2="64.6785" y2="150.415" gradientUnits="userSpaceOnUse">
<stop stop-color="white" stop-opacity="0"/>
<stop offset="0.5084" stop-color="white"/>
<stop offset="1" stop-color="white" stop-opacity="0"/>
</linearGradient>
<linearGradient id="paint43_linear_39_1216" x1="101.479" y1="92.4233" x2="101.479" y2="150.451" gradientUnits="userSpaceOnUse">
<stop stop-color="white" stop-opacity="0"/>
<stop offset="0.5084" stop-color="white"/>
<stop offset="1" stop-color="white" stop-opacity="0"/>
</linearGradient>
<linearGradient id="paint44_linear_39_1216" x1="132.823" y1="92.4233" x2="132.823" y2="150.415" gradientUnits="userSpaceOnUse">
<stop stop-color="white" stop-opacity="0"/>
<stop offset="0.5084" stop-color="white"/>
<stop offset="1" stop-color="white" stop-opacity="0"/>
</linearGradient>
</defs>
</svg>
