<svg width="2527" height="1356" viewBox="0 0 2527 1356" fill="none" xmlns="http://www.w3.org/2000/svg">
<path d="M1.44311 1035.08L1621.79 1327.64C1628.09 1328.78 1634.57 1328.4 1640.7 1326.52C1646.87 1324.63 1652.74 1321.85 1658.12 1318.26L1662.95 1315.04L1675.11 1308.28L1639.21 1333.86C1634 1337.57 1628.5 1340.87 1622.78 1343.73L1612.71 1348.05L1602.65 1350.92L1598.33 1352C1593.56 1353.19 1588.66 1353.8 1583.74 1353.8C1580.06 1353.8 1576.38 1353.46 1572.76 1352.79L1.44311 1060.96L1.44311 1035.08Z" fill="white"/>
<path d="M1675.94 1309.45L1640.04 1335.03C1634.77 1338.79 1629.21 1342.13 1623.42 1345.02L1623.38 1345.04L1623.34 1345.05L1613.28 1349.37L1613.19 1349.4L1613.11 1349.43L1603.04 1352.3L1603.02 1352.31L1602.99 1352.32L1598.68 1353.4C1593.79 1354.62 1588.77 1355.24 1583.74 1355.24C1579.97 1355.24 1576.2 1354.89 1572.5 1354.2L0.0062725 1062.16L0.0046924 1060.96L0.00382487 1033.36L1622.05 1326.23C1628.12 1327.33 1634.37 1326.96 1640.27 1325.15C1646.32 1323.3 1652.06 1320.57 1657.32 1317.07L1662.16 1313.85L1662.2 1313.81L1662.25 1313.78L1674.41 1307.02L1675.94 1309.45ZM1662.95 1315.04L1658.12 1318.26C1652.74 1321.85 1646.87 1324.63 1640.7 1326.52L1639.54 1326.86C1633.76 1328.44 1627.7 1328.71 1621.79 1327.64L1.44264 1035.08L1.44311 1060.96L1572.76 1352.79C1575.93 1353.38 1579.14 1353.71 1582.36 1353.78L1583.74 1353.8C1588.66 1353.8 1593.56 1353.19 1598.32 1352L1602.65 1350.92L1612.71 1348.05L1622.78 1343.73C1627.79 1341.23 1632.62 1338.39 1637.24 1335.23L1639.21 1333.86L1675.11 1308.28L1662.95 1315.04Z" fill="black"/>
<path d="M2526.77 1.20397L2526.5 110L2403.81 763.959C2402.26 772.326 2399.3 780.37 2395.07 787.752C2392.73 791.832 2390.02 795.685 2386.97 799.261L2385.47 801.005C2378.92 808.676 2371.24 815.312 2362.7 820.686L2352.74 826.957L2342.65 831.571C2338.89 833.293 2334.96 834.625 2330.93 835.545L2325.18 836.983L2313.45 838.383L2305.38 838.869C2305.2 838.88 2305.03 838.748 2305 838.562C2304.99 838.473 2305.04 838.387 2305.12 838.356L2309.02 836.924L2313.46 835.508L2320.86 832.669C2327.01 829.865 2332.94 826.605 2338.6 822.917L2341.23 821.205L2346.94 816.888L2350.57 813.306C2356.88 807.089 2362.65 800.349 2367.82 793.157L2369.98 790.146C2373.71 784.959 2376.97 779.454 2379.73 773.694C2381.7 767.959 2383.24 762.088 2384.35 756.128L2526.77 1.20397Z" fill="white"/>
<path d="M2403.81 763.965L2403.5 765.53C2401.88 773.334 2399.04 780.837 2395.07 787.758L2394.18 789.276C2392.05 792.797 2389.64 796.139 2386.96 799.267L2385.47 801.011L2384.23 802.437C2377.96 809.507 2370.71 815.654 2362.7 820.692L2352.73 826.961L2342.65 831.577L2341.23 832.205C2337.91 833.626 2334.46 834.747 2330.93 835.551L2325.17 836.988L2313.45 838.389L2305.38 838.875L2305.25 838.856C2305.16 838.829 2305.09 838.773 2305.05 838.696L2305 838.568C2304.99 838.48 2305.03 838.393 2305.12 838.361L2309.02 836.929L2313.45 835.515L2320.86 832.676C2326.24 830.222 2331.45 827.417 2336.47 824.284L2338.6 822.924L2341.23 821.211L2346.94 816.894L2350.57 813.312C2356.88 807.095 2362.65 800.353 2367.82 793.162L2369.98 790.151C2373.71 784.965 2376.97 779.46 2379.73 773.7C2381.45 768.681 2382.85 763.559 2383.91 758.365L2384.35 756.136L2527 0V110L2403.81 763.965ZM2525.33 17.0269L2385.76 756.399C2384.64 762.427 2383.08 768.364 2381.09 774.165L2381.07 774.246L2381.03 774.322C2378.23 780.157 2374.93 785.735 2371.15 790.99L2368.98 794.003C2363.77 801.26 2357.95 808.062 2351.58 814.335L2347.95 817.917L2347.88 817.982L2342.1 822.357L2342.05 822.389L2342.01 822.416L2339.39 824.126C2333.66 827.853 2327.67 831.15 2321.46 833.984L2321.42 834.002L2321.38 834.017L2313.97 836.856L2313.93 836.872L2313.89 836.882L2313.86 836.89L2324.92 835.568L2330.58 834.155L2332.08 833.792C2335.5 832.919 2338.84 831.741 2342.05 830.271L2352.04 825.698L2361.93 819.473C2370.35 814.177 2377.92 807.638 2384.38 800.078L2385.87 798.332C2388.87 794.825 2391.53 791.044 2393.82 787.042C2397.97 779.801 2400.87 771.911 2402.39 763.704L2526 110L2525.33 17.0269Z" fill="black"/>
<path d="M1625.73 1334.72C1624.87 1336.46 1628.69 1340.27 1630.28 1339.15L2346.09 835.962C2351.05 832.473 2346.82 824.791 2341.22 827.122L2295.44 831.636C2287.45 832.425 2279.39 832.374 2271.4 831.483L2203.45 823.887L1931.66 780.751L1883.63 773.976C1866.35 771.538 1848.74 772.982 1832.09 778.204C1814.55 783.704 1798.54 793.247 1785.36 806.064L1780.98 810.32C1762.96 827.841 1749.88 849.799 1743.04 873.984L1734.3 904.927L1715.37 995.982L1694.88 1149.77L1681.91 1242.35C1681.91 1242.35 1670.32 1315.51 1625.73 1334.72Z" fill="white"/>
<path d="M1642.03 1334.16L2366.35 822.285C2370.42 819.408 2374.24 816.19 2377.76 812.665C2382.84 807.588 2387.28 801.908 2390.97 795.751L2391.53 794.826C2393.2 792.042 2394.62 789.12 2395.79 786.091L2402.91 767.637L2393.31 785.933C2386.28 799.325 2375.49 810.372 2362.27 817.718L2344.68 827.485C2335.5 832.586 2325.38 835.771 2314.93 836.848L2286.93 839.733C2278.96 840.554 2270.93 840.541 2262.96 839.693L2197.78 832.736L1935.59 792.475L1889.41 786.197C1872.63 783.916 1855.55 785.386 1839.41 790.501C1822.48 795.863 1807.04 805.087 1794.29 817.444L1790.02 821.584C1772.52 838.555 1759.76 859.812 1753.01 883.242L1744.48 912.876L1725.79 1000.59L1705.3 1148.67L1692.35 1237.82C1692.35 1237.82 1670.78 1312.59 1633.4 1337.04C1637.71 1337.04 1642.03 1334.16 1642.03 1334.16Z" fill="url(#paint0_linear_51_1179)"/>
<path d="M0 1034.79L6.5 1036L7 1062L0 1060.66V1034.79Z" fill="white"/>
<path d="M2525 19.1175L2527 6.99985V105.151L2526 110L2525 19.1175Z" fill="white"/>
<defs>
<linearGradient id="paint0_linear_51_1179" x1="1177.75" y1="-10.9334" x2="1177.75" y2="1373.24" gradientUnits="userSpaceOnUse">
<stop stop-color="white"/>
<stop offset="0.682692" stop-color="#CED4DD"/>
<stop offset="0.966346" stop-color="#E6E9ED"/>
</linearGradient>
</defs>
</svg>
