<svg width="4776" height="1707" viewBox="0 0 4776 1707" fill="none" xmlns="http://www.w3.org/2000/svg">
<path d="M1590.82 1302.55L3634.52 1671.65C3642.46 1673.09 3650.64 1672.6 3658.36 1670.24C3666.15 1667.85 3673.55 1664.34 3680.34 1659.82L3686.43 1655.75L3701.77 1647.22L3656.49 1679.49C3649.91 1684.18 3642.98 1688.34 3635.76 1691.95L3623.06 1697.39L3610.37 1701.02L3604.92 1702.38C3598.9 1703.89 3592.73 1704.65 3586.52 1704.65C3581.88 1704.65 3577.24 1704.22 3572.67 1703.37L1590.82 1335.2V1302.55Z" fill="white"/>
<path d="M4776 0L4774.33 136.155L4620.85 960.494C4618.89 971.049 4615.17 981.198 4609.83 990.511C4606.88 995.659 4603.46 1000.52 4599.6 1005.03L4597.72 1007.23C4589.45 1016.91 4579.77 1025.28 4569 1032.06L4556.43 1039.97L4543.71 1045.79C4538.97 1047.97 4534.01 1049.65 4528.92 1050.81L4521.67 1052.62L4506.88 1054.39L4496.71 1055C4496.47 1055.02 4496.26 1054.85 4496.22 1054.61C4496.21 1054.5 4496.27 1054.39 4496.38 1054.35L4501.29 1052.55L4506.89 1050.76L4516.23 1047.18C4523.99 1043.64 4531.46 1039.53 4538.6 1034.88L4541.92 1032.72L4549.12 1027.27L4553.7 1022.75C4561.66 1014.91 4568.93 1006.4 4575.45 997.33L4578.18 993.531C4582.89 986.988 4587 980.042 4590.48 972.776C4592.96 965.539 4594.9 958.133 4596.31 950.614L4776 0Z" fill="white"/>
<path d="M3702.81 1648.69L3657.54 1680.97C3650.88 1685.71 3643.87 1689.92 3636.56 1693.57L3636.52 1693.6L3636.47 1693.62L3623.78 1699.06L3623.67 1699.1L3623.56 1699.13L3610.87 1702.76L3610.84 1702.77L3610.81 1702.78L3605.36 1704.14C3599.2 1705.68 3592.87 1706.46 3586.52 1706.46C3581.76 1706.46 3577.02 1706.02 3572.34 1705.16L1589 1336.71L1589 1335.2L1589 1300.38L3634.84 1669.86C3642.5 1671.25 3650.38 1670.78 3657.82 1668.5C3665.45 1666.17 3672.69 1662.73 3679.32 1658.31L3685.42 1654.24L3685.49 1654.2L3685.55 1654.17L3700.88 1645.63L3702.81 1648.69ZM3686.43 1655.75L3680.33 1659.82C3673.55 1664.34 3666.15 1667.85 3658.36 1670.23L3656.9 1670.66C3649.61 1672.65 3641.96 1673 3634.51 1671.65L1590.81 1302.55L1590.82 1335.2L3572.67 1703.37C3576.67 1704.11 3580.72 1704.53 3584.78 1704.63L3586.52 1704.65C3592.72 1704.65 3598.9 1703.88 3604.92 1702.38L3610.37 1701.02L3623.06 1697.39L3635.76 1691.95C3642.08 1688.79 3648.17 1685.21 3654 1681.22L3656.48 1679.49L3701.76 1647.22L3686.43 1655.75Z" fill="black"/>
<path d="M4620.85 960.494L4620.46 962.469C4618.42 972.315 4614.84 981.781 4609.83 990.512L4608.71 992.428C4606.02 996.869 4602.98 1001.09 4599.61 1005.03L4597.73 1007.23L4596.16 1009.03C4588.25 1017.95 4579.1 1025.71 4569 1032.06L4556.43 1039.97L4543.72 1045.79L4541.93 1046.59C4537.73 1048.38 4533.38 1049.79 4528.93 1050.81L4521.67 1052.62L4506.89 1054.39L4496.71 1055L4496.54 1054.98C4496.43 1054.94 4496.34 1054.87 4496.29 1054.78L4496.23 1054.62C4496.21 1054.5 4496.27 1054.39 4496.38 1054.35L4501.29 1052.55L4506.89 1050.76L4516.24 1047.18C4523.02 1044.09 4529.59 1040.55 4535.92 1036.59L4538.61 1034.88L4541.92 1032.72L4549.12 1027.27L4553.71 1022.75C4561.66 1014.91 4568.94 1006.4 4575.46 997.33L4578.19 993.531C4582.89 986.988 4587 980.043 4590.49 972.776C4592.65 966.445 4594.41 959.983 4595.76 953.429L4596.31 950.617L4776 0V136.155L4620.85 960.494ZM4774.12 18.1422L4598.09 950.949C4596.68 958.554 4594.7 966.044 4592.2 973.363L4592.17 973.465L4592.12 973.561C4588.59 980.923 4584.43 987.96 4579.66 994.589L4576.93 998.391C4570.35 1007.55 4563.01 1016.13 4554.98 1024.04L4550.4 1028.56L4550.31 1028.64L4543.02 1034.16L4542.97 1034.2L4542.91 1034.24L4539.6 1036.39C4532.38 1041.1 4524.83 1045.26 4516.99 1048.83L4516.94 1048.85L4516.89 1048.87L4507.54 1052.46L4507.49 1052.48L4507.44 1052.49L4507.4 1052.5L4521.35 1050.83L4528.49 1049.05L4530.38 1048.59C4534.7 1047.49 4538.91 1046 4542.96 1044.15L4555.56 1038.38L4568.04 1030.52C4578.65 1023.84 4588.2 1015.59 4596.35 1006.06L4598.23 1003.85C4602.01 999.428 4605.37 994.658 4608.26 989.609C4613.49 980.473 4617.15 970.519 4619.07 960.165L4774.33 136.155L4774.12 18.1422Z" fill="black"/>
<path d="M3639.5 1680.58C3638.41 1682.77 3643.23 1687.58 3645.24 1686.17L4548.06 1051.33C4554.32 1046.93 4548.99 1037.24 4541.92 1040.18L4484.19 1045.87C4474.1 1046.87 4463.94 1046.8 4453.87 1045.68L4368.16 1036.1L4025.36 981.676L3964.78 973.128C3942.98 970.052 3920.78 971.875 3899.77 978.462C3877.65 985.402 3857.46 997.441 3840.83 1013.61L3835.31 1018.98C3812.59 1041.09 3796.08 1068.79 3787.46 1099.3L3776.43 1138.34L3752.56 1253.22L3726.71 1447.24L3710.36 1564.04C3710.36 1564.04 3695.73 1656.34 3639.5 1680.58Z" fill="white"/>
<path d="M3660.05 1679.87L4573.61 1034.08C4578.75 1030.45 4583.56 1026.39 4588.01 1021.94C4594.41 1015.54 4600.01 1008.37 4604.67 1000.6L4605.37 999.435C4607.47 995.923 4609.27 992.236 4610.75 988.414L4619.73 965.132L4607.61 988.215C4598.75 1005.11 4585.14 1019.05 4568.46 1028.32L4546.29 1040.64C4534.71 1047.07 4521.94 1051.09 4508.77 1052.45L4473.44 1056.09C4463.39 1057.13 4453.26 1057.11 4443.21 1056.04L4361 1047.26L4030.31 996.469L3972.07 988.549C3950.9 985.671 3929.36 987.525 3909 993.979C3887.65 1000.74 3868.17 1012.38 3852.09 1027.97L3846.71 1033.19C3824.63 1054.6 3808.54 1081.42 3800.03 1110.98L3789.27 1148.37L3765.69 1259.03L3739.85 1445.85L3723.52 1558.33C3723.52 1558.33 3696.32 1652.66 3649.16 1683.5C3654.61 1683.5 3660.05 1679.87 3660.05 1679.87Z" fill="url(#paint0_linear_52_1193)"/>
<path d="M1589 1302.21L1595.67 1303.41V1336.11L1589 1334.87V1302.21Z" fill="white"/>
<path d="M4772.66 25.545L4776 6.86082V129.643L4774 137.984L4772.66 25.545Z" fill="white"/>
<path d="M0 1013.5L1605.43 1305.19L1599.68 1336.85L1.91892e-07 1046L0 1013.5Z" fill="white"/>
<path d="M1.91892e-07 1046L1600.14 1336.93L1599.82 1338.72L1.20814e-07 1048L1.91892e-07 1046Z" fill="black"/>
<path d="M0.0175783 1011.68L1606.44 1303.53L1606.11 1305.31L0 1013.5L0.0175783 1011.68Z" fill="black"/>
<defs>
<linearGradient id="paint0_linear_52_1193" x1="3406.5" y1="1014.59" x2="3615.35" y2="1451.18" gradientUnits="userSpaceOnUse">
<stop stop-color="white"/>
<stop offset="0.682692" stop-color="#CED4DD"/>
<stop offset="0.966346" stop-color="#E6E9ED"/>
</linearGradient>
</defs>
</svg>
