<svg width="4776" height="2558" viewBox="0 0 4776 2558" fill="none" xmlns="http://www.w3.org/2000/svg">
<path d="M2.72487 1951.98L3065.39 2505.12C3077.3 2507.27 3089.55 2506.54 3101.12 2503C3112.8 2499.42 3123.89 2494.16 3134.05 2487.38L3143.19 2481.29L3166.17 2468.5L3098.31 2516.87C3088.46 2523.89 3078.07 2530.13 3067.25 2535.53L3048.23 2543.69L3029.2 2549.13L3021.04 2551.17C3012.02 2553.42 3002.76 2554.56 2993.47 2554.56C2986.5 2554.56 2979.55 2553.92 2972.71 2552.65L2.72487 2000.92L2.72487 1951.98Z" fill="white"/>
<path d="M4776 3.33786e-06L4773.5 204.041L4543.49 1439.39C4540.56 1455.2 4534.98 1470.41 4526.98 1484.37C4522.56 1492.08 4517.43 1499.37 4511.65 1506.13L4508.84 1509.43C4496.45 1523.93 4481.93 1536.47 4465.79 1546.63L4446.96 1558.49L4427.9 1567.22C4420.79 1570.47 4413.36 1572.99 4405.74 1574.73L4394.87 1577.45L4372.71 1580.09L4357.46 1581.01C4357.1 1581.03 4356.79 1580.78 4356.73 1580.43C4356.7 1580.26 4356.8 1580.1 4356.96 1580.04L4364.32 1577.34L4372.71 1574.66L4386.71 1569.29C4398.33 1563.99 4409.54 1557.83 4420.24 1550.85L4425.21 1547.62L4436 1539.45L4442.87 1532.68C4454.79 1520.93 4465.69 1508.18 4475.46 1494.59L4479.56 1488.89C4486.6 1479.09 4492.77 1468.68 4497.99 1457.79C4501.7 1446.95 4504.61 1435.85 4506.71 1424.58L4776 3.33786e-06Z" fill="white"/>
<path d="M3167.74 2470.71L3099.88 2519.08C3089.92 2526.18 3079.41 2532.5 3068.46 2537.97L3068.39 2538L3068.32 2538.03L3049.29 2546.19L3049.13 2546.26L3048.97 2546.3L3029.94 2551.74L3029.9 2551.75L3029.85 2551.76L3021.69 2553.81C3012.46 2556.12 3002.97 2557.28 2993.46 2557.28C2986.33 2557.28 2979.22 2556.63 2972.21 2555.33L0.00462549 2003.18L0.00163967 2000.92L0 1948.73L3065.87 2502.44C3077.35 2504.51 3089.16 2503.81 3100.32 2500.4C3111.74 2496.9 3122.59 2491.75 3132.54 2485.12L3141.68 2479.03L3141.77 2478.97L3141.86 2478.91L3164.84 2466.13L3167.74 2470.71ZM3143.18 2481.29L3134.04 2487.38C3123.88 2494.16 3112.79 2499.42 3101.12 2502.99L3098.93 2503.63C3088.01 2506.62 3076.55 2507.13 3065.38 2505.11L2.71954 1951.98L2.72114 2000.91L2972.7 2552.65C2978.69 2553.77 2984.76 2554.39 2990.85 2554.53L2993.46 2554.56C3002.76 2554.56 3012.01 2553.42 3021.03 2551.17L3029.2 2549.13L3048.22 2543.69L3067.24 2535.53C3076.72 2530.8 3085.85 2525.43 3094.58 2519.46L3098.31 2516.87L3166.16 2468.5L3143.18 2481.29Z" fill="black"/>
<path d="M4543.5 1439.39L4542.91 1442.34C4539.86 1457.1 4534.48 1471.29 4526.99 1484.37L4525.3 1487.24C4521.27 1493.9 4516.71 1500.21 4511.66 1506.13L4508.84 1509.43L4506.5 1512.12C4494.63 1525.49 4480.93 1537.11 4465.8 1546.64L4446.96 1558.49L4427.91 1567.22L4425.23 1568.4C4418.94 1571.09 4412.42 1573.21 4405.74 1574.73L4394.87 1577.45L4372.71 1580.1L4357.46 1581.01L4357.21 1580.98C4357.05 1580.93 4356.91 1580.82 4356.82 1580.68L4356.74 1580.43C4356.71 1580.27 4356.8 1580.1 4356.96 1580.04L4364.33 1577.33L4372.72 1574.66L4386.72 1569.29C4396.89 1564.65 4406.74 1559.35 4416.21 1553.43L4420.25 1550.86L4425.21 1547.62L4436.01 1539.46L4442.87 1532.68C4454.8 1520.93 4465.7 1508.18 4475.47 1494.59L4479.56 1488.89C4486.61 1479.09 4492.77 1468.68 4497.99 1457.79C4501.24 1448.3 4503.88 1438.62 4505.89 1428.8L4506.72 1424.58L4776 3.33786e-06V204.041L4543.5 1439.39ZM4773.19 27.1877L4509.39 1425.08C4507.27 1436.48 4504.31 1447.7 4500.56 1458.67L4500.51 1458.82L4500.44 1458.97C4495.16 1470 4488.91 1480.55 4481.77 1490.48L4477.68 1496.18C4467.82 1509.9 4456.81 1522.76 4444.78 1534.62L4437.91 1541.39L4437.79 1541.51L4426.85 1549.78L4426.78 1549.85L4426.7 1549.9L4421.73 1553.13C4410.92 1560.18 4399.59 1566.41 4387.85 1571.77L4387.77 1571.8L4387.69 1571.83L4373.69 1577.2L4373.62 1577.23L4373.55 1577.25L4373.48 1577.26L4394.38 1574.76L4405.09 1572.09L4407.92 1571.4C4414.39 1569.75 4420.7 1567.53 4426.77 1564.75L4445.65 1556.1L4464.35 1544.33C4480.26 1534.32 4494.56 1521.96 4506.78 1507.66L4509.6 1504.36C4515.26 1497.73 4520.29 1490.58 4524.63 1483.02C4532.47 1469.33 4537.95 1454.41 4540.82 1438.89L4773.5 204.041L4773.19 27.1877Z" fill="black"/>
<path d="M3072.85 2518.49C3071.23 2521.79 3078.45 2528.98 3081.45 2526.87L4434.42 1575.51C4443.8 1568.92 4435.8 1554.39 4425.21 1558.8L4338.7 1567.33C4323.58 1568.83 4308.35 1568.73 4293.26 1567.04L4164.81 1552.68L3651.1 1471.13L3560.31 1458.32C3527.65 1453.71 3494.37 1456.44 3462.9 1466.31C3429.74 1476.71 3399.49 1494.75 3374.57 1518.99L3366.3 1527.03C3332.24 1560.16 3307.51 1601.67 3294.59 1647.4L3278.06 1705.9L3242.28 1878.05L3203.55 2168.82L3179.04 2343.85C3179.04 2343.85 3157.13 2482.17 3072.85 2518.49Z" fill="white"/>
<path d="M3103.65 2517.43L4472.71 1549.66C4480.4 1544.22 4487.62 1538.13 4494.28 1531.47C4503.88 1521.87 4512.26 1511.13 4519.24 1499.49L4520.29 1497.74C4523.45 1492.48 4526.15 1486.95 4528.36 1481.23L4541.81 1446.34L4523.66 1480.93C4510.37 1506.25 4489.98 1527.13 4464.99 1541.02L4431.76 1559.49C4414.4 1569.13 4395.27 1575.15 4375.53 1577.19L4322.59 1582.65C4307.53 1584.2 4292.34 1584.17 4277.29 1582.57L4154.09 1569.42L3658.51 1493.3L3571.23 1481.43C3539.51 1477.11 3507.23 1479.89 3476.72 1489.56C3444.73 1499.7 3415.54 1517.14 3391.45 1540.5L3383.38 1548.33C3350.29 1580.42 3326.17 1620.61 3313.42 1664.9L3297.29 1720.93L3261.96 1886.76L3223.23 2166.74L3198.77 2335.29C3198.77 2335.29 3158 2476.65 3087.34 2522.87C3095.49 2522.87 3103.65 2517.43 3103.65 2517.43Z" fill="url(#paint0_linear_51_1180)"/>
<path d="M0 1951.48L10 1953.28V2002.28L0 2000.42V1951.48Z" fill="white"/>
<path d="M4771 38.2815L4776 10.2815V194.281L4773 206.781L4771 38.2815Z" fill="white"/>
<defs>
<linearGradient id="paint0_linear_51_1180" x1="3406.5" y1="1520.45" x2="3787.2" y2="2051.52" gradientUnits="userSpaceOnUse">
<stop stop-color="white"/>
<stop offset="0.682692" stop-color="#CED4DD"/>
<stop offset="0.966346" stop-color="#E6E9ED"/>
</linearGradient>
</defs>
</svg>
